<svg xmlns="http://www.w3.org/2000/svg" viewBox="0 0 25 25">
    <path fill="#fff" d="M24.84 9.049v10.947c0 .606-.216 1.126-.648 1.56a2.128 2.128 0 0 1-1.558.647H2.338a2.124 2.124 0 0 1-1.558-.648 2.133 2.133 0 0 1-.648-1.56V9.051c.404.45.868.85 1.392 1.2 3.328 2.26 5.612 3.845 6.853 4.756.526.386.953.687 1.28.903.326.216.763.436 1.31.66.546.226 1.053.34 1.52.34h.03c.473 0 .98-.114 1.52-.34.546-.224.983-.444 1.31-.66a33.09 33.09 0 0 0 1.276-.904c1.562-1.134 3.85-2.72 6.866-4.76.524-.36.984-.76 1.38-1.2l-.024.004zm.024-4.058c0 .72-.225 1.413-.675 2.08a6.59 6.59 0 0 1-1.69 1.69l-6.46 4.48-.59.42c-.3.213-.549.386-.745.52-.197.133-.436.283-.717.45-.28.166-.544.29-.79.37-.247.08-.477.12-.69.12h-.025c-.21 0-.44-.042-.69-.125a4.272 4.272 0 0 1-.79-.37c-.28-.167-.519-.317-.715-.45a44.146 44.146 0 0 1-.748-.523c-.298-.218-.492-.36-.584-.424a721.312 721.312 0 0 0-3.61-2.516C3.773 9.622 2.826 8.976 2.506 8.776c-.571-.387-1.109-.918-1.614-1.592-.507-.674-.76-1.3-.76-1.88 0-.716.19-1.312.572-1.79.381-.478.926-.716 1.634-.716h20.296c.597 0 1.114.216 1.55.648.437.433.656.953.656 1.56l.024-.01z"/>
</svg>
