<svg xmlns="http://www.w3.org/2000/svg" viewBox="0 0 25 25">
    <path fill="#fff" d="M24.917 12.802c0 2.706-.79 5.139-2.37 7.3-1.58 2.162-3.619 3.657-6.117 4.487-.292.054-.506.016-.64-.114a.643.643 0 0 1-.202-.485v-3.41c0-1.04-.28-1.803-.84-2.29.613-.06 1.165-.156 1.656-.29.49-.133.997-.343 1.52-.63a4.426 4.426 0 0 0 1.31-1.07c.35-.426.636-.991.857-1.693.22-.702.334-1.512.34-2.432 0-1.303-.424-2.413-1.27-3.33.4-.98.356-2.08-.13-3.3-.3-.095-.737-.035-1.31.18a8.497 8.497 0 0 0-1.484.71l-.615.39a11.48 11.48 0 0 0-3.104-.42c-1.068 0-2.104.137-3.11.41-.174-.12-.402-.265-.686-.436-.284-.17-.734-.379-1.35-.625-.616-.246-1.082-.319-1.396-.22-.474 1.214-.511 2.31-.113 3.29-.854.92-1.28 2.031-1.28 3.332 0 .92.11 1.73.33 2.43.22.7.503 1.266.85 1.698.346.432.782.792 1.306 1.08.524.288 1.03.498 1.52.63a10.27 10.27 0 0 0 1.656.29c-.434.391-.7.948-.8 1.67-.227.107-.47.187-.73.24-.26.054-.568.08-.923.08-.356 0-.709-.115-1.06-.347-.352-.231-.651-.568-.897-1.01a2.607 2.607 0 0 0-.783-.84c-.318-.215-.585-.345-.8-.39l-.324-.047c-.227 0-.384.025-.47.073-.087.049-.114.111-.08.185a.948.948 0 0 0 .145.227c.063.077.133.144.21.2l.114.08c.238.107.474.314.706.62.232.307.402.581.51.823l.16.37c.14.41.377.742.713.995.335.254.696.414 1.083.482.386.068.76.106 1.12.114.36.008.66-.011.9-.057l.37-.064a200.435 200.435 0 0 0 .016 2.31c0 .194-.07.354-.21.48-.14.127-.355.165-.645.113-2.494-.833-4.53-2.33-6.11-4.492-1.58-2.161-2.374-4.594-2.38-7.3 0-2.253.556-4.33 1.668-6.232a12.402 12.402 0 0 1 4.517-4.518C8.164.939 10.242.384 12.5.386c2.257.002 4.335.557 6.233 1.665a12.388 12.388 0 0 1 4.518 4.52c1.114 1.906 1.67 3.982 1.67 6.23z"/>
</svg>
