<svg xmlns="http://www.w3.org/2000/svg" viewBox="0 0 25 25">
    <path fill="#fff" d="M5.68 8.317v16.13H.31V8.317h5.37zm.342-4.98q.016 1.188-.822 1.985t-2.205.798h-.033q-1.334 0-2.148-.798T0 3.337q0-1.205.838-1.994t2.19-.79 2.164.79.83 1.994zM25 15.202v9.245h-5.355V15.82q0-1.71-.66-2.677t-2.058-.97q-1.025 0-1.717.563t-1.034 1.392q-.18.488-.18 1.318v9H8.644q.032-6.494.032-10.53T8.66 9.098l-.017-.78h5.354v2.343h-.032q.325-.52.667-.91t.92-.844 1.416-.708 1.863-.252q2.788 0 4.48 1.847t1.69 5.41z"/>
</svg>
