<svg xmlns="http://www.w3.org/2000/svg" viewBox="0 0 442 591.3">
    <path d="M390.1 381.7c2.7 3 5.3 6 8 8.9 6.6 8 6.3 17.3 4.3 26.5-3 13.5-12.1 22.3-23.9 28.6-5.4 2.9-10.9 5.7-17 7.1-5.5.5-10.9-.9-16.4-.9-7.7 0-15.2 1.1-22.7 2.9-1.9.5-3.9 1.1-5.9.7-12.3-2.9-24.4-1.6-36.5.8-2.2.3-4.4 1-6.4 1.9-11.4 7.2-21 16.2-27.6 28.2-.9 1.6-1.5 3.3-2 5.1-1.1 4.4-2.6 8.8-5.1 12.4-5.2 7.5-9.1 15.3-10.7 24.3-3.4 3.1-7.6 5.1-11.7 6.4-9.9 3.2-19.9 6.5-30.6 6.3-16.3-.2-29.5-9-35.6-24.2-4.5-11.3-4.8-22.7.4-33.9 1.2-2.6 2.6-5 5.1-6.6 1.3-1.7 2.6-3.3 3.9-5 .5.2.8.5 1 1 .5 3.1-1.1 5.8-2.1 8.6-.9 2.7-1.8 5.3-.9 8.8 3.4-4 6.2-8 9.3-11.7 3.7-4.4 8.2-7.7 12.6-11.3 1.1-.9 2.6-2.3 3.9-1.1 1.4 1.3-.1 2.7-.8 3.9-.7 1.3-1.8 2.4-3 4.2 3.1.5 5.9 1.1 8.3 2.7 1 .6 2.2 1.4 1.9 2.7-.4 1.5-1.8 1-2.9 1-1-.1-2.1 0-3-.4-6.7-3-10.4.9-14.1 5.6-3.8 4.8-8 9.3-12.1 13.9-3.6 3.3-1.4 7-.6 10.5.5 2.1 1.6 3.9 2.6 5.8 5 8.6 11.9 15 22.2 15.4 8 .3 15.7-2.1 22.2-7.1 17.3-10.6 28-26.8 36.1-44.8-6.5 1.7-13.1 5.1-20.5 4.9h-10.7c-5-.7-10.1-.9-14.4-4.2.1-2.8 2.4-2.6 4-2.5 23.3 1.5 43-9.3 63.3-18.4 6.8-3 6.8-3.1 3.4-9.6-3.6-6.8-6.5-13.8-7.6-21.5-.9-5.9-.6-6.4 5-4.7 10.2 3.1 19.1 8.3 26.8 15.7 5.1 4.9 5.9 4.9 11.5.1 9.3-10.3 20.4-18.9 27.5-31.1 1.7-2.8 2.5-4.5-1.4-6.4-6-2.8-8.2-8.8-10.7-14.4-2.1-2.1-5.3-1.9-7.5-3.7-1.1-.9-3.4-1.5-1.2-3.5 1.3-.5 2.6-.1 3.9 0 5.9.7 10.6-1.9 13.4-6.8 5.1-8.8 7.7-18.3 5.4-29.7-5.5 13.7-14.1 24-23.2 34.1-11.9 13.9-25.5 26-42.1 33.9-10.4 5-21.8 7.2-33.1 9.4-13.9 2.7-27.8 5.3-42.1 5.1-4.8-.1-6.3 4.5-9.6 6.5-7.6 6-15.9 9.4-25.7 7.4-1.7-.3-3.3 0-4.8.7-2.4 1.1-3.8.3-4.3-2.2-.2-1.1.1-2.3-.3-3.4-.1.9-.3 1.8-1.4 1.9-6.6-4.6-10.3-11.4-13.7-18.5-.7-1.4-.6-3.7-2.9-3.4-1.6.2-2.8 1.8-3.6 3.2-1 1.8.6 2.7 1.6 3.7 4 4.2 8.6 7.8 11.4 13.1.7 1.4 2.1 3.2.8 4.5-1.7 1.8-3.3 0-4.7-1.1-5.1-4.7-10.3-9.3-14.1-15.2-1.8-2.8-2.5-5.4-.5-8.2 0-.5 1.7-1.5-.1-1.6-14.6-.5-20.1-11.2-25-22.5-.3-.8-.5-1.6-.5-2.4 0-1.5-.3-3.4 1.5-3.8 1.5-.4 2.1 1.4 2.8 2.4.8 1.3 1.4 2.7 2.3 3.9-1.3-2.3-2.5-4.6-3.5-7.1-.4-1.1-.9-2.4.2-3.2 1.1-.8 2.2.3 3.1.9 1 .7 1.7 1.6 2.6 2.9-.9-1.8-2.3-3.9-.7-4.8 2.9-1.7 4.3 1.8 6.3 2.7-2.1-2-4.8-3.3-7.2-5-2.9-2.1-5-2.2-7.1 1-.9 1.3-1.9 3.3-3.9 2.1-1.8-1-1-3-.4-4.5 7.5-18 17-34.7 31.3-48.2 13.6-12.8 28.3-24.3 43.5-35.1 14.1-10 29.7-16.8 46.3-21.8 17.8-5.3 35.8-9.4 54.5-8.6 27.8 1.1 55.4 4 81.5 15 6.4 2.7 12.2 6.2 17.5 10.5 2 1.6 4 3.6-.7 4.3-7.5-2-14.6-5.7-22.3-7-4.7-.8-5.5-.2-4.2 4.1 3.8 12.4 2.2 24.7-.3 37-.7 3.4-.8 5.1 3.6 5.2 5.6.2 8.8 4 10.2 9.4 5.5-1.7 5.9-6.2 6.1-11.1-.4 2.5-.7 4.6-1.4 6.6-.4.9-.7 2-1.9 2.1-1.4 0-1.9-1.1-2.3-2.2-.3-1-.5-2-.4-3 .6-11.8-2.6-23.1-5.5-34.4-.8-3.1-1.6-6.1-1.7-9.3-.1-1.1-.5-2.5 1-3 1.1-.3 1.9.6 2.3 1.5 3 5.9 6.7 11.5 8 16.9.2 1.9 1 1.1.4 1.3-.1 0-.2-.1-.2-.4-.4-3.1-.8-6.3-1.1-9.4-.2-1.5-.2-3.5 1.4-3.8 1.7-.4 2.5 1.5 3 2.9 2.7 7.6 4.1 15.4 5 23.4.9 7.3 1.6 14.4-1.9 21.5-1.7 3.4 1.2 6.6 2.5 9.8 1.3 4.5 3.8 8.9 2.5 13.9-2.4 1.3-3.2-.7-4-2.1-2.2-3.7-3.8-7.7-4.9-11.9-.4-1.4-.3-4-2.6-3.4-2.1.5-2.1 2.8-1.6 4.6.9 3.2 1.2 6.5 1 9.9-.1 1.8.2 3.8-1.9 4.7-1.8 0-2.1-1.3-2.6-2.6-1.9-4.6-3.3-9.4-3.9-14.4-.8-6.9-3.3-9.1-11.2-9.5 2.4 4.6 4 9.2 4.6 14.1.1 1 .4 2 1.4 2.5 2.8 1.3 2.9 2.8.6 4.7-.8.7-.6 1.5 0 2.2 1.4 1.6.4 2.9-.9 3.7-2.6 1.6-3.7 4.1-4.8 6.8-1.6 4.1-4.2 7.6-8.4 9.5-2.5 1.1-2.6 2.5-1.7 4.7 1.9 4.6 8.9 8.4 14.1 7.5 2.1-.4 4-1.2 4.5-3.4.5-2.3-2-2.2-3.2-3.2-.4-.3-.8-.6-1-1.5 1-1.7 2.9-1.4 4.6-1.7 5.1-.9 10.3-1 15.1-3 8.3-3.3 9.4-5.4 7.1-14-.3-1.2-.8-2.3-.1-3.5 2.6-.9 2.7 1 2.9 2.7 2 1.3 2.7 3.5 4 5.3 3.3 3.7 1.4 7.3-.2 10.9-.3.5-.6.9-.9 1.3-4.6 4.8-10.5 6.8-17 6.9-3.3 0-5.4 1-6.2 4.3-.5 2.1-1.6 4.3-3.8 5-7.3 2.2-10.2 7.9-12.3 14.4-.6 1-1.1 2.2-1.5 3.3-2.5 6.5-7.5 11.1-12.6 15.5-1.4 1.2-2.8 2.3-4.1 3.5-1.4 1.3-3.3 2.1-5 4.3 12.1-.3 23.6 2.2 35.4.6 6.2-.8 12.5-1.3 18.7-2.5 5.4-1.1 10.6-2.9 15-6.4 7.2-4.7 12.2-10.9 14-19.5 1.2-5.5.6-10.8-1.1-16 0-2.3-2-3.6-2.8-5.5-2.2-5.5-6.1-9.8-10.1-14-1.4-1.5-3.6-2.6-2.9-5.2 0-.1.2-.1.4-.1s.3.1.5.2c4.8 2.9 9.5 5.6 14.2 8.3z"/>
    <path fill="#25430A" d="M72.9 172.5c.7-1 2.1-1.5 2.3-2.9 1.4-2 3.4-1.6 5.4-1.5 11.9.1 23.4-1.6 33.9-7.9 9.2-5.5 19-9.5 29.6-11.5 1.6.3 3.3.3 5 .4 1.2.3 2.6 1 2.5 2.1-.3 4.3 4.7 6.2 4.5 10.6-.1 1.7 2.3 1.5 3.7 1.3 2.6-.4 4.4-1.6 3.8-4.6.1-1 .5-1.8 1.5-2.2 2.9.9 4.3.2 3.5-3.2-.5-2.1-1.5-4-2.8-5.7-1.2-1.5-2.9-2.9-1.6-5.2.7-.4 1.4-.5 2.1-.5 11.3-1.1 22.1-4.8 32.9-7.9 4.8-1.4 9.6-2.8 14.3-4.3.5-.2 1-.5 1.4-.4 6.4 1.4 12.2-.8 18.1-2.5 3.9 2.5 7.9 4.3 12.7 4 3.8-.2 7.6-.8 11.3.8-2.8 2.8-6-.1-8.5.6 6.4 0 12.4 3.3 18.6 5.5 20.3 7.3 36.8 19.8 51.5 35.8 13.1 14.2 20.9 31 29.2 47.9 3.8 7.8 7.5 15.8 13.3 22.6 3.5 4 3.8 9.8 5.9 14.6 2 1.7.5 4 1 6 .3.5.2.9-.2 1.2-2.9-1.2-3.7-4.2-4.8-6.6-5.7-12.2-15.2-21.2-24.6-30.3-3.4-3.3-7.7-5.8-10.3-10-4-6.5-7.5-13.3-11.3-20-3.3-5.9-7.5-11-13-14.9-17.7-12.5-35.5-24.7-56-32.2-11.4-4.2-23-4.8-34.8-2.4-9.9 2.1-19.9 4-29.8 6-3.9 0-4.4 3.3-5.7 5.9-.9 1.5-2.3 2.3-3.9 2.8s-3.5.9-4.3 2.2c-4.2 6.3-10.2 5.4-16.3 4.5-1.4-.2-2.6-.7-3.6-1.6-2-1.8-4.1-1.7-6.5-.6-15.8 7.8-31.3 16.3-44.7 28-4.6 4-8.2 8.8-11.5 13.7-8.5 12.7-14.1 26.8-19.2 41.1-7.3 20.6-5.7 41.6-3.4 62.7.5 4.6 1.2 9.2 1.8 13.9 0 3.9-2.1 7.3-3.1 11-1.9 7.1-3.6 14.1-4.7 21.4-.5 3.2-.4 7.9-6 7.2 1-2.3-1.2-3.3-2-4.8-4.5-7.6-7.8-15.8-11.7-23.7-4.3-8.8-5.7-18.4-7.4-27.9-6-34.1 1.5-66.2 15.4-97.1 4.7-10.5 12.7-19.2 18-29.3 2.3-4.3 5-8.5 8.5-12.1z"/>
    <path fill="#FDF001" d="M107.2 34.5c1.2.2 2.5.5 3.3-.5 2.6-3.3 6.5-4.9 9.3-7.8 21.6-5.3 43.5-7.2 65.6-4.9 11.4 1.2 22.7 3.2 33.5 7.2 1.4.5 2.8 1 3.9 2.1.7 1 .5 2-.5 2.5-6.8 3.1-7.7 9.8-9.5 15.9-.9 2.8-1.4 5.8-2.3 8.6-.4 1.2-.5 2.9-2.2 2.8-1.5-.1-2.1-1.5-2.5-2.8-.7-2-1.5-4.1-1.8-6.2-.4-3.1-1.9-5.6-3.8-7.9-2.3-5.4-2.4-11.3-3.7-16.9.8 3.9 1.2 7.7.7 11.7-.4 2.4-2.2 2.4-4.1 2.7-7.1.9-10 4.9-10.8 12-1.5 12.9.4 25.2 4.6 37.3 1.6 4.7 1.6 4.7 6.1 2.5 3.4-1.7 4.9-.6 5.4 3.8-1.2 1.4-2.8 1.8-4.4 2-10.2 1.7-20.2 4.2-29.9 7.7-1.9.7-3.8 1.4-5.8.9-3.1-1.1-2.5-3.3-2-5.7 1.3-6.4 3.9-12.4 6.8-18.1 3.9-7.8 4.2-16 3.5-24.4-.3-4-.9-7.9-1.5-11.9-.6-3.3-2.1-3.5-4.3-1.5-7.2 6.7-13.8 14.3-14.7 24.2-1.2 12.6-2.7 25.7 4.2 37.6.2.4.3.9.4 1.4 0 1.9-1.5 2.5-2.8 3.1-13.7 6-27.4 12.1-40.8 18.7-.4.2-1 .2-1.5.3-3.1-1.4-3.6-4.6-4.7-7.2-1.9-4.5-4.8-8.4-7.6-12.3-1.7-2.4-4.2-3.8-6.8-4.8-2.1-.8-3.9-1.9-5.1-3.8-4.7-9.2-9.9-18.1-17.9-25-2.1-1.8-2.4-4.7-3.7-6.9-1.1-1.9.5-3.5 2-4.6 5.6-4.4 11.3-8.7 17.6-12.1 3.5-2.2 7.2-4.1 9.9-7.4 5.7-4.2 11.7-8.4 17.9-12.3z"/>
    <path fill="#E2D700" d="M201.1 43.6c5.2 2.9 3.4 9 5.8 13.2.5.9-.1 2.4 1.6 3.1 2.3-5.9 3.3-12.2 5.2-18.2 1.7-5.2 4.5-8.2 9.4-9.9 2.1-1.7 3.7 0 5.3.9 1.5.9 3.2 1.8 4.6 2.8 3.2 1.3 7.3 1.1 9 5-3 2.2-5.3-2.7-8.4-.7 2.3 1.9 5.5.9 7.6 2.7-7.1 5.3-6.9 13.8-9.8 22 2.9-3.3 4.6-6.4 7.3-8.6 1.8-1.5 3.7-2.6 5.1.5-1 7.1-3.8 13.7-4.7 20.8-.8 7-.3 13.9.6 20.8.1.5.2 1 .4 1.5-.2.2-.4.4-.7.6-5.2.7-10-1.7-15-2.3-7.1-.8-14.1-1.1-21.2-.3-1.8.2-3.6.5-5.1-1-1.1-3-1.9-5.9-5.4-1.5-2.4 3-5.4 2.1-6.5-1.8-2.6-8.7-5.3-17.4-5.9-26.5-.4-6 .3-12.2 1.1-18.2.6-4.6 6.8-8.9 11.8-9 1.2 0 2.7 1 3-1.2 1.5.1 1.9 1.3 2 2.4.6 5.2 2.1 10.2 2.2 14.7.7-3.2-2.5-7.7.7-11.8z"/>
    <path fill="#6F5903" d="M149 149.6c-1.4.6-2.8 1.7-4.1-.1-13.5-.7-25.3 3.2-34.9 12.8-2.9 2.9-5.8 3.8-9.9 3-3.6-.7-7.3-.4-11-.2-1.4.1-3.4.8-4.1-.9-.6-1.6 1.1-2.6 2.3-3.4 7.3-4.9 14.4-10.2 22.2-14.5 19.6-10.7 40.7-17.4 61.9-23.8 16.4-5 33-7.7 50.2-7.3 4.3.1 8.6.4 12.2.8 1.3 0 .7-1.1.8-.5 0 .1-.1.2-.2.2-9.6-.2-19-2.4-28.7-2-1.2.1-2.8 0-3-1.9 2.4-2.5 5.5-1.6 8.4-1.7 3.1-.1 6.2-.1 9.4.1 7.1.1 14.2-.5 21.1 1.1 2.3 1.9 1 4.3 1.1 6.6 0 1.3-.5 2.2-1.8 2.5-6.6.6-12.6 2.8-17.9 6.7-2.6 1.9-5.7 1.9-8.5 2.4-16 2.4-31.1 8.1-46.2 13.2-.8.3-1.5.6-2.3.1-.7 0-1.4 0-2.1-.1-.2.1-.3.2-.5.2-10.8-3-9.6-1.9-14.4 6.7z"/>
    <path fill="#213E08" d="M362 350.7c-2.9-4.4-5-8.7-1.6-14.1 3.1-5 1.1-10.7.7-16.1-.6-8.1-2.4-16-4.6-23.8-.3-1.2-.6-2.6-2.5-3.4.4 5.5 1.7 10.7.7 17.4-2.8-9-7.1-16-10.9-23.3 2.3 16.9 9.3 32.9 7.2 50.5h1.8c1-4.2 2-8.5 3.1-13.3 3.3 9.3 1.8 13.1-7.3 19.2-1.3-9.3-3.5-11.2-13.3-10.6-3.1.2-1.8-1.4-1.5-2.7 1.1-6.5 2.6-13 3.3-19.6.8-7.6-.1-15.2-2.5-22.6-1.5-4.7-.5-5.5 4.2-4.7 8.5 1.6 16.6 4.3 24.4 8 .4.5 1 .7 1.6.9 1.9.7 1.7 2.1 1.2 3.7 1 3.1 3.8 3.6 6.4 4.2 1.7.4 3.6-.2 4.9 1.4-1.3 1.9-6-.8-5.3 3.9 2 8 3.3 16.1 4.1 24.3.6 6.2-.9 12.2-.8 18.2 0 1.1-.5 2.3-1.8 2.7-2.9-3.7-2.2-8.2-2.6-12.3-.4-4.5-1.1-8.9-2.8-13.1-2.4-6.1-2.5-12.5-3.4-18.9.4 4.2.6 8.5 1.6 12.5 2.3 9.1.3 17.8-1.4 26.5-.5 1.9-.9 4-2.9 5.1z"/>
    <path fill="#020202" d="M367.1 258.6c-2.5-1.3-2.2-4-3-6-3.3-8.2-9.1-14.8-13.2-22.5-5.1-9.3-9-19.2-13.9-28.6-9.9-18.9-24.1-34-40.7-47.1-13.4-10.6-29.5-15.6-45.2-21.3-1.5-.5-3.2-.6-5.4-1 4.2-1.2 7.9-.1 11.5-.7 18.4 1.9 34.4 9.6 48.7 21.1 17.4 13.9 32.5 30 41.1 50.6 7.1 16.9 15.3 33.5 19.7 51.5.3 1.3.3 2.7.4 4z"/>
    <path fill="#040403" d="M233 35.6c-3.4-1-6.3-3.3-9.9-3.7-9.4-3.2-18.8-5.7-28.7-7.5-22.2-4.1-43.9-1.6-65.8 1.2-2.9.4-5.7 2.1-8.8.8 7.4-6.2 16.8-6.9 25.7-8.4 17.9-3 35.9-2.4 53.7.7 12.9 2.2 24.1 8.1 33.8 16.9z"/>
    <path fill="#2B4D0B" d="M365 295.7c1.1-1.5-.2-2.2-.9-3.1 2.3-1.1 3.2-2.4.5-4.1-1.3-.8-2.4-1.8-3.3-3-2.6-3.5-2.4-5 1.4-7 3.7-2 6.7-4.3 6.2-9.1-.5-1.2-1.6-2.3-.9-3.8v-1c1 0 2 .1 3 .1 2.3.2 2.8-2 4.1-3.2 2.4-2.2 4.4-1.8 6 1 0 0 .2.2.2.4 1.5 10.5 3.1 21.1-1.4 31.2-2.7 6.3-10.9 6.8-14.9 1.6z"/>
    <path fill="#030303" d="M365 295.7c7.8 4.5 13.6 2.4 15.4-6.1 1.7-8 1.2-16.2.2-24.3-.6-5.1-1.9-5.3-6-1.7-.9.8-1.7 2.9-3.6 1.1 1.9-1.5 2.7-3.7 3.8-5.8 2.5-4.6 4.8-4.8 8.2-.7 1.5 1.8 2.7 3.8 3.3 6.1 2.5 9.2 2.9 18.4.3 27.6-1.3 4.7-4 8.8-9.5 9.8-4.8.3-9.2-.4-12.9-3.9-1.3-1.5-.9-1.9.8-2.1z"/>
    <path fill="#32580F" d="M362 350.7c5-15.6 4.5-31.4 1.8-47.4 2.1 16 10.1 30.8 9.3 47.4 2.3 3.6 0 6.6-1.2 9.7-.5 1.5-2.4 2.4-2.1 4.3-.4.9-.8 1.9-1.3 2.8-1.1-.7-1-2.4-2.4-2.8-.4.3-.8.3-1.2-.1 0-4.8-1.8-9.3-2.9-13.9z"/>
    <path fill="#E2A402" d="M241.9 111.5c-1.4 1.4-3 1.1-4.6.7-5.4-1.2-10.8-.3-16.2-.7-2.3-.6 3.1-1.1 0-1.7-3.6-.7-6.6-2.9-9.4-5.1-1.5-1.2-3.6-3.1-.4-5 8.3-1 16.6-.8 24.8.1 1.3.1 2.6.7 3.8-.1v-.1c1.3 1.3 3.7.8 4.6 2.8-.8 2.9-.1 6.5-2.6 9.1z"/>
    <path fill="#040404" d="M166.2 142.7c16.5-7.1 33.4-12.6 51.3-14.9 2.3-.3 3.9-1.3 5.8-2.4 5.5-3.3 10.8-7.3 17.9-5.1-2.7 2.1-5.3 4.3-8 6.4-3 1.7-5.8 4.2-9.4 4.1-19.2-.5-35.8 10.2-54.4 12.3-1.2.1-2.3.8-3.2-.4z"/>
    <path fill="#080806" d="M79.2 54.3c-3.6 5.3-10 6.9-14.3 11.2-1.5 1.5-4.7 2-4.5 4.3.2 2.3 1.3 5.3 3.1 6.7 8.5 7.1 14.1 16.2 18.7 26-2.1 1-2.2 1.1-3.8-.7-2.4-2.5-4.3-5.4-6.8-7.7-3.2-4.4-7.1-8.4-9.8-13.2-1.6-2.7-4.2-2.2-6.4-3-.3-.2-.4-.5-.3-.8 0-.3.1-.4.2-.4 1.8-1.3 4.1-2.1 1.6-5.2-2-2.4-.7-5.4 2-6.6 5.6-2.6 9.3-8.1 15.7-9.4 1.3-.3 2.2-1.4 2.8-2.7.3-.8.9-1.7 1.7-.9.2.6 0 1.6.1 2.4z"/>
    <path fill="#FAF004" d="M55.1 77.6c4.2-2 6.2.4 8.2 3.8 2.7 4.3 6 8.2 9 12.2-2.3 1.7-3.7-.3-5.1-1.5-2.4-2.1-5.1-3.6-7.7-5.3-1.8-1.2-2.8-.5-2.7 1.7.1 2.4 1.9 5.1.1 7.1-2 2.2-5.3 1.3-8 1.8-2.3-.5-4.7-1-5.4-3.7V92c1.4-7.2 6.5-13.5 11.6-14.4z"/>
    <path fill="#050505" d="M370 364.7c-1.7-1.6.1-2.8.6-4 1.4-3.2 2.8-6.4 2.6-10 1.3-6.4 1.9-13 1.5-19.5-.5-8.2-1.7-16.3-3.4-24.4-.1-.3.5-.8.7-1.2 9.1 17.7 11.4 35.7 2 54.1-1 1.9-2.3 3.6-4 5z"/>
    <path fill="#FBF003" d="M243 55.6c-3.7-.9-4.6 2.5-6.3 4.3-2.1 2.1-3.7 4.8-6.2 8.2-.3-5.2 1.5-8.8 2.2-12.5.4-1.9 1.6-3.7 1.7-5.7.2-4.5 2.6-6.5 6.7-7.1.4-1 1.3-1.2 2.2-1.3 5.3 1 5.9 2.5 2.9 8.1-1.4 1.8 0 5.2-3.2 6z"/>
    <path fill="#0B0B05" d="M243 55.6c1.1-2 2.2-4 3.2-6-.7 13.7-3.4 27.1-5.5 40.6-.4 2.6-.7 5.2-1 7.8-3.2-6.2-2.7-12.8-2.2-19.3.6-8 3.1-15.5 5.5-23.1z"/>
    <path fill="#EFEFEF" d="M371.2 383.4c2-3.3 2.8-6.8 1.6-10.7 1.2-.1 2.5-.4 3.4.9 2.3 5.2 7.3 8.2 10.2 13 1.1 1.9 3.2 3.3 2.8 6-.3.1-.7.3-.9.2-5.4-3.8-11.5-6.2-17.1-9.4z"/>
    <path fill="#F6ED06" d="M41.8 96.3c.3-.4.5-.8.8-1.2 2.8-.1 3.9 1.6 4.1 4.1-2 4.1-4 8.2-2.8 13 .3 1.3-.3 2.6-1.8 3-3.1 0-5.8-.9-8-3.1 1-1.6 2-3.2 3.1-4.8 1.8-1.7.5-3.8.8-5.7.4-2.5.8-4.7 3.9-4.8.1 0 .2-.2.2-.2-.1 0-.2-.1-.3-.3z"/>
    <path fill="#0D0D0C" d="M107.2 34.5c-4.7 6-11.3 9.4-18.1 12.4-.3-.1-.6-.3-.8-.4 5.7-7.4 13.3-12.3 21.7-16.6-.9 1.5-1.8 3.1-2.8 4.6z"/>
    <path fill="#100C06" d="M46.1 98.5c-1.2-1.1-2.4-2.3-3.6-3.4-.3-.5-.7-1-1-1.4.7 0 1.4 0 2-.1 1.8 1 3.6 2 5.5 3 6.6 2.2 10 7.6 13.1 13.3.4.7.6 1.6 0 2.3-.9 1-1.9.3-2.6-.2-5.2-3.7-10.1-7.7-13.4-13.5z"/>
    <path fill="#1C1C1B" d="M55.1 77.6c-6.3 2.8-8 9.3-11.6 14.3-.9-6.7 3-13.5 9.1-16 1.4-.6 1.7.6 2.5.9v.8z"/>
    <path fill="#1C1B0F" d="M41.8 96.3c-3.5 2.7-2.8 6.6-2.9 10.2-.1 1.5-.7 1.7-1.8.9-.5-1.5-1-3.1-1.5-4.6-1.9-6.5-.4-8 6.2-6.5z"/>
    <path fill="#17150D" d="M34 112.3c3.1-.7 5.2 1.7 7.9 2.5.8.3 1.5.9 1.1 1.7-.4.9-1.5 1.1-2.4 1.2-3.8-1.9-7.1.3-10.5 1.3-.9-.2-1.8-.3-2.7-.5.9-3.4 3.9-4.6 6.6-6.2z"/>
    <path fill="#0A0908" d="M241.9 111.5c.1-3.3.7-6.5 2.8-9.2 1.5 5.4 1.4 10.6-1.7 15.5-1.6-1.9-.6-4.2-1.1-6.3z"/>
    <path fill="#110F07" d="M243.3 41.5c-.7.4-1.4.9-2.2 1.3-3.5 1.4-6.1-2.6-10.2-.8 1.8-4.2 3.6-5.9 7.1-2.9 1.1.9 2.5 1.6 4 1.5.4.3.9.6 1.3.9z"/>
    <path fill="#020203" d="M368.1 265.7c.6 1 1.3 2 1.9 3 .2 2.1-1.2 1.5-2.2 1.2-1.6-.6-2.8-1.9-3.8-3.1-5.9-7.2-13-13.3-19.1-20.3-7.9-8.8-16.7-16.8-26.2-23.8-15.5-11.3-33.1-17.5-51.7-21.7-19.8-4.5-39.3-2.2-58.9 1.5l-15.2 3c-18.6 3.6-34.3 12.4-49.3 24-25 19.2-44.3 42.7-58.7 70.3-5.2 9.9-8.8 20.5-12.9 30.9-3.7 11-8.2 21.7-12.2 32.6-1.1 3-3.2 5-5.6 6.8-5.9 5.5-5.8 8 .6 12.7 1.6 1.2 3.3 2.2 5 3.2 9.5 3.7 15.5 1.9 21.9-6.6.6-.8 1.1-1.9 2.3-1.4 1 .4 1.1 1.6 1 2.6-.5 4.2-2.4 7.7-5.7 10.2-2.6 2-2.4 3.8-.8 6.3 2.2 3.4 5.1 6.2 7.7 9.1 6.1 6.6 11.5 13.8 17.9 20.1 5.5 6.9 12.4 10.7 21.5 10.5 2.8-.1 5.6.7 8.2 1.8 1 .9.4 1.7-.1 2.6-3.1 2.6-7.4-.1-10.7 2.3.2 1.5 1.8 2.2 2 3.7-.2 1.5 2.1 4.4-2.1 3.8-2.4-1.8-5-3.5-4.2-7.1.3-1.2.1-1.7-1.4-1.8-11.9-.5-18.2-9.4-25-17.1-7.3-8.4-13-18-17.4-28.2-.9-2-2.2-2.9-4.7-2.4-8 1.6-14.8-1.3-20.6-6.5-8.4-7.4-7.5-14.6 2.3-20 2.7-.7 4-2.3 4.3-5.2 1.4-11.9 4.8-23.4 8.7-34.8-.7-5.2 2.2-9.6 3.9-14.1 10.1-27 26.2-50.2 45.2-71.5 3.6-4 8.3-6.6 12.1-10.4 4.6-3.8 9.4-7.5 13.9-11.3 14.8-12.5 31.7-20.4 50.7-24.4 15.3-3.2 30.7-6.1 46.3-7.4 13.4-1.1 26.5.9 39.5 4.1 16 4.7 31.7 10.3 45.5 19.9 2.5 1.8 5 3.6 6.9 6.2 2.6 2.4 5 4.8 7.7 7 13.4 10.8 24.1 23.9 31.5 39.7z"/>
    <path fill="#505050" d="M155.9 476.4c-9 13.8-10.2 28.2-2.9 43 7.6 15.5 24.4 23.6 41.3 19.9 11.7-2.5 23.4-5.3 33.7-11.7 3.5-3.5 8.2-4.8 12.7-6.3 2.7 1.4 1.6 3.3.5 5-1.2 1.8-2.3 3.6-3.1 5.6-.8 2.3.5 3 2.1 3.7.4 2.2-1 3-2.7 3.6-5.4.5-10.3 2.7-14.9 5.2-5.8 3.2-12.1 5.5-17.2 9.8-1.7 1.4-3.6 1.5-5.6 1.2-6.4-1-12.9-.8-19.3-1.2-6.1-.5-11.5-4.1-17.5-5.1-1.8-.3-3.5-.9-5.3-1-3.5-1.2-5.9-3.4-7-7.1-1.5-4.9-5.3-8.3-7.9-12.6-1.3-4.8-.3-35.3 1.3-39.8.5-1.4 1.4-2.6 1.9-4 3-3 5-7.4 9.9-8.2z"/>
    <path fill="#FBA503" d="M210.1 100.7c3.2 5.3 8.8 6.8 14 9.3-1 .5-2 1-2.9 1.4-6 .9-12.2-.8-18.2.9-1.1 1.6-2.9 1.2-4.5 1.5-33.6 7.2-66.5 16.6-96 35.1-7 4.4-13.3 9.8-19.1 15.9-3.9 4.1-7.5 4.1-11.4-.2-1.2-1.3-2.3-2.8-3.9-3.8-.4-.4-.7-.9-1.1-1.3-.2-.4-.2-.8 0-1.3 1.7-1.5 3.4-3 5-4.6.6-.5 1.2-.9 1.8-1.2 5.6-2.3 10.2-6.3 15.4-9.2 29.5-16.5 59.8-31.2 92.8-39.8 7.4-1.9 15.1-2.6 22.6-4 1.8-.2 3.9-.4 5.5 1.3z"/>
    <path fill="#020202" d="M72.9 172.5c-2.6 4.5-5.3 9-7.8 13.6-5.9 11.3-14.9 20.8-19.6 32.8-7.3 18.7-13.2 37.6-14.7 57.9-1.4 19 1 37.3 6.4 55.3 2.7 9 7.1 17.4 11.7 25.7.9 1.5 2.2 2.9 1.1 4.9-12.2-11.2-19.8-24.9-23.3-41.2-8.9-40.6-1.6-78.9 16.3-115.6 6.3-12.8 16.8-22.6 27.3-32.1.7-.6 1.7-.9 2.6-1.3z"/>
    <path fill="#545454" d="M362.1 451.7c9.3-3.6 18.2-7.9 26.1-14.2 12.1-9.7 17.1-26.6 11.9-41.3-.7-1.9-1.4-3.7-2-5.6 7.4 2.3 11.4 8.6 16 14.2 2.5 4.4 5.2 9.2 3.4 14.1-1.5 4.1-3.1 8.3-4.8 12.4-2 4.6-4.8 8.7-7.6 12.8-1.7 2.9-4 5-7.2 6.4-4 1.8-6.3 6-10.8 7.6-3.3 1.2-6.3 2.9-9.8 3.1-1 .1-2.1-.2-3 .3-7.4 4.4-15.7 2.4-23.6 3.6-1.7.2-3.1.7-4.6 1.5-3.2 1.7-6.8 1.4-10.2 1.1-1.7-.1-3.1-1.9-3.2-4 1.1-2.1 3.3-2.3 5.1-3.1 3.6-.3 7.3-.7 10.7-1.7 7.2-2.1 15-2 22.1-4.7.6-.3-.2-1.2.1-.6.1.2.1.4-.2.5-3.3.6-6.4 1.1-8.4-2.4z"/>
    <path fill="#C7C7C7" d="M145.9 484.6c-2.9 10.4-1.5 21.1-2.5 31.7-.4 4.5-.2 9 .9 13.4 1 2.1 1.7 4.3 1.9 6.6.7 9.5 6.6 14.5 14.9 17.5 11.6 3.9 23.1 8.3 34.4 13 .7 1.5 3.2-.2 3.7 1.9 1.5.9 3.1 1.7 5 2.9-4.5 3.3-9.6 2.7-14.2 3.8-13.2 2.9-37.8-5.9-42.8-17.4-8.6-20-16.7-40.3-6.4-62.4 1.5-3.8.9-8.6 5.1-11z"/>
    <path fill="#040303" d="M68 160.9c3.2-.2 4.7 2.3 6.2 4.3 2.3 3 4.5 2.2 6.7.4 1.9-1.6 3.6-3.5 5.3-5.2 13.4-13.2 29.6-21.8 46.9-28.4 20-7.7 40.3-14.5 61.3-18.6 2.8-.5 5.6-.6 8.4-.9 11.1.3 22.2 0 34.2 4-56.7-1.4-106.1 16.2-151.4 47.2 5.8-.3 11.5-.9 17.1 1 2.7.9 3.9-.8 5.4-2.4 9.5-9.8 20.9-15.2 34.9-13.6.6.1 1.1.5 1.7.8-12.4 2.9-23.5 8.7-34.8 14.3-9.3 4.6-19.6 6.6-30.1 5.5-1.7-.2-3.2.2-4.8.3-2.8-2.5-5.7-4.9-7-8.7z"/>
    <path fill="#E0E0E0" d="M410.1 461.6c-8.6 8.2-18.8 14.2-28.8 20.5-1.5 1-2.3 2.3-2.2 4.2.1 3.6-1.8 5.9-5.2 6.9-15.5 4.6-30.9 9.4-46.5 13.9-10 2.9-20.2 5.6-29.4 11.1-3.7 2.2-5.2 6.5-9 8.4-2.5-1.2-6.8-.4-7-4.4-.2-3.6 3.7-4.1 6.3-5.5 11-6 22.6-9.8 34.9-12 7.5-1.3 14.4-4.8 20.4-9.7 13.2-4.8 24.1-13.4 34.9-22 2.6-2 5.7-3.1 8.4-5 3.9-1.4 7.1-4 10.7-5.9 2.9 0 5.2-1.9 7.8-2.6 2.1-.6 4.3-1.1 4.7 2.1z"/>
    <path fill="#A1A1A1" d="M199.1 568.6l-3-.9c-.7-1.5.2-2.8 1.2-3.5 11.3-7.9 22.5-16.1 35-21.7 3.4-1.5 6.7-2.8 9.3-5.5.9-.8 2-1.3 3.2-1.6 2.8-.4 5.3-3.9 8.5-1.1.3.6.5 1.5 0 1.8-3.9 2.2-4 6.4-5.5 9.9-3.3 10.4-11.4 15.6-20.8 19.5-9.1 2.7-18.6 1.8-27.9 3.1z"/>
    <path fill="#C9C9C9" d="M344.1 495.7c-5.6 5.9-13 8.1-20.4 10.2-6.5 1.9-13.7 1.8-19.7 4.5-6.4 2.9-12.9 6-19.2 9.2-.9.5-2.2 1.4-2 2.6.3 1.4 1.5 2.1 2.9 2.3 1.4.2 3.2-.3 3.3 2l-3 3c-5.1 4.7-12 6.2-17.6 9.9-2.2.6-4.2 2.3-6.7.8-2-1.9-1.5-4.2-.1-5.8 4.9-5.9 8.3-12.9 13.8-18.4 1.4-1.1 3-2.2 4.6-3 10.3-5.9 21.9-8.6 33-12.4 2.4-.8 4.9-1.2 7.3-1.6 6.4-1 12.3-3.9 18.7-4.9 1.8-.1 4.1-1.3 5.1 1.6z"/>
    <path fill="#050505" d="M123 450.7c3.2-.6.3-2.8 1.1-4 2.8.1 3.1 2.6 4 4.4 1.6 3.1 2.3 6.6 3.9 9.7 2.7 5.2 5.9 6.5 11.5 4.8 3.9-1.2 7.3-3.3 10.6-5.5 1.1-.7 2.2-1.5 3.4-2.1 1-.5 2.2-1.3 3.2-.3 1.1 1.1-.1 2.1-.7 3.1-.3.6-.9 1-.8 1.8 5.6 1.1 11.7-1.8 14.4-7.1 1.7-3.4 2.9-7.1 3.2-11 .1-1.9 0-4.2 2.9-4.5 3.2 1 3 3.9 3.5 6.4.7 3.8-.5 7.4-1.5 11-2.1 6.9-7.2 10.6-14 11.8-2.6.5-5.1 1.2-7.3 2.7-.2-.1-.4-.3-.6-.5.1-1.2 1.6-3.2-1.5-2.7-2.7.4-5.3 1.4-7 3.4-1.6 1.8-3.5 2.6-6.1 3.6 1.7-3.7.5-4.3-3-4-9.3.9-13.3-2.1-14.9-11.3-.7-3.7-1.1-7.3-4.3-9.7z"/>
    <path fill="#D9D9D9" d="M262.1 539.6c2.3 1.5 3.9-1.2 6-1 .2 3.8-3.3 5.1-5.1 7.5-3.8 5-7 10.5-11.9 14.5-4.8 3.6-19.5 6.6-24.1 4.9 3.6-2.9 7.7-5 11.1-8.1 3.8-3.5 7.7-6.6 8.8-11.9 3 1.4 5.5 0 8.1-1.4 2.6-1.3 4.4-3.5 7.1-4.5z"/>
    <path fill="#060606" d="M67.2 158.6l-.3 1c-2.3-2.8-5.2-4.9-8.1-7.1C47.7 143.7 38 133.7 30 122c-.8-1.1-1.4-1.8-.1-2.7 3.2.5 4.8 3.5 7.6 4.6 10.9 6.9 19.8 15.9 26.8 26.7 1.7 2.4 4.2 4.6 2.9 8z"/>
    <path fill="#CACACA" d="M410.1 461.6c-2.3-3-4.6-.9-6.9-.1-1.7.7-3.1 2.6-5.2 1 0-3.6 2.7-5.5 5.1-7.4 3.5-2.8 6-6.1 6.5-10.7 2.9-4.7 5.4-9.6 8.5-14.2 1.1-1.8 2.2-3.8 4.7-3.8-3.2 12.1-3.3 25.4-12.7 35.2z"/>
    <path fill="#EEEEEE" d="M251.1 560.7c4.9-7.9 10.8-15 17-22 5.7-3.6 11.7-6.6 17.9-9.1 1.9 2.2 3.4-1.3 5.8-.3-2.4 1.7-4.4 3.2-6.5 4.5-10.6 6.5-19.6 14.9-28 24-1.7 1.9-4 2.2-6.2 2.9z"/>
    <path fill="#6E6E6E" d="M422.9 426.4c-1.3 1.4-2.5 2.8-3.8 4.2-2 .6-2.5-1.1-3.2-2.2 0 0-.2 0-.3.2-1.4 6.9-3.8 13-11.4 15.1 2.1-4.6 6.1-8.2 7.3-13.2 1.4-5.6 5.8-10.3 5.1-16.5-.3-3.2-3.1-5.8-2.6-9.3 9.3 4.7 10 12.9 8.9 21.7z"/>
    <path fill="#F8EE04" d="M37.2 124.6c-3.1-.8-5.3-2.9-7.2-5.3v-.3c2.9-2.8 5.9-4.9 10-2.2 4.1-.2 7.5.7 9 5.1 1.1 3.3.2 4.9-3.3 4.7-2.8-.2-5.8-.7-8.5-2z"/>
    <path fill="#233F09" d="M346 245.7c6.7 7.2 13.4 14.4 20.2 21.4.9.9 1.6 3.5 3.8 1.5 1.4 4.7-1.1 7.7-4.7 9.8-5.7 3.3-5.9 5.5.1 9.1 2 1.2 1.8 2.9 1.8 4.1 0 1.8-2 .6-3.1 1-.3-.4-.6-.7-1-1.1 2.6-.5 1.6-1.2.3-2.3-8.5-6.8-18.2-11.4-28.6-14.7-19.9-6.3-40.3-8.6-61-10.3-24.4-1.9-47.3 3.1-70.2 10.3-13.5 4.2-25.8 10.5-37.4 18.2-12 8-23.2 17-34.2 26.4-8.1 6.9-16.1 13.8-22.4 22.5-8.1 11.2-14.9 23.2-20 36-.3.8-.5 1.6.1 2.3.8.2 1.2-.3 1.6-.8 5.1-6.3 5.2-6.4 11.5-1.4 3 2.3 6.3 4.3 7.7 8.2-2.8-2.1-5.5-4.2-8.8-6.8-.3 3.9 2.4 5.8 3.6 9.7-3.4-3.2-5.9-5.5-8.4-7.9-.2.1-.5.3-.7.4 2.2 4.4 4.4 8.9 6.9 13.8-4.1-2.6-6.3-6-8-10-3.3 12 11.9 26.7 27.4 26.7-.4 1.8-1.9 2.7-3.2 3.6-3.3 2.3-6.6 1.1-9.3-.6-4.6-3-9.6-5-14.3-7 3.5 3.9 5.4 9.1 7.9 13.9.8 1.5 1.1 3.2-.3 4.6-6-6.6-12.1-13-17.9-19.8-3.2-3.8-7-7-9.4-11.5-1.2-2.3-.9-2.8.9-4.1 5.3-4.1 6.4-6.3 6.7-12.7-1.4 5.5-5.5 8-10.1 9.5-4.8 1.5-9.7 1.7-14.3-1.2.5-.9 2.7-.4 1.9-2.3.7-1 2.1-1.8.3-3.1-1.3-.9-2.5-2-3.8-2.7-1.7-2.9-2.2-6.4-4.5-8.9 7.3-5.1 7.4-14 11-21 2.9-5.7 4-12.2 7.1-17.9 3.5.8 6.8 2.3 10.7 1.2 2.4-.7 4 1.3 4.4 3.7.4 2.1.9 4.2 1.8 6.2 1.8 3.8 3.3 4 6.2.9.3-.4.6-.8 1-1.2 15.4-20 34.2-36.5 54.1-51.6 11.5-8.7 24.9-14.8 37.8-21.3 26.5-13.5 55.1-17.7 84.3-17 12.7.3 25.4 2.6 37.8 6.4 8 2.5 16.4 4.3 25 4.1 2.2 0 4.5-.2 4.9-3.5.3-2 2.5-2.9 4.6-3.6-3.2-2.4-3.2-5.7-2.3-8.9.8-3.6 3 .6 4.5-.3z"/>
    <path fill="#FEFEFE" d="M251 342.3c2.6 6.6 7.4 9.9 13.3 9.5 4.9-.4 9.4-4.2 10.6-9.2 1.4-5.6-.9-11.8-6.6-14.8-2.8-1.5-1.8-2.3-.5-3.9 3.5-4 7-8 10.4-12.1 8.7-10.4 17-21 20.5-34.3.8-3.1 2.2-3.7 5.7-3.4 6 .5 8.3 3.2 9.9 8.7 2.4 8.1 4.9 16.1 6.2 24.5 2.1 12.9-1.2 24.2-9.6 33.8-8.3 9.6-18.6 16.2-31.2 19.5-9.9 2.7-19.3 1.7-28.8-1.2-2.2-.7-4.3-1.8-6.2-3-5-3.2-5.1-4.6-.6-8.6 2.2-1.7 4-4 6.9-5.5zM162.3 410c-15.4.3-27.9-10-39.3-22-4-4.2-7.5-9-9.5-14.5-1.2-3.4-3.1-5.2-6.8-5-1.3 0-2.6-.5-3.9-1-.7-.2-1.8-.5-1.6-1.5.2-1 1-1.8 2.1-1.7 1.8.1 3.8.1 5.4.8 10.2 5 21 4 31.8 4 12.3 0 24.5-1.9 36.7-3.7 2.7-.4 3.9-.5 4.1 3 .6 7.5 8.2 14.2 15.1 14.1 9.8-.1 15.8-9.8 11.5-18.8-1.4-2.9-1.3-3.6 1.9-4.6 4.5-1.3 9.1-1.7 13.7-2.2 3.4-.3 4 .6 2.8 3.9-7 20.2-22.7 32.6-39.5 44-6.5 4.5-14.2 4.7-24.5 5.2z"/>
    <path fill="#213E08" d="M180.3 457.9c1.4-5.1 2.7-10.2.8-15.5-.4-1.1-.9-1.7-2-1.9 0-3.1 2.1-6 .9-9.2 4.8-7.8 12.7-6.2 20.1-6.9 17.8-1.7 35.3-5.1 52.5-9.8 22.7-6.2 38.7-21.4 54-37.9 1.6.8 1.8 2.2 1.4 3.7 1.3 3.2 4.5 3.4 7.2 4.1 1.3.4 2.6.3 2.7 2.1-1 1.7-1.8 3.9-3.9 4.4-7.7 1.6-11.5 8.1-16.7 12.8-4 3.6-8.6 6.2-12.8 9.5-1.2.9-2.5 1.7-3.6 2.7-3.3 3.1-3.1 5.4 1 7.1 6.3 2.6 11.5 6.6 16.2 11.4 1.5 1.6 3 3.1 3.8 5.2-5.3 6.1-7.2 6.2-12.7.8-8.6-8.6-19.1-13.9-30.8-17.2 1 11.1 4.9 21 10.8 30.2 1.5 2.4 1.6 3.8-1.6 4.5-1.6.3-3.1 1.2-4.6 1.8-5.4-2.5-6.9-7.7-7.8-12.6-2.4-12.3-10-14.1-19.2-13.3-12.2 1.1-23.7 4.9-31.8 15.2-1.3 1.7-2.7 4.1-5.7 2.5-2.5-3-1.1-6.7-1.8-9.5-.1 4.7.4 10-2.5 14.7-2.8 1.6-5.2.6-7.2-1.5-.7-3.8 2.6-6.6 2.5-10-3.9 3.7-6 8.6-6.8 14.2-1.7 1.7-1.7 1.6-2.4-1.6z"/>
    <path fill="#FEFEFE" d="M180.3 457.9c1.5-.2-.5 2.8 1.8 1.9 1.1-2.3 2.3-4.6 5-5.3 2.3.8 4.3 2.3 6.9 2.2 2 1.9 1.3 4.2 1.1 6.4-.6 4.5-1 9-1.3 13.6.5.8.9 1.7 1.3 2.6 4.5 1.3 8.9 3.1 13.7 3.4 2.3.8 4.6.4 6.9.4 3.1 0 3.7 1.6 2.2 3.7-3.6 5.3-5.5 11.3-7.3 17.4-.6 1.9-1.7 3.4-4 2-2.6-2.1-4.8-4.5-7.5-6.5-5.3-3.9-11-6-17.6-5.8-4.8.2-9.5-.6-14.4.2 7.6-.9 15 .4 22.4 2 2.3.5 4.5 1.1 6 3.1.6 4.4 2.7 7.3 7.3 8.7 2.8.9 4.7 3.7 4.1 6.6-.7 3.3-.6 6.8-1.8 10-10.4 8.8-30.2 12.2-42.1-2.1-1.7-2.1-3-4.3-4.1-6.7-.8-4-2.1-7.8-2.5-11.9-.2-1.8-.1-3.6.8-5.2 5.6-6.6 11.3-13 16.8-19.7 1.7-2.1 3.1-2.2 5.5-1.5 3.1 1 6.4 1.4 10.4 2.2-3.7-4-7.9-4.4-12.7-4.6 2.4-3.2 4.5-6 6.7-8.9-4.6 1.9-8.2 5.1-11.8 8.4-5.1 4.8-9.5 10.2-13.1 16.3-.5.9-1 2.4-2.5 1.7-1.2-.5-.6-1.7-.7-2.6-.8-6.6 3.2-12 4.6-18.1 1.3-1.7 1.7-3.4 5-3.6 6.5-.3 12.6-3 14.9-10.3z"/>
    <path fill="#33590E" d="M195.1 479.3c-.7-.3-1.3-.5-2-.8-1.1-3.9 2-6.8 2.6-10.3.7-4 2.5-7.9 1.7-12.2-.3-1.6.3-3.3 1.7-4.5 3.1-.1 3.8-2.9 5.4-4.7 8.3-9.7 19.7-12.5 31.6-14.5 8.3-1.3 14.9 1.6 18.9 8.5.5.8 1 1.8 1.1 2.7.3 6.3 3.4 11.3 7.2 16-15.7 8.1-31.8 15.4-49.4 18.6-4.3.8-8.9.2-13.4.3-1.9.3-3.8-.2-5.4.9z"/>
    <path fill="#FEFEFE" d="M392 397.8c5.3 14.6.6 27.9-13.2 37-1.3.4-2.6.9-4 .5-2.5-1.1-3.1-3.8-4.8-5.5-7.1-7-15.7-10.2-25.5-10.8-3.3-.2-6.6.1-9.9-.2-1.9-.2-4.3 0-3.6-3.2.7-1.8 1.6-3.6 2.2-5.5 1.3-4.3 3-7.7 8.2-8.6 4.1-.7 6.4-3.9 6.4-8.3 0-1.4-.4-3.1 2.2-2.8 7.9 1.1 15-1 21.1-6 2.1-.1 3.9 1 5.4 2.2 5 4 10.8 6.8 15.5 11.2z"/>
    <path fill="#33590E" d="M302.1 439.6c-3.4-.2-3.7-3.7-5.7-5.5-4.6-4.2-9.3-7.8-15.2-10.1-4.9-1.9-5.5-5.1-1.5-8.5 3.3-2.8 6.9-5.1 10.4-7.6 5.1-3.6 9.8-7.7 13.8-12.6 1.5-1.9 3.4-3.4 5.7-3.9 3.4-.7 5.9-2.7 8.4-4.8 2.4 6.7 5.1 13 12.9 15.2 2.8.8 1.4 2.4.7 3.8-3.8 7.7-9.2 14.3-15.4 20-4.9 4.5-8.7 10.1-14.1 14z"/>
    <path fill="#FDFDFD" d="M180.1 431.4c3.4 3.5 1 6.3-.9 9.2-1.5 4.5-1.6 9.4-3.6 13.8-3.6 8-10.4 11.4-19.2 9 1.6-1.9 3.1-3.6 4.6-5.4-.2-.2-.3-.4-.5-.6-3.3 2.1-6.5 4.2-9.8 6.3-2.2 1.5-4.6 2.6-7.2 3.2-6.7 1.5-9.9.1-12.8-6.1-2.3-4.7-3.1-10.1-6.6-14.3-.3-1.3-1.5-1.6-2.3-2.4-1.6-1.7-1.5-2.8 1.2-2.9 3.3-.2 6.7-.5 10-.7 2-1.1 3.9-.8 5.8.1.9.7.5 1.8.7 2.7 3.8-.4 2.8-6.9 7.7-6 0 1 .1 1.9.2 3.7 3.4-3.9 7.2-2.5 11.1-2.1 8.2 1 15.3-2.3 21.6-7.5zm186.8-63.6c3.3 8.6 1.9 11.9-6.7 15.5-3.2 1.4-6.6 2.2-10.1 2.6-3.5.4-6.9.5-10.4.8.2 1.6 1.7 1.1 2.6 1.7 1.1.7 3.5.4 3.2 2.2-.3 2-1 4.1-3.3 5.2-6.8 3.1-16.7-1.5-18.7-8.9-.3-1-1.1-1.9-1.8-3 7.1-2.1 11.5-7 13.2-13.8.9-3.8 4.9-3 6.2-5.4-.2-2.4-5.6.6-3.4-3.4.8-1.4 3.6-1.4 4.9-3.7-4.5.6-5.4-1.5-5.6-5.2-.2-5.2-2.7-9.7-6.1-13.7 7.3-2.6 14.3 1.9 15.1 9.1.7 6.3 2.7 12.2 5.1 18 1.3.7 1.9 2.3 3.5 2.6 3.3.4 6.6-.1 9.7-1.3.9-.3 1.9-.2 2.6.7zm-53.4 69.3c4-4.6 9.2-8 13-12.9 1.4-1.9 2.8-3.6 3.6-5.8 11.3.1 22 3.1 32.4 7.2 4.5 1.8 9.4 3.6 10.8 9.2-1.9 2.8-5.3 1.7-7.9 2.9-8.4.8-16.7 1.6-25.1 2.1-8.5.5-17-.9-25.6-1.4-.5-.2-1-.7-1.2-1.3z"/>
    <path fill="#FCFCFC" d="M205.1 524.7c-.1-3-1.2-5.6.5-8.9 1.6-3.2-.9-6.6-4.6-7.2-5.5-.9-6.4-4.2-5.9-8.8 5.7-.5 8.5 4.2 12.5 6.8 3.1 1.1 2.7 4.2 3.2 5.9 1.5-9.2 3.8-18.8 7.8-28 .6-1.4 1.8-1.2 2.7-1.8 7.6-.2 14.3-3.5 21.3-5.8.8.6.5 1.4.2 1.9-9.3 16.9-18.6 33.9-35.6 44.7-.6.4-1.4.8-2.1 1.2z"/>
    <path fill="#2F2F2F" d="M241.1 521.6c-4.1 2.6-8.6 4.2-13 6 .5-6.5 1.5-12.6 5.9-18 4.7-5.8 6.7-13.1 9.5-19.9 4.1-9.8 10.1-18.6 19.2-24.7 3.6-2.4 6-6.3 10.5-7.5-.1 6-1.5 11.5-6.3 15.5-3 2.5-1 5.2-.9 7.8-.5 2.2-1.6 4.1-3.6 5.2-7.5 2.8-11.5 9.1-15.3 15.5-2.8 4.8-4.8 10.2-4.5 16-.1 1.5-.5 2.9-1.5 4.1z"/>
    <path fill="#444444" d="M265.1 480.6c-2.2-3.8-1.7-6.8 2-9.6 2.8-2.2 4.5-5.3 4.1-9.1-.2-1.9 1.5-2.9 2-4.4 1.8-1.3 3.7-2.1 6-1.9 10.4.6 20.8 1.5 31.3 1.5 8.2 0 16.3 1.3 24.4 2 1.4.1 2.7.6 2.4 2.4-1.4.7-2.7 1.3-4.1 2-6.8.9-13.6 2-20.5 2.2-11.1.2-21.5 3.3-31.3 8.4-5.9 1.2-11 4.1-16.3 6.5z"/>
    <path fill="#2F2F2F" d="M337.1 461.6c-3.8-3-8.4-2-12.6-2.3-14-1-28.1-1.5-42.2-2.1-1.3-.1-2.7.3-3.2-1.5 12.4-3.6 24.9-4.5 37.5-1.3 3.2.8 5.8-1 8.6-1.7 12.3-2.9 24.6-2.1 37-.9 3.1 1.8 6.8 1.5 10.2 3-11.7 2.8-23.2 6.2-35.3 6.8z"/>
    <path fill="#33580E" d="M103.1 426.5c-1.2-8.2-6.3-14.5-10.5-21.5 4.7 3.9 11.2 3.7 15.7 7.7 3 2.7 6.9 3.1 10.8 2.9-1.2 2.6-.7 4.8 1 7.2 3.9 5.7 8.7 10.5 13.9 14.9.3.2.4.3.3.5-.1.2-.1.3-.2.3-8.8-1.1-18.2.5-25.6-6.3-1.9-1.8-3.6-3.8-5.4-5.7z"/>
    <path fill="#A70102" d="M308.2 380.4c-.7-1.1-1.4-2.3-1.4-3.7 9.5-10.7 18.7-21.6 23.6-35.5 2 1.3 1.8 3.3 2.1 5 1.7 10.9-1.1 20.9-7.4 29.5-4 5.5-10.2 7.2-16.9 4.7zm-125.6 45.2c-9.4 3.9-18.7 7.8-29 8.2-5.1.2-8.9-.6-9.6-6.5-.4-4-2.1-7.4-6.1-9.7 15.1 3.6 29.8 6.1 44.7 8z"/>
    <path fill="#A40304" d="M366.6 436.4c2.2-.4 4.4-.7 6.6-1.1.7-.4 1.4-.3 2.2-.2l3.5-.3c-7.2 6.7-16.6 7-25.5 8.5-15.8 2.7-31.7.3-48.5.1 2.9-3.1 5.7-4.8 8.7-6.4h.4l.2.4c17.4 3 35 3.5 52.4-1z"/>
    <path fill="#223E09" d="M134.1 438.5c0-.3 0-.5-.1-.8 1.1.4 1.4 2.5 3.5 1.3-2.5-7.3-8.6-11.8-13.7-17.1-.9-1-4-1.4-1.9-3.6 2-2.1 3.5-5 6.7-5.6.9-.2 1.2.9 1.5 1.7 2.9 8.4 8.2 15.4 14 21.9-.8 2.6-2.9 3.8-5.1 4.9-1.9-1.5-4.1-.4-6.1-.8.5-.4.8-1.2 1.2-1.9z"/>
    <path fill="#29470B" d="M366.9 367.8c-.9-.1-1.8-.1-2.7-.2-4-1.3-7.6.1-11.1 1.9-1.9-.6-1.6-2.4-2.1-3.9 2.2-4.6 1.2-9.2 0-13.8-.4-1.8-1.5-3.5.4-5 1.2-1 2-3.1 3.9-2.7 1.5.4 1.6 2.3 2 3.7 1.8 6 3.2 12.1 7.8 16.8.4 0 .8.1 1.2.1.2 1.1.4 2.1.6 3.1z"/>
    <path fill="#0C0C0C" d="M375.3 435.1c-.7.1-1.4.1-2.2.2-1.6-4.6-5.9-6-9.7-7.7-9.1-4.1-18.7-6.5-28.6-8-1.6-.2-3.2-.8-4.8-1.2-.1-1-.2-2.1.9-2.8-.4 3.4 2 2.2 3.6 2.1 7.3-.3 14.5-.4 21.6 2 8.3 2.9 14.9 7.6 19.2 15.4z"/>
    <path fill="#0D0D0D" d="M221.3 482.7c-2.1.6-2.5 2.3-2.9 4.1-2.6 10.4-6.3 20.5-6.7 32.3-3.3-4.3-.8-9.6-4.6-12.6 0-.2-.1-.5-.1-.7.9.4 2 1.9 2.3-.5 1-7.9 4.5-14.7 9.1-21.3-3.4-.9-6.7.5-9.6-1.3h12.5z"/>
    <path fill="#0C0C0C" d="M392 397.8c-7.9-3.1-13.9-9.1-21-13.4 0-.3 0-.6.1-.9 7.2.7 12.5 5 17.9 9.2.9 1.7 3.9 2.3 3 5.1z"/>
    <path fill="#EFEFEF" d="M256.9 315.9c-4.1 8.8-9.7 16.1-19.3 21.6 5.9-8.8 12.2-15.6 19.3-21.6z"/>
    <path fill="#E7E7E7" d="M207.4 348c-8.1 3.9-16.5 5.6-25.4 5.3 8-3.9 16.6-5.4 25.4-5.3z"/>
    <path fill="#7F7F7F" d="M157.1 498.7c-.4 5.8 2.5 11.3 1.7 17.1-2.2-3.3-2.9-7.2-4.2-10.8-1.1-3 1.1-4.5 2.5-6.3z"/>
    <path fill="#1C1D1D" d="M139.1 441.4c1-2.3 3.3-3.4 5.1-4.9.5-.7 1.1-1.4 1.6-2 .7.9 1.4 1.8 1.3 3-1.2.7-2.7 1-3 2.8-.6 3.5-3.1 4.7-6.4 5-.6-1.8 1.7-2.4 1.4-3.9z"/>
    <path fill="#375F0F" d="M277.1 193.7c-12.1-2.1-24.1-5-36.4-3.9-27.3 2.4-54.4 5.7-79.5 17.8-11.6 5.6-21 14.5-31 22.4-1.3 1-2.3 2.5-4 2.8-6.2 1.7-10.7 6.5-16.8 8.6-4.5 1.6-9.2.9-12.3-2.6-2.6-3-2.5-5.3 1.1-7.2 2.7-1.5 3.9-3.7 5.3-6.3 5-8.8 10.3-17.4 17.9-24.4 6.1-5.6 11.6-11.9 17-18.2 1.2-1.4 1.2-3 1.1-4.7-.2-3.3 1.8-4.9 4.6-4.2 4.4 1.1 6.9-1 9-4.2h.5c5.5.3 11.2 2 15-4.5 1.6-2.7 6.3-1.8 8.5-4.5 2.7-3.6 6-4.4 10.5-3.8 13.6 1.9 27.3 3.7 40.9 5.6 11.6 1.6 22.2 6.8 33.3 10.2 5.7 1.8 8.8 6.5 8.5 12.7-.2 3.1.9 4.6 4 5 1.6.3 3.9.5 2.8 3.4z"/>
    <path fill="#30560E" d="M153.1 169.6c-.7 5.2-3.2 7.2-8.5 5.4-3.1-1.1-4.9.1-3.7 3.8.5 1.6.2 3.3-1.2 4.6-6.6 6.4-12.2 13.7-19.2 19.8-4.1 3.5-7.1 8.3-10 12.9-2.6 4.1-6.2 7.7-7.2 12.9-.5 2.4-2.8 3.1-4.9 3.8-2.6.9-2.9 2.4-1.3 4.5 2.8 3.7 7.5 4.9 11.8 3 4.7-2.1 9.1-4.6 13.4-7.4 1.3-.9 2.5-1.8 3.8 0-6.9 6.6-14.4 12.6-20.2 20.3-13.1 17.4-25.9 34.9-33.7 55.5-2.4 6.3-4.8 12.7-7.2 19-1-5.5-2.2-10.9-2.9-16.4-1.2-8.9-.7-17.9-1.2-26.9-.9-17.7 4.8-33.7 11.6-49.5 3.1-7.2 6.3-14.2 10.3-21 7.5-12.7 17.9-22.4 30.3-30.2 9.3-5.8 18.8-11.2 28.7-16 3.5-1.7 6.4-2.6 9 1.1.4.5 1.5.6 2.3.8z"/>
    <path fill="#2D4F0B" d="M329 218.7c-2.7-1.1-4.7-3.2-7-5-1-2.1-2.9-3.5-4.3-5.4-1-1.4-4.3-1.1-6.5-2.4-3.7-2.1-6.9-5.3-11.7-5.2-1.8.1-2.3-1.6-1.8-3.4.4-1.1 1.1-2.1 1.2-3.3.1-2 1.8-4.2 1-5.8-1.3-2.6-3.4.5-5.2.1-3.6-.7-7.2-1.1-9.9-4.1-1.7-2-3.8-3.8-6-5.3-2.5-1.7-4.6-3.3-2.2-7.1-6 4.1-10.5.3-14.9-2-4.9-2.5.6-4.3 1.1-6.5-1.9-1.7-3.8-.7-5.6 0-7.4 2.5-14.1 2-19.6-4.2-2.4-2.8-5.4-3.6-8.9-3.5-3.6.1-7.1.2-10.2-2.9-2.2-2.3-5.3-.8-8 .2-8.4 3-17.1 4-26 2.4-.7-.1-1.2-.4-1.7-1 10.9-3.1 22.1-4.9 33.3-7 22.3-4.3 40.9 5.3 59 16 11.2 6.6 22.5 13.3 32.5 21.9 4.1 3.5 7.3 7.6 9.9 12.3 4.1 7.2 7.8 14.2 11.5 21.2z"/>
    <path fill="#2D4F0B" d="M183.1 154.6c7.5.2 15.1.9 22.6-.9 2-.5 3.7-1.5 5.5-2.1 3.6-1.2 7.4-2.7 10 1.9.9 1.6 2.7 1.2 4.1 1.1 5.8-.4 11-.1 15.1 5.1 5 6.2 11.5 4.4 17.7 2.1 1.5-.6 2.7-.8 4.2-.3 1.3.4 3 .1 3.3 1.7.5 2.1-1.5 2.2-2.8 2.7-.9.4-2 1-1.9 2 .1 1.1 1.4 1.2 2.2 1.6 1.8.8 3.7 1.4 5.5 2.4 1.9 1 3.5 1.6 5.3-.4 1.2-1.4 3.1-1.2 4.7-.5 1.2.5 2.1 1.7.3 2.5-3.6 1.5-2.7 2.2.1 3.8 2.5 1.4 4.7 3.6 6.8 5.8 4.1 4.3 7.6 5.1 12.6 2.4 1.2-.6 1.9-.2 2.6.5.9 1 2.3 2.7 1.4 3.3-3.1 2.3-.5 6.5-3.5 8.7-1 .8.1 2.3 1 2 5.8-2 8.4 3.8 12.8 5.2 3.5 1.2 3.3 1.8 6.4-1.3-1 4.3 2.1 6.6 3 9.8-13.7-9.5-29.4-14.6-45-20-.5-3.1-3-1.7-4.8-2.1-2.3-.5-4.5-.6-3.7-4.3 1.4-6.8-1.6-12.3-8.6-14-10.1-2.5-19.4-7.7-29.8-9.1-13.5-1.8-27.1-3.4-40.6-5.7-4.7-.8-8.6-.4-12.5 2.1.6-3.3.9-7 6-6z"/>
    <path fill="#040404" d="M149 149.6c.8-9.8 6.8-12.6 15.1-6.9 1.6 4 6.2 6.5 5.9 11.5-.1 1.7 1 4.1-.9 4.9-1.6.7-2.5-1.8-3.9-2.5-3.3-1.1-3.2-4.2-4.1-6.8-.4-1.2-.3-2.9-2.2-2.7-1.5.1-3.1.5-3.9 1.8-.9 1.5.7 2.3 1.5 3.3 2.1 2.6 2.7 7 7.5 6.5 1.4.2 2.1.7 1.4 2.3-1.6 3.8-8 5.2-11.1 2.3-.7-.7-1.6-1.4-.2-2.3.5-.3 1.7-.9 1-1.1-4.7-2-3-7.6-6.1-10.3z"/>
    <path fill="#6C5806" d="M164.1 158.5c-3.3 1.8-5.9 2.1-6.6-2.8-.3-1.8-1.6-3.4-3.2-4.3-3.2-1.8-2-3.2.3-4.4 1.5-.7 3.2-1 4.7-1.7 2-.8 2.8-.2 2.8 1.9-.1 3.5 1.4 6.4 3.2 9.3-.4.7-.8 1.4-1.2 2z"/>
    <path fill="#FEF100" d="M164.3 37.5c-6 .8-9.1 5.9-12.8 9.7-2.3 2.4-4.5 5.3-4.9 9.1-.1.9-.7 2.1-1.4 2.6-9.5 6.7-6 16.3-5 24.9.9 7.8-.5 15.1-1.3 22.6 0 .4-.5 1.1-.8 1.2-7.6 1.2-11.1 11.3-20.3 9.3-2.7-.6-3.7 1.3-3.8 4 0 1.1 1.2 3.5-1.7 3.1-2.3-.3-5.8.5-5.9-2.9-.1-2.6-.9-3-3-3.4-2.8-.5-3.4-3.3-3.9-5.3-.6-2.6-2.1-3.8-4.2-5-3.9-2.1-5.8-6.3-10.1-8.3-2.3-1.1-1-4.6-1.1-7-.2-4.1.2-8.4-5.8-8.4-1.1 0-2.1-.9-2-1.9.2-4.1-2.4-5.4-5.7-6.3-1.3-.3-2.5-1-2.4-2.7 0-1.7 1.3-2.4 2.6-2.6 3.2-.4 5.2-1.7 5.5-5.2.2-1.8 2-2.5 3.4-3.4 1.5-1 3.4-1.8 3.9-3.7 1.3-4.8 4.7-4.6 8.6-4.1 4 .5 6.8.3 8.4-5 1.4-4.4 8-5.8 10.5-10.6.4-.8 3.5-.2 5.3-.2 3.4 0 6.3-.7 7.1-4.7.7-3 2.9-2.7 5.3-2.8 8.7-.3 17.4-1.5 26.1-1.4 11.5.2 22.9-.6 34.4.8 2.7.3 4.5 1 4.7 3.8.2 2.7-1.7 3.3-3.9 3.3-.3 0-.7.1-1 .1-8.8 1.9-10.9 4.2-10.9 13.4-.1 12.6-.5 25.2 2.5 37.6.9 3.8-2.2 5.6-4.8 6.5-2.2.7-3.8 1.4-5.2 3.2-1.3 1.7-3 2.8-5.2 1.7-1.4-.7-2.5-1.9-2.3-3.6.2-2.2 1.2-3.8 3.8-3.6 2 .1 2-1.3 2.1-2.7 1-15.1 4.1-30.3.2-45.5-.1-.5-.3-1.1-.1-1.5 2.1-5.5-1.3-5.2-4.9-5.1z"/>
    <path fill="#E2D700" d="M37.2 124.6c3 .1 5.9-.2 8.9.8 2.1.7 3 0 2.2-2.6-1.3-4.2-4.7-5.1-8.2-6.1.9-.4 2.2.8 2.7-.6.1-.3-.6-.9-.9-1.4.7-.5 1.3-1.2 1-2.1-2.2-5.5.2-9.9 3.3-14.2 5.1 4.7 10.2 9.5 16.1 15-2.6-8-7.8-12.5-13.2-16.8 6.2-.5 9-2.8 6.3-9.6-1.1-2.7 1.8-3.6 4.1-2.2 3.1 1.9 5.9 4.2 8.8 6.4 1.3 1 2.2 2.5 4.2 2.3 2.6 2.9 5.1 5.8 7.8 8.6.5.5 1 2 2 .4 1 .8 1.9 2.1 3 2.4 8.1 2.2 11.6 8.9 15.2 15.3 1.8 3.2 3.1 6.8 4.6 10.2.5 1.8-1 2.3-2.1 2.8-7.7 3.9-15 8.4-21.7 13.9-.5.4-1.2.6-1.8.7-1.5-.1-2.7-1.1-3.9-1.9-1-.7-1.7-2.5-3.2-1.5-1.1.7-.4 2.1-.2 3.2.3 2.3.2 4.5.1 6.8-1.3 1.8-2.4 3.8-4.9 4-5.6-12.9-15.2-22.5-26.2-31-1.5-.8-2.7-1.8-4-2.8zm113-14.8c-4-6.3-6.6-13-6.1-20.6.5-8.4-1.5-16.9 2-25.1 3.6-8.4 8.7-15.5 16-21.1 1.9-1.5 3.6-1.8 3.9.9 1.4 10.8 3.8 21.6 1.2 32.5-1.2 5.2-3.5 10-6.1 14.6-2.4 4.3-2.1 9.3-4.3 13.6-.6 1.1.7 1.6 1.6 2.1-2 3.1-4.7 4.2-8.2 3.1z"/>
    <path fill="#050404" d="M150.2 109.8c2.7-1 5.4-2 8.2-3.1 12.9-4.6 26.2-7.9 39.7-10.2 14.2-2.4 28.2-.6 41.9 3.1-.9 2.4-2.8 1-4.2 1-8.6-.1-17.2-.6-25.8 0-14.7.8-29.1 3.6-43 8.4-16.9 5.9-33.3 12.8-49.4 20.8-14 6.9-27.7 14.2-40.7 22.8-1.2.8-2.4 1-3.8.8.1-3.8 2.8-5.1 5.8-6.1 7.9-6.8 17.2-11.5 26-16.8 15-7.2 30-14.3 45.3-20.7z"/>
    <path fill="#1B1806" d="M201.1 43.6v13.2c-3.2-5.8-3.6-12.2-5-18.4V26.6c3.5 5.3 3.6 11.4 5 17z"/>
    <path fill="#0C0A04" d="M213.7 83.8c-.6-16 3.9-30.2 13.8-42.8-4.6 14.2-9.2 28.5-13.8 42.8z"/>
    <path fill="#050703" d="M378.1 279.1c-.1 2.4-1.4 4.2-3.2 4.7-1.8.5-1.7-1.5-1.7-2.7 0-2.2.9-4 3.3-4.3 1.5-.2 1.5 1.3 1.6 2.3z"/>
    <path fill="#33590E" d="M346 245.7c-1.4 3.1-2.3-1.4-3.7 0-.5 1.9-.4 4 0 6.1.2.7.2 3.5 2.2 1 .7-.8 1.5-.8 2 .1s.1 1.6-.7 2.1c-.6.3-1.2.4-1.8.7-3.4 1.6-6.3 3.4-3.4 7.6-8.7 1.3-16.9-.5-24.9-2.5-12.5-3.2-25-5.8-37.8-7.4-12.4-1.6-24.8-1.3-37.1 1.1-9.9 1.9-19.9 3.2-29.7 5.6-14 3.4-26.3 10.6-38.7 17.6-7.3 4.1-15.2 7.3-21.8 12.5-20.5 16.1-40.3 32.9-56.1 54-2.8 3.8-5.8 3.3-7.6-1.2-.1-.2-.1-.3-.1-.5-2.3-4.4-.8-13.2-10.7-8.8-.8.3-4.2-.8-5.2-3.1 2.8-10.3 6.8-20.2 11.6-29.5 10.3-20.2 22.6-39.3 39.4-54.8 12.4-11.5 25.2-22.6 39.9-31.3 11.8-7 25-9.5 38.2-12.4 14.1-3.1 28.4-5.2 42.8-5.7 8.3-.3 16.5 1 24.7 2.8 19.1 4.3 37.3 10.9 53.2 22.8 9.2 6.9 17.6 14.7 25.3 23.2z"/>
    <path fill="#32570E" d="M53 369.5c4.8 1.2 3.9 5.7 5.1 9 .5 2.3 1.4 4.4 3 6.1 1.2 2.5-.8 1.8-1.9 1.9-2-1.2-4-2.2-5.9-3.5-6.6-4.8-6.6-8-.3-13.5z"/>
    <path fill="#707070" d="M242.1 537.8c-1.4 1.6-2.7 3.3-4.1 4.9-.3.4-.7 1.1-.9 1.1-8.3-2.5-12.7 4.8-18.7 7.7-7.3 3.5-13.6 8.8-20.3 13.4-.9.6-1.3 1.8-2 2.8-8.9-2-16.8-6.6-25.5-9.3-3.3-1-6.5-2.4-9.7-3.6-.3-2.6-2.2-4.6-2.8-7.2 6.2-.6 11.8 2 17.3 4.1 2 .8 3.9 1.5 5.9 1.4 6.5 0 13 .1 19.4 1.2 1.2.2 2.3.3 3.3-.5 8.6-6.9 18.7-10.8 28.5-15.3 1.4-.7 3-1.4 4.4 0 1.7.9 2.1-1 3.1-1.5 1-.2 2.2-1.6 2.1.8z"/>
    <path fill="#5A5A5A" d="M242.1 537.8c-2.6-1.5-2.7 3.4-5.3 2-.1-.1-.3-.3-.3-.4.1-.3.3-.5.4-.8 1.4-.7 2.4-1.6 3-3-.5-1.6.6-2.5 1.5-3.4 7.4-7.3 11.5-16.7 13.9-26.4 1.2-4.5 3.8-9 2.8-14.2-.5-2.6 1.8-4.5 3.7-6.1 1-1.6 2.1-3.3 3.1-4.9 4.4-4.4 9.8-6.5 15.9-7 .7-.4 1.4-.2 1.7.4 1.5 3.1-1 10.9-4.1 12.4-2.5 1.2-4.2 2.9-4.9 5.8-1.2 4.7-3.4 9-5.8 13-1.3 2.2-1.8 4.1-1.4 6.4-.7 1.8-2.2 2.9-3.7 3.9-3.6 2.6-6.4 5.9-8.2 9.8-2.2 4.7-5.8 8-9.5 11.3-.8.4-1.8.8-2.8 1.2z"/>
    <path fill="#3B3B3B" d="M261.9 485.5c-3.1 7-3.4 14.7-5.6 21.9-3.2 10.5-8 20.4-16.3 28.1-3.1 1-5.1.9-3.3-3.2 1-2.2 1-4.7 3.3-6.4 1.3-1 2.1-2.6 1-4.4-.8-15.1 6.6-26.2 17.3-35.8 1.3-1 2.4-.8 3.6-.2z"/>
    <path fill="#616161" d="M158.1 547.6c2.5 1.8 4.4 3.8 2.8 7.2-10.6-2.5-17-10.4-16.6-25.2 3 2 5 4.9 6.2 8.1 1.6 4.2 3.4 7.9 7.6 9.9z"/>
    <path fill="#F9F003" d="M79 147.5l-5.8 6.1-1.1 1.1c-2.1-3-.5-6.7-1.8-10-.2-.6.7-2 1.4-2.4 1-.7 1.8.4 2.5 1 1.6 1.3 3.2 2.7 4.8 4.2z"/>
    <path fill="#646464" d="M266.1 511.5c-1.6-2.3-1.8-3.7.4-6.5 3-3.8 5.5-8.7 6.2-13.7.5-3.4 2.7-5.3 5.1-5.7 2.8-.5 3.5-2.5 3.1-3.8-1-2.9 3.1-5.5.1-8.2 6.2-5.8 14.6-6.9 22.1-8 9.8-1.5 19.9-2.9 30-2 2.5 3.3 3.4.9 6.5 2.1 4.7 1.7 6.5-2.2 9.3-2 3.4.2 6.3.6 9.4-1.3 2-1.2 3.1 1.8 6 1.4 4.4-.6 7.9-5 12.8-3 .6 1.4-.2 2.4-1.2 2.8-2.8.9-.9 2.2-.4 3.3-1.6 4.2-5.4 5.4-9.1 6.7-3 1-6.3.5-9.2 1.7-8.7 1.2-17.6 1.3-26.3 2.3-7.5.8-14.6 3.1-21.5 6.2-10.8 4.8-21.5 9.8-30.7 17.4-3 2.5-5 5.8-8 8.2-1.4.9-2.4 2.9-4.6 2.1z"/>
    <path fill="#8B8B8B" d="M375.3 466.6c-1.2-.8-2.3-1.5-3.7-2.4 1.8-1.5 4.9-.7 5.5-3.6 10.8-2.8 19-9.8 27.1-16.9 6.6-3.5 9-9.9 11.5-16.3 1.8.5 1.6 2.9 3.4 3.3-3.3 4.6-4.6 10.3-8.9 14.2-3.3.2-5.4 2.5-7.4 4.5-6.9 6.7-15.4 11-23.3 16.3-1.2.8-2.7 1.4-4.2.9z"/>
    <path fill="#A2A2A2" d="M375.3 466.6c8.4-3.3 14.7-10.2 22.9-14.1 3.1-1.5 5.5-5.5 8.5-8 1.5-1.3 2.6-2.2 3.6.4.9 5-2.4 7.9-5.6 10.6-2.5 2.1-4.7 4.5-6.5 7.2-3.3 2.6-6.5 5.6-11 6.1-3.1-1.7-5.3.6-7.8 1.6-2.6 1 1.3 2.4-.2 3.5-10.6 9.1-21.5 17.6-35 21.9-3.7-2.3-8-.4-10.6.8-6.2 2.8-13 2.6-19 4.9-10.7 4.1-22.4 5.4-32 12.2-.8.6-1.5.3-2.3.1-.7-3.1 1-4.8 3.5-6.3 8.2-5 15.4-11.3 22.5-17.6 4.1-3.6 9.3-5.6 14.2-5.3 7.8.4 14.1-3.4 21.2-4.9 2.6-.6 5-1.6 7.7-1.6 2.9 0 5.5-1 7.5-3.4.8-1.7 2.5-1.5 3.8-1.5 5.8-.1 10.5-2.7 14.6-6.6z"/>
    <path fill="#858585" d="M379.1 473.8c-3.5-2.7-2.7-3.7 1.2-5.3 1.8-.7 3.8-1.4 5.7-2 2.5-.8 1.4 1.1 1.1 2.2-1.9 2.8-5.4 3.3-8 5.1z"/>
    <path fill="#8A8A8A" d="M356.9 474.5c.4 4.6-4.1 4.7-6 4.6-6-.2-11.3 2-16.4 4.1-5.4 2.3-11.1 1.5-16.5 2.8-5.5 1.2-9.6 4.3-14.1 7.6-6.8 4.9-12.1 12-20 15.2-2.9 1.2-2 3.7-3.7 4.9-.9 1.6-2.6 2.1-4.1 3.1-6.7 5.3-14.4 9.4-20.1 16-.8.9-1.7 1.7-2.9 1.8-3.2-1.6-5.2 1.8-8 2 3.9-5.3 8.1-10.2 11.2-16 2.1-4 6.3-6.2 9.8-9 4.9-2.9 7.7-8.1 12.1-11.7 7.6-6.1 16.2-10.5 24.9-14.9 14-7 28.8-9.7 44.2-9.9 3.2 0 6.2-2 9.6-.6z"/>
    <path fill="#BCBCBC" d="M253.1 534.6c6.1-8 14.2-13.3 23-17.8-5 5.6-8.2 12.5-13.4 18-1.2 1.3-1.6 3.1-.6 4.9-2.7 4.3-7.3 5.8-11.4 8-2.6 1.4-2.2-1.8-3.6-2.1.8-4.3 1.9-8.5 6-11z"/>
    <path fill="#080E04" d="M61.1 384.7c-3.4-.8-4.7-2.7-3-6.1 2.8-1.1 3.5 3.1 6.2 2.4.6 2.8-1.4 3.1-3.2 3.7z"/>
    <path fill="#050604" d="M199.1 451.6c.6 9.5-2 18.4-6 26.9-2.8-.5-.8-2.4-.8-3.4.4-6.1 1-12.2 1.6-18.4.8-5.3 1.6-10.7 2.5-16.3 2.4 3.6 1.5 7.7 2.7 11.2z"/>
    <path fill="#050704" d="M187.1 454.6c-1.4 2-2.9 4-5 5.3-.4-7.1 3.2-12.2 8.7-17.4.2 5.1-1.2 8.8-3.7 12.1z"/>
    <path fill="#0A0A0A" d="M207 505.8c0 .2 0 .5.1.7-4-2.2-8-4.5-12-6.7-7.8-3.8-16.3-3.9-24.7-4.8-1.5-.2-3-.2-5-.3 15.7-4.9 31.7-2.6 41.6 11.1zm167.1-117.3c-8.8 8.4-14.3 18.3-21.5 27.2.9-11.8 10.4-24.1 21.5-27.2z"/>
    <path d="M353.1 369.5c4.1-4.4 7.4-4.9 11.1-1.9-3.4 2.7-7.2 3-11.1 1.9z"/>
    <path fill="#110B0B" d="M366.6 436.4c.5.4 1.3.9.1 1.2-17.2 4.5-34.5 4.6-51.9.6-.3-.1-.5-.4-.7-.7 17.5 1.1 35 .7 52.5-1.1z"/>
</svg>