<svg xmlns="http://www.w3.org/2000/svg" viewBox="0 0 737 1246">
  <style>
    .st5{fill:#a08963}.st7{fill:#937a59}.st11{fill:#9a825f}.st18{fill:#675040}.st54{fill:#e8e5be}.st68{fill:#23280f}.st84{fill:#333323}.st86{fill:#393927}.st112{fill:#9b835f}.st118{fill:#191f13}.st120{fill:#1f2718}.st130{fill:#fafbf8}.st176{fill:#a18963}
  </style>
  <path d="M617 1h118c3 0 3 0 3 3v1244c0 2 0 3-3 3H4c-3 0-3-1-3-4V1h610l1 4c0 2 0 3 2 3s3-1 3-3V1z"/>
  <path d="M617 1c1 1 2 3 1 4 0 3-2 4-4 4-3 0-4-2-4-4l1-4h6z" fill="#8e8d71"/>
  <path d="M573 716c2 1 4 3 4 7 0 2 0 2 2 3 1 0 2 0 3-2 0-2 0-3-2-3s-3-1-2-3c0-1-1-3 2-3 1 0 3 1 2 3 0 3 3 5 4 8 1 2 2 4 1 5 0 2 0 4 2 4l1 1c2 7 6 12 9 18 2 3 2 6 2 8l4 9 2 7v2c3 4 2 8 5 12v11c4 4 2 10 3 14l3 8c1 2 2 4 1 7 0 2-1 6 3 8l1 1c-1 5 2 8 4 12l1 11 2 14-1 23-1 2c-3 2-3 4-3 8 1 4 0 9-2 13-2 2-3 4-3 7-1 4-5 6-7 9l-1 3v13c2 4 2 7-1 10v3c4 0 7 5 5 9-1 2-1 3 1 5 2 3 1 8-2 10v1c-3 0-3 2-5 3l-16 15-9 6c-6 5-11 10-18 14-2 2-2 3-2 5l-2 17-1 44-2 16c13-16 26-32 37-50 7-9 11-19 17-29l3-8c2-5 2-10 0-16l-3-13 1-4c0 1 4 1 1 4l1 1c3 0 2 2 3 4l3 6c1 6 2 11 0 16l-7 18c-1 4-3 9-7 12l-1 2-1 3c-5 5-7 13-12 18-2 1-4 4-5 7l-11 14c-4 7-10 12-15 18l-6 3c-2 0-2 1-3 2-1 2-4 3-6 3h-2c-1-5-7-2-9-5-2-1-4-3-7-3v-1c-1-5-5-4-8-4s-4-3-6-5c-3-3-9-4-13-7-1-1-3-2-1-5 1-4 2-8 6-11v-5c-2-3 0-5 1-7v-8l1-3v-12c2-6 1-12 2-18v-2c0-2 3 1 2-2l-3-1c0-2-1-3 1-4 2-2 4-3 7-3l8-3c3 0 4-3 7-4 5-1 9-5 14-6l4-2 1-2c6 1 9-4 13-6v-3c-1-2-3-4-6-4l-12-5c-2-1-3-2-1-4l2-3c0-2 1-3 4-3l-1 3c-2 3-2 3 2 4l16 7h3l4-2c3-2 4-4 4-7l2-25v-41c-1-10-3-19-3-29l-1-2v-1c2-4 1-8 2-11v-6c-2-7-4-15-8-21l-1-1c1-6-3-8-7-10l-1-2c-1-4-5-5-8-6-2 0-4-2-5-4-3-3-5-6-10-5l-2-2-4-2c-2 0-4 0-6-2-4-3-9-3-13-6l-22-8-5-1c-4 0-7-1-10-3-2-2-4-2-6-2-8 0-15-2-22-6h-7l-3-1c-3-2-6-2-8-2h-15l-16-1h-6c-2 1-4 0-4-1-6-5-12 1-17 0h-2c-5-4-10 0-15 0s-10-1-15 1h-14c-8 1-17 0-25 2-2 0-5-1-6 2h-12l-12 3-3 1c-3 3-7 3-10 2h-4l-7 4h-3c-2-1-4 0-5 2l-3 1-6 2c-1 1-3 2-4 1h-1c-8 4-17 5-23 11-1 2-3 2-5 2-3 0-5 1-6 4l-3 2c-3 0-5 1-6 3-2 3-6 3-8 4l-2 1c0 5-3 4-6 5-1 1-2 1-2 3-1 2-1 4-4 3l-2 1 1 2c2 1 2 3 1 5l-6 10c-2 8-3 16-2 24l2 2 1 3c-3 6 0 13 0 20l-1 4c-2 0-2-2-2-3v-11a320 320 0 0 0 0 82c0 5 2 9 7 11 1 1 3 2 5 1l15-7c4-1 4-1 2-5l-1-1-2-5c5 1 9 7 8 12-1 2-2 2-3 2-6 0-10 4-14 6-3 1-2 4-1 6l7 4 8 4 5 2 3 1c1 1 3 3 5 3 2 1 3 2 3 4 2-1 4-1 5 1 2 2 5 1 5 4h2c5-1 7 1 10 5 2 5 2 9 2 14l-1 12c0 4 3 7 2 10l1 15c0 3 2 5 1 8v1c4 1 2 5 4 8l1 2c3 1 5 2 7 0 0 3-5 10-8 11 1-2 3-4 1-7l-1-2-1 1c-1 2-3 3-2 5 1 1 0 2-1 2-3-2-5 2-8 2-1-1-1 1-2 2-2 4-5 5-8 3-2-1-3-1-3 2-1 4-6 7-10 7h-2c-3 3-7 3-11 2l-10-4-9-9-17-20c-3-4-7-7-8-12l-4-7c-4-7-11-12-12-21l-2-5c-3-3-4-7-6-10l-4-10c-1-7-1-14 3-21l2-1 1 2 1 1c2 2 1 4 0 6-2 5-1 11 0 17 3 8 8 15 12 22l6 11 22 31 17 22-2-27-1-33-2-16c0-2 0-3-2-4l-17-15c-7-4-11-9-17-14l-9-8c-1-1-3-2-3-5l-2 11-2 1v-1c-2-4-1-9-1-13l1-6c2-5 2-9 1-14l2-6v-12c1-4 0-9 4-12 1-1 0-1-1-2l-8-8c-1-2-1-5-4-7v-1c2-7-4-11-5-17-1-5-2-9-1-14v-3c-2-6 0-13 0-20 0-4 1-9 3-13l8-22c2-4 1-8 2-12l3-20c1-4 0-9 2-13l7-18c2-3 5-7 4-11 0-5 4-8 6-12l1-1c-2-3 1-5 2-6 3-3 6-6 6-10l1-2c8-5 8-4 11-11h1c2 4 0 9-4 11-1 0-3 1-3 3l-7 11-7 14-2 9-5 13c-3 8-5 17-6 25-2 12-6 23-7 35v31c0 7 2 13 3 18 0-10 4-20 6-30l8-14a151 151 0 0 1 25-31l12-10a256 256 0 0 1 84-40 374 374 0 0 1 87-15l24-1a394 394 0 0 1 136 26l9 4c12 6 24 12 35 20l16 14 19 20 9 15 8 16 5 22v5s1 0 0 0l1-12 1-6v-3l1-13c0-12-2-24-4-36l-5-23-6-21-3-9-4-13-10-17-6-8c-3-3-5-7-4-11z" fill="#060604"/>
  <path d="M389 551l1-11c1-5 0-7-5-8-11-4-21-5-32 0-4 2-5 3-4 8l1 11c-7-2-13-1-19 0-3 1-5-1-7-3l-26-23c-9-9-19-16-27-25 8-5 17-8 26-11 11-4 23-6 34-8l17-2a279 279 0 0 1 114 18c1 2-1 3-2 5l-27 31-10 13c-1 2-3 4-5 4-10 0-20-1-29 1z" fill="#5b4627"/>
  <path d="M350 434h38l13 1 3 1c0 1 2 3 1 4l1 2c4 3 7 7 12 9 4 2 6 5 6 9 0 2 2 4 4 5l2 4c-1 2 0 4 2 4 5 2 5 6 4 10a244 244 0 0 0-127-2l1-8v-5c-1-4 0-7 2-10l3-3c2-7 8-10 14-12l5-3c5 1 8-4 13-1 2 1 4 0 6-3l-3-2z" fill="#7e6735"/>
  <path d="M310 588l11-4 32-6h12c15-1 31 2 46 5 12 2 23 7 33 10l2 1c-1 2 0 1 1 2 7 3 15 7 21 13l11 7 11 9 7 6c5 3 9 8 13 12l21 25 4 5c1 5 4 8 7 10l14 13v2l-4-2c-9-9-19-18-29-25l-2-2c-18-10-31-26-47-40a267 267 0 0 0-29-20l-7-4c-6-5-13-8-20-10-10-3-21-5-31-6h-21a584 584 0 0 1-36 5l-27 10c-7 2-13 7-19 10-16 8-30 18-42 31l-14 16-5 6-19 15-3 1 5-10c13-21 30-38 50-52 11-8 23-15 35-21l19-13z" fill="#649446"/>
  <path class="st5" d="M495 281l2-2v4c-2 5-3 10-2 16l-1 6 5-7c1-1 1-2 3-2 1 4-1 7-2 10-1 6-4 11-6 17 2-7 6-14 7-22l2-2c4 2 6 5 5 9l-2 6-1 2 3-6 3-2v4l-2 8-23 79c0 2 0 4-3 4v-2l9-34-2 6-1 2-2 4c-2 0-3-1-4-3v-21l2-6 3-9c-1 5-4 11-7 16-1 1-2 0-2-1h-1l1-6c0-2-4-1-3-3l6-21 6-19v-1 1l-11 34c-3 3-5 3-7 0-3-3-7-5-8-10l-2-2 3-15 3-23v-1 1l-3 21-2 11-4 1c-2-1-4-2-6-1-1 1-2 0-2-1l-1-4c-1-3 0-7 1-10 1-6 0-12 2-16-2 6-1 14-3 22l-2 5-2 1-2-2-1-4c0-2 0-3-3-3-2 0-3-2-1-5 2-4 1-8 2-12 1-6 1-12 4-17l1-2c1-2 2-2 3 0v5l4-6c3-3 8-4 11-2l1 13-1 16 2-16 1-8c0-1 0-3 2-4l1 2c0 2 1 2 3 2 5-1 10 4 10 9v24c5-9 10-17 13-26l1-2z"/>
  <path d="M523 670c11 7 20 16 29 25l4 3c2 0 3 2 4 4l2 4v2h-3l-3-2-16-16-19-14-15-11-5-2-7-4-26-13c-12-5-25-7-38-11l-4-1-33-4-17-1c-14 0-28 0-42 2a244 244 0 0 0-82 25 291 291 0 0 0-84 67l-6 9c-7 9-14 18-18 29 0 1 0 3-2 3v-3l9-19c2-4 5-7 6-11 1-2 3-5 5-5 3 0 3-2 3-3 1-2 2-5 1-7l2-3 9-10c5-6 12-11 18-16 2-2 3-5 6-5 3-1 5-4 7-6l14-10c17-12 35-22 54-29a287 287 0 0 1 84-18 251 251 0 0 1 101 17 317 317 0 0 1 44 22c4 4 8 5 12 8l6 4z" fill="#0a0c08"/>
  <path class="st7" d="M437 305v2c-1 2 0 3 2 2 3-1 3 0 3 2l1 7 1 1 1-1 2-5c2 3 0 6 0 8l-3 19c-4 8-8 16-9 25-3 15-5 30-5 46l-1 9c0 2-1 4-4 3-2 0-4-1-5-4v-7c0-3 0-5 2-6 2 0 1-1 1-1l3-30c2-6 1-11 2-16l2-19v-3l-3 12c0 4 0 8-2 11-2 2-1 4-2 6-1 9-3 18-6 26-4 8-6 15-7 23l-1 2c-1 2-2 2-4 2l-1-3v-3l1-13 1-15c2-12 5-24 10-35v-5l-7-12c-1-3-3-7-2-11v-16l2-5 2-2 5-2c2 2 1 5 0 8 0 5 0 9 2 13l4 11c3-4 3-9 2-13l-2-10v-5h2c4-1 4-1 4-5l1-6c2 0 2-1 2-2l1-11c0-1-1-3 2-3l4 27-1 4z"/>
  <path d="M350 434h2c1 0 2 0 3 2l-2 2c-3 2-5 5-8 1-1-1-2-1-3 1s-2 2-4 1l-2-1c-3 4-8 3-12 6s-8 5-9 10l-2 3c-1 2-3 5-2 8s1 5-1 8l-1 6c-13 3-26 8-37 14l-11 8c-3-3-2-7-2-10-1-9-1-18 1-27 0-3 1-4 3-5a114 114 0 0 1 29-17c6-3 13-3 19-5l15-2 24-3z" fill="#91763f"/>
  <path d="M436 483v-3c0-3 0-5-4-6-2 0-5-2-3-6 1-1 0-1-1-2-3-1-5-4-5-8 0-2-2-4-4-5l-7-5c-2 0-3-1-3-3 0-1-2-2-3-1-2 0-3-2-2-3v-5l13 2 23 4 1 1c12 6 23 14 33 22l4 2c4 2 5 5 4 9l-3 22c0 1 0 3-2 4-12-9-26-15-41-19z" fill="#8c713c"/>
  <path d="M319 412l2 9-1 1-5-2-3-6-9-28c-5-15-10-30-13-45-1-4-3-8-1-12 2 0 2 1 2 2l1 6-3-13 1-5c2 0 3 2 3 4l2 10 5 14 4 8c-5-8-5-17-4-27l1-19 1-4c2 0 2 2 2 3l5 33c1 13 5 26 7 40l1 6v-3l1-1c0-2 0-4 2-6l1-7-2-30-2-7c0-2 0-4 2-4 3-1 4 1 5 3l3 15c0 1 1 0 0 0l-5-26v-3l1-5c2 0 2 1 2 2 0 9 4 17 4 25l3 27c0 9 0 18 2 27v7s1 0 0 0v-1l1-2 2 2 1 3 2 16v2c-1 2 0 4-3 5-4 1-6 0-7-4l-5-20-2-8c-2 1-2 2-2 4l1 6-1 3c-2 1-2-1-2-2-4-5-6-11-7-18 0-3-1-7-3-10 2 12 4 24 10 35z" fill="#604a3b"/>
  <path class="st11" d="M328 341l-5-28c-2-3-2-7-2-10 0-11-2-21-4-31v-4c4-2 9-1 11 3l11 27a938 938 0 0 0 6-36l1-11c0-2-1-4 2-5v3c2 3 2 6 1 9l2-1c4-1 6 0 7 4l1 24 1 7c0-3-2-5 0-8l1 1c1 9 2 17 1 26v12c-1 2-3 2-4 1-2-3-2-6-2-9 0 1 0 3-2 4-1-15-2-30-1-43-2 12 0 26 1 40l1 5-1 10-3 3c-2 1-2-1-3-2l-4-2c-2-4-2-8-1-11 2-6 2-13 3-19 1-7 3-14 2-20 1 11-2 22-4 34-3 4-2 8-4 13v3c0 2-1 3-3 4s-3 2-3 4c-1 2-2 4-6 3z"/>
  <path d="M460 323c0-5 2-9 3-13l3-21c1 6 1 13-1 19-2 7-4 14-4 21 1 1 2 3 1 4 0 4 0 9-2 12a251 251 0 0 0-14 64l-1 7c5-5 7-11 9-16 4-8 6-16 6-24l1-9 3-4c3-2 4-6 6-9 1-3 1-6 5-7v6l-4 12-7 22-1 7 1-6h1c2 6 1 11-2 16-2 0-2 1-2 2l-9 32c0 1 1 4-3 4l-4-2c-2 0-3-1-3-5-2 6-5 1-7 2 3-10-1-20-1-31l2-33 8-32 2-15c0-2 0-4 2-5l1 1c0 6 1 11-1 17-2 7-2 15-3 23-2 9-1 18 0 27v5l2-18 3-20 7-26 3-8z" fill="#624b3d"/>
  <path class="st11" d="M362 247h1l1 5c0 2 1 3 3 3 8 0 8 0 9 8l1 5 2-11c1-3 2-3 4-1 3 3 6 6 6 10l3 16v-11c0-2-2-4 1-5 3 2 2 5 3 8l-1 2v17l-1 23v3c0 3-1 3-3 2l-3-2c-4 1-5-1-5-4l2-28c0-2 0-4-2-6s-1-3-1-5v-6l-1 9c-1 4 0 8 1 13l1 16-1 6c-3 4-3 9-4 14-1 2 0 5-2 5-3 0-2-3-3-5l-2-8c0-5-3-9-3-14s1-10-1-15l-1-3c-3-1-2-4-2-6l-1-23h-1 1l1 23c0 1-1 3-3 3v-1c-2-2-2-5-1-8l1-25 1-4z"/>
  <path d="M201 683l-23 21c0-5 1-9 3-14 4-8 10-15 15-23l1-2c13-15 25-29 42-41 14-10 29-19 45-26l26-10v1l-23 14a203 203 0 0 0-80 71l-6 9z" fill="#bedf91"/>
  <path d="M384 315c0 2 0 4 4 3l3 1 1 2c2-1 1-2 1-3v-1c0-1 2 2 1-1l1-2c1 2 2 0 3 1l6 21c1 11 0 21-1 32v23c0 3-2 6-1 9v14c-1 1 0 3-2 3s-3-2-3-4l-2-24c-2-11-2-22-2-33-2 1-2 2-2 3l-2 21-2 31-1 4-2 2-1-3 1-29c1-9 0-18-2-27l-1-8c-1-11 0-22 1-32 0-1 0-3 2-3z" fill="#8d7456"/>
  <path d="M292 978c-15 1-29-3-43-10-7-4-13-10-18-16l-3-3c-6-7-9-15-9-24l2-5h4l16 11c5 3 7 9 9 15 0 2 1 3 4 4 5 0 7 3 4 7v5c3 4 7 6 11 8l4 1c9 3 19 3 28 1 2-1 4-2 5 0 1 1-2 2-3 3l-11 3z" fill="#e0e0e6"/>
  <path d="M251 436l-6-21-26-101c-1-4-1-9 1-13l2 1c2 1 2 0 2-2v-3c-1-4 1-6 2-8l2-1c4 1 4-2 4-4l2-3 1 1c3 7 8 12 13 17 2 6 6 11 6 17-1 3-2 1-3 0l-8-15-2-5-4-4c-2 0-3-1-3 1 0 3-1 4-3 5-2 0-2 1-2 3l-2 9 2 8c5 14 9 28 12 43l7 35 5 37c0 1 1 4-2 3z" fill="#fafaf3"/>
  <path d="M580 882l2-2c-1 8 2 15 2 23 2 15 3 31 2 47l-3 25v3c0 4-1 7-5 8-2-2 0-4 2-6 1-2 1-2-1-3-6-1-11-4-16-6-2-1-4-2-4-5l7-14c7-14 12-29 14-45v-25z" fill="#141710"/>
  <path class="st18" d="M289 441v1l-1 1-6 2c-2-1-1-4-2-5l-3-6 2 10c1 1 1 2-1 3l-14 7v-2l-4-21-7-36v-2c2-1 4 0 4 2 1 7 5 13 5 20l1 4c3 5 4 10 5 17l-5-19c-2-4-2-9-2-13l2-4c2 0 2 2 2 3l1 9c0 2 1 1 2 1l4 9 3 8-1-4c-5-8-6-16-6-25l-1-4c-4-13-3-27-4-40l-2-10c-1-2-2-4-1-7 2-1 2 1 3 2 1 2 1 5 4 7l2 3 6 23c0 4 1 7 3 11v5c-2-1-1 0-1 1l2 10v1h-2c-1-3-3-5-3-9v-5c-1 7 2 14 2 21l1 6 4 17v3c1 4 1 4 5 4l3 1z"/>
  <path d="M389 551c3-2 6-2 10-2h18c3 0 4-1 6-3l13-18 18-21 8-10c5 2 10 4 15 8l-8 8a556 556 0 0 0-43 40c-3 3-7 4-11 4l-21-1h-3c-3 0-4 0-2-5z" fill="#8f753d"/>
  <path d="M354 566v-19c-1-7-1-7 5-9 8-2 16-1 24 1 1 0 2 1 2 3l-1 5v19c-3-2-1-5-1-7l-1 9c0 2 1 1 2 1 1 2 2 3-1 3h-27c-3 0-3-1-2-3 3 1 4 1 3-2l-1-10v6c0 1 0 3-2 3z" fill="#584526"/>
  <path d="M555 696l-18-16-1-1c-4-11-13-19-20-28l-11-12c-10-10-21-20-34-26l-5-4c-5-5-12-9-18-12l-3-2c-1-1 0 0 1-1a202 202 0 0 1 78 52l2 5 22 31 8 13-1 1z" fill="#bbde8f"/>
  <path d="M271 500l2 1c5 7 12 11 18 16l10 10 23 21c2 2 4 3 8 2l10-1c3-1 6 0 8 2l1 2c0 3-1 4-4 3h-11c-10 3-17 0-25-7-16-14-31-29-48-41-1-1-2-1-2-3l10-5z" fill="#91763e"/>
  <path d="M403 400c-2-1-2-2-2-4 2-7 1-14 1-22 0-10 2-21 1-31 0-10-2-19-6-28-4-3-3-7-1-9l8-28 1-7v-2c0-2 0-4 2-4s1 3 2 4v3c1 10-2 20-1 30v23c0 5 3 8 5 12l5 9v3c-4 4-4 10-6 14l-6 25v7l-1 4c-1-11 0-22 1-33l-1-20 1-10 1-16-2 27-1 13v4l-1 19v17z" fill="#634e3d"/>
  <path d="M382 358c3 4 3 9 3 13v40l-1 3v2l2-2v-9l1-12v-7c0-10 2-19 3-29l3-4 1 2c0 13 1 25 3 38l1 20v1l2 3c2 0 1-2 1-2l1-2-1 6v5l-1 2-3-1-1-3-2-14-1 12c0 3-1 4-4 4l-6 1c-2 1-4 0-4-2v-18l-1-6c2-4 2-8 2-12s0-7 2-10v-19z" fill="#594436"/>
  <path d="M156 974c-2-2-1-5-2-8-1-14-2-29-1-44l3-33c2 6-1 13 2 19a140 140 0 0 0 19 54c-1 2-3 3-6 3-4 0-8 2-12 4-3 1-2 4-4 5z" fill="#13160f"/>
  <path d="M278 391c-2-6-5-13-6-20l-5-20-1-2c-2-3-4-6-4-9h3c1 1 1 3 3 2s4-3 3-5v-5l1-2c2 1 2 2 2 3l9 52c1 7 3 13 8 19 5 7 8 15 9 24 1 3-1 4-4 5l-4 2h-3l-2-8c-1-8-4-16-6-23l-3-13z" fill="#937b5b"/>
  <path d="M514 945c-2 5-6 7-10 11a70 70 0 0 1-39 21c-6 1-13 2-19 1 1-4 4-6 8-6 3 0 6 0 8-2l5-1c6-1 12-4 16-9 3-2 5-5 6-8 4-7 9-12 15-16l11-8c3-2 3-2 4 2-1 5-2 10-5 15z" fill="#d9dae0"/>
  <path d="M272 274c2 0 2-1 2-3l1-6c4 11 10 20 16 27v-4l1 1v-23c0-1-1-3 1-3 2-1 2 1 2 2l1 2 1 2 1 8c-1 12 1 24 1 36l-1 3c-2 0-2-1-3-2l-12-23-5-12c1 4 4 8 4 12l1 11-1 3c-2 1-2-1-3-2l-11-20c2 4 2 8 3 13l3 14c0 1 1 3-1 4l-3-6-5-23c0 2 2 5 1 8l-2-2-2-7c-2-4-2-4-5-2l-4 5h-1l-3-12c0-2 7-6 9-5l2 1v-3l2 1c0 2 2 3 4 3l3 3c1 2 2 4 5 5 0-2 0-5-2-6z" fill="#e6e2b9"/>
  <path d="M500 291c4-6 4-6 10-2 7 4 13 14 10 24l-33 126-1 7c-3 0-2-2-2-3l2-8c3-10 6-21 7-31l5-26v-3c1-8 4-15 6-23l3-18c3-9 4-17 8-25v-1c0 1-1 2-2 1v-1c3-9-5-12-9-17 0-3-1 0-1 0l-2 1c-1 1-2 0-1-1z" fill="#fafaf6"/>
  <path d="M319 412c-4-4-5-10-7-15l-5-20 1-3c1-1 1 1 2 2 2 3 3 7 3 11 1 6 2 12 6 16l2 3-1-8v-3c0-2 2-4 3-4l1 4 6 25c1 2 1 6 5 5 3 0 4-2 3-5 2-1 3 0 3 1 1 3 3 3 5 3s3 0 3-2l-2-23v-2l1-2 2 1v3l2 23c1 1 1 2 3 2s3-1 3-3l-1-5 1-11h2l1 5c2-2 3-1 3 1l1 9c0 1 0 3 2 4l-1 5-40 3c-2 0-2 0-2-2l-5-22v4z" fill="#372722"/>
  <path d="M448 322c-2 4-2 9-3 14-1 11-4 22-7 33l-3 22 1 26c-1 5 2 9 1 13 0 3 0 5-2 7l-15-3c-2-1-2-1-2-3l-1-10-2 9-2 2c-3 0-1-2-1-3v-2c-2 0-1 2-2 3-3-4-2-8 0-12l3-10 3-7 3-2 1 3-1 7c-1 3-1 6 1 9l1 7c4 3 6 2 7-2l1-4 4-36 3-16 7-27 4-27c2-8 0-18 5-26l-3 31-1 4z" fill="#30211a"/>
  <path d="M395 274c-1-3 0-6-2-8v-2l5-10 6-7c1-1 2-1 2 1 1 1 0 3 2 3 2 1 3-1 3-2 1-2 2-2 4-2l11 2c2 0 2 1 3 3l2 12c2-1 2-4 5-5l3 20c-1-6 3-10 5-16 1-2 2-1 3 0l2 5 5-8c2-3 4-3 7-2 5 1 7 4 6 9l1 2c1 1 0 3-1 4-2 0-1 2-1 3l-1 8c-1 2-2 2-3 0l-1-13v-4c0-2 0-4-2-5-2 0-3 1-4 3l-2 5c-1 1-1 3-4 4-2 0-3-2-4-4l-4 9c-1 2-1 5-4 5-2-1-2-3-2-6l-2-10c-1 3 0 6-2 8-3 1-3-2-3-3l-1-13c-1-2-2-4-5-5l-4-1c-2-1-4 0-5 2 0 2-2 4-4 3h-1v-3c-1-1-2-2-3 0-6 7-6 15-9 23-3-2 0-4-1-6z" fill="#f8f8ee"/>
  <path d="M251 436l1-2-7-45-5-26c-2-7-2-13-5-20-3-8-4-17-8-26-1-3-2-6 0-10v-8c0-2 1-2 3-2s4-1 3-4c0-3 1-3 3-2 6 2 6 7 8 11-2 0-3-2-4-3l-3-4v7c-1 4-3 0-4 0-3 4-3 8-1 13l4 20 2 5c3 8 4 17 6 26l6 17 3 12 3 16v33l-1 4c-1 2-1 1-2 0l-2-12z" fill="#e5e1b9"/>
  <path d="M289 435c3 0 4-3 7-3 4 2 5 1 5-4l-5-16c-2-15-9-28-13-43l-1-8c-1-1 0-3 1-3 2-1 3 0 4 2l6 9 4 18c-1-2-1-3 1-4 2 2 2 5 3 7 1 12 3 23 7 35v2l-1 1c-2 1-1 3 0 4 1 3 0 5-3 6-3 0-7 1-10 3-2 1-4 0-4-3l-1-3z" fill="#392923"/>
  <path d="M421 426c-2-2-1-3-1-5l-1-3c-3-3-2-6-1-9s2-6 1-10c-3 3-4 6-5 9l-4 12v10c-2 3-4 1-6 1s-1-2-1-4v-10l1-4v3c0 2 1 2 2 2s2 0 2-2l6-21c3-7 6-13 7-19l1-13 3-6 1-8 2-12c1-1 1-3 3-2-2 13-4 25-4 38v1a145 145 0 0 0-5 32l-1 5v11c0 1 1 2-1 3z" fill="#5c4838"/>
  <path d="M484 961c-5 5-11 8-18 9l-3 1c-10 2-21 3-30-3-2-1-5-1-5-4 2 1 3 1 3-2v-8c-1-2 6-10 7-9l8 3 5 2h1l-2 2h-6c-2 1-2 0-2-2l-2 1c-3 0-4 1-4 3s1 4 3 4l7 3c1 0 2 1 2 3 1 4 1 4 6 4h2c1 0 2 1 2-1-1-2 1-3 3-1 1 2 3 1 5 1 5-1 10-4 14-7l2-2c2-5 6-10 7-16v-11c2-2 0-3 0-5l3-2c3 0 4 2 4 5 0 9-2 17-7 25l-5 6z" fill="#283b14"/>
  <path d="M490 373l3-9h1l-11 39 1 1-1 4c-4 8-6 17-9 26v7c-1 4-1 7-3 10-3 0-1-2-2-3-1 1-2 2-4 1l-4-2c-2-1-2-2-1-4l2-9c-3 2-3 4-3 6-1 5-1 5-6 3l-2-2 4-14c6 3 6 3 8-3l1-5c1-2 2-3 4-2 2 0 3 2 3 4l-2 14-1 4 4-12c5-15 11-30 15-46 1-3 1-6 3-8z" fill="#614b3a"/>
  <path d="M367 429c-1-2-2-3 0-5-2-4-2-8 1-11 2 0 1 2 1 3v7c1-12-1-25-1-38h-1 1c0 3 1 5-1 8-2 0-1-2-2-3v-11c0-1 0-3 2-3 2-1 3 1 3 2l4 24 2 13 1 4c2 2 0 4 1 6l1-2c0 2 1 2 3 1l4-1c6 0 6 0 6-6v-10c0-1 0-3 2-3l1 2 2 17 2 2c2 0 1-1 1-2l1-4-1 9c0 2 0 2-2 2l-31-1z" fill="#352520"/>
  <path d="M156 974c-1-3 0-5 3-6 5-2 9-4 13-4l5-2 5 8 2 4c0 2-2 2-3 3l-10 5c-3 1-6 3-8 6-7-2-8-8-7-14z" fill="#26311c"/>
  <path d="M555 696c-6-12-14-23-22-34l-8-11c-1-2-2-3-1-5l19 21c10 11 18 23 24 36l4 10c-1 2-2 0-2 0l-9-11-4-4-1-2z" fill="#fafaf7"/>
  <path d="M391 556c1-2 2-1 3-1 7-1 13 1 19 1 7 0 12-2 16-7l34-33c4-3 9-6 12-11h2l3 2-14 14-27 24-3 4-13 10c-2 2-5 2-8 1-5-3-12-2-18-3l-6-1z" fill="#d9d376"/>
  <path d="M261 505l27 22 29 26c6 5 13 4 19 3l10-1 1 2-26 4-4-1c-3-4-8-5-12-9-2-4-5-7-8-9l-28-25-11-10 3-2z" fill="#d9d378"/>
  <path d="M560 702l8 9c1 1 1 2 3 2l1 3c1 5 3 8 7 12l10 17c3 5 6 10 7 16l1 3c-2 0-2-2-3-3-4-13-13-23-21-34l-5-6a295 295 0 0 0-67-56c-20-12-40-21-62-26l-10-3-2-2c3-1 6 0 8 1l28 8c12 5 23 9 33 16 2 2 4 3 7 3 2-1 2 2 3 2l20 15 28 23c2 3 4 5 7 6 1-2-2-4-2-6z" fill="#21221f"/>
  <path d="M467 273l1-4 1-2c1-3 3-4 6-2l4 3c7 2 7 8 7 13l-2 16v3c5-6 7-13 11-18 1 1 0 3-1 4-3 9-9 17-14 25v-25c0-6-5-10-11-8-1 0-2 0-2-2v-3z" fill="#edeacb"/>
  <path d="M214 915c-1-6 1-13 2-19 3-3 6-4 10-3l25 12c3 2 1 5 2 7l-4 10h-1c-1-3 0-6 1-8s0-4-2-5l-9-3c-7-1-12 2-15 8l-1 3-8-2z" fill="#685976"/>
  <path d="M292 444c-3 3-7 4-10 6-8 4-15 8-21 14l-2 3c-3 3-4 6-4 10a144 144 0 0 0 2 28l-4 3c-3-3-5-7-5-12v-23c0-3 1-5 3-7 12-10 26-17 41-22z" fill="#f8f7dc"/>
  <path d="M249 922c0-3 1-7 3-10 1 0-1-2 1-3 1 2 1 3 3 2h2c4 2 9 3 13 6 2 2 3 3 1 6-7 10-1 26 10 29 6 1 11 1 16-2 3-2 6-1 9 0s2 5 2 7v4c0 7-4 11-11 9v-5c1-2 2-1 4-1s4-3 3-6l-1-2c-2-4-3-4-7-3l-7 2c-2 1-5-1-8-1-8-2-14-9-15-17-1-4 0-8 1-12 1-3 0-4-3-4-2 0-3-1-4-3-2 1-3 3-3 5 1 4 1 5-3 5-3-2-5-3-6-6z" fill="#2b390f"/>
  <path d="M522 892c2 7 3 15 3 22l-3 2c-2 3-3 3-4 0v-1c-3-6-10-9-17-7l-4 1c-2 1-4 2-3 6l-1 2c-2-1-2-3-2-4l-1-5 2-3c9-6 18-10 28-13h2z" fill="#5d5069"/>
  <path d="M461 450c10 4 19 10 28 17 3 3 2 6 2 9v20c0 5-2 9-6 12l-3-3v-17l2-15c0-3-1-5-4-7-3-3-7-4-11-6l-8-6c-1-1-2-3 0-4z" fill="#f8f7d9"/>
  <path d="M272 274c5 1 2 5 3 8-4-1-6-5-8-8-1-1-2-4-4 0-1-2 0-4-3-5l2 8c-2-1-2-3-2-4 0-3-2-3-4-2l-5 3-1 2 3 11 3 12 1 7c0 1-1 3-3 3-3-1-4-4-5-7v-4l-4-23c0-2 0-3 2-4l14-8c1-1 2 0 3 1l8 10z" fill="#f9f9f0"/>
  <path d="M461 450c0 4 3 5 5 6l8 5c9 4 11 7 11 17-1 8-3 17-3 26v1l-5-3 4-26c1-3 1-6-2-7l-16-11-21-14-1-1c7 1 14 4 20 7z" fill="#dad477"/>
  <path d="M499 375v5l-5 22-5 27-4 14v3l-1 8c-1 1-1 2-3 0l-1-4c2-5 1-11 1-16a96 96 0 0 1 6-24c2-12 7-22 10-33l2-2z" fill="#e0ddb1"/>
  <path d="M393 271v13l-5-18c-1-5-4-8-7-12l-4 17h-1l-1-12c-1-3-1-4-4-3h-1c-8 0-9-2-6-9 1-3 6-4 9-3l1 2 2 3c2 3 1 6 2 9v-7l3-3c1 0 2 0 3 2 3 5 7 10 8 17l1 4z" fill="#e8e4bc"/>
  <path class="st54" d="M362 247l-1 27-1 10v11l-2-19-1-15c-1-3-3-4-6-3l-3 2v-12c0-3 1-4 4-4h3c3 0 6 0 7 3z"/>
  <path d="M234 1105c4-3 6-7 9-11 10-9 22-16 34-22 1-1 1-2 2-1l-1 2c-8 5-17 10-24 17-8 8-15 16-17 28l-1 11c-2 0-2-2-2-3l1-15c-5 8-5 15-3 23l-1 5c-3-8-4-17 0-25l3-9z" fill="#631217"/>
  <path d="M490 908l3 9c2 1 2 2 1 4-2 2-5 4-8 4-3-1-5-1-3-4 1-1 0-3-1-4l-2 1-5 3c-2 2 0 4 0 5 2 10 0 18-9 24l-5 2h-6l-3-2h-1c2-2 4 0 6 0 6 1 15-8 16-14s0-11-3-16v-4c4-4 10-5 15-6 2-1 3 1 5 2 1-2-2-4-1-5s1 1 1 1z" fill="#26300b"/>
  <path d="M231 1139l-1-8c-2-8 1-15 4-21l1-1v15l1 5 4 28v6c-5-8-6-16-9-24z" fill="#de3938"/>
  <path d="M296 256c0-3 3-4 6-5l17-3c3-1 4 0 5 3l7 17 1 3h-1c-4 0-6-4-8-6l-5-11v7c0 1 1 2-1 3l-2-4c1 0 0 1 0 0 0 1 1 2-1 2l-1-2c-3-5-6-6-11-3-2 1-2 2-2 4-1 2 0 4-2 5h-1c-1-4-2-7-1-10z" fill="#f8f7ed"/>
  <path d="M482 433c0 6 1 12-1 18l1 3h2c-1 5-1 5-6 2l-7-4 2-10 1-1 2-1 3-20 2-6 1-6 1-4h2l1-3 2 3v2l-1 8c-3 6-4 13-6 20-2 6-3 11-3 17 0-6 1-11 3-16l1-2z" fill="#bfae7c"/>
  <path d="M258 507c5 2 7 6 11 8l18 17 17 16c1 1 3 1 1 3l-40-33-11-7 4-4z" fill="#f6f5cb"/>
  <path d="M559 966c3 5 9 6 14 8l8 3c2 0 2 1 0 3-2 1-3 4-3 6l-3 3c-1-3-3-4-5-5l-7-4-10-4 1-3 5-7z" fill="#2e3c21"/>
  <path d="M289 441c-8 1-8 1-10-7-1-6-1-12-3-17-2-3-2-6-1-9l-2-9v-13c2 2 2 3 2 5-1 4 1 8 3 11 0 1 0 2 1 0l1 3 2 7c1 7 1 14 3 20 0 2 0 3 2 4l2 5z" fill="#3e2b25"/>
  <path d="M254 448h1v-37c2 0 2 2 2 3l4 23 3 15v2l-1 1c-3 1-5 4-7 3l-2-7v-3z" fill="#c7b882"/>
  <path d="M437 549c-1-3 0-4 2-5l18-16 21-19 2-2h1c4 4 4 4-1 6-4 2-7 6-10 9l-33 27z" fill="#f5f4c7"/>
  <path d="M507 1144l-5 14c-1-14 0-27-4-40v-2l2-2c1-1 2 0 3 1l3 12c1 5 3 11 1 17z" fill="#df3a39"/>
  <path d="M253 909l-1 3c2-4-1-6-5-8l-20-10c-4-2-8 0-11 2 0-4 2-6 3-9 1-2 1-1 2-1l23 12 9 6c3 2 1 4 0 5z" fill="#43354b"/>
  <path d="M490 908l-1-1c-2-3-2-4 1-6l25-13c1-1 3-3 4-2l3 6c-10 3-20 8-29 13-1 1-3 1-3 3z" fill="#3e3146"/>
  <path class="st68" d="M298 970l9-3c2 0 1-2 1-3v-8c1-4 0-5-5-6h-5c4-4 6-4 10-1 4 4 4 9 6 13l-2 3c-1 1-3 0-3 3l6-3c1 0 2-2 3-1v3l-1 2c-1-2-2-1-4 0a69 69 0 0 1-40 2l-4-1c-4-2-8-3-10-7l-1-1v-3c1-1 2 0 2 1 10 10 23 11 36 9l2 1z"/>
  <path d="M257 505l-2-9-1-23c0-3 2-4 3-5l4-4c-2 13-1 26 0 39l-4 2z" fill="#ded87f"/>
  <path d="M197 665c2 1 0 2 0 3l-15 22-4 14a765 765 0 0 0-10 10c2-8 5-15 10-22 6-9 11-19 19-27z" fill="#f7f9f5"/>
  <path d="M331 271h1l6 10c1-10 0-20 2-31 3 3 3 3 4-2 1-4 1-4 4-2-2 4-1 8-1 11l-1 6c-2 0-3 2-3 4l-2 18-1 1c0 1 0 4-2 3-2 0-2-2-2-3 0-4-2-7-4-11 0-1-2-2-1-4z" fill="#f7f7eb"/>
  <path d="M507 1144c0-9-1-18-4-26l-2-4c-3 0-3 2-3 4-3-8-8-15-14-21l-8-8-2-4 10 8c11 9 21 19 23 34 1 5 2 10 1 15l-1 2z" fill="#651316"/>
  <path d="M82 89c-6 0-11-5-11-11s5-11 11-11c5 0 11 6 11 11s-6 11-11 11z" fill="#292a1c"/>
  <path d="M385 547c-1-6-1-6-7-8-8-2-15-1-22 1-3 1-1 4-2 7l-1-9 3-2c9-4 18-4 27 0l2 2v9z" fill="#342417"/>
  <path d="M296 268c-2-1-1-4-3-5v28l-2-3-2-22-1-8c0-2-1-4 2-4 3-1 4 1 5 2 2 4 2 8 1 12z" fill="#f6f5e9"/>
  <path d="M433 967c9 5 20 4 30 4-1 2-3 2-5 2-5-1-9 1-12 5l-11-1c-3-2-4-5-4-8 0-1-1-3 2-2z" fill="#b4b3bc"/>
  <path d="M214 915c3-1 5 1 8 2v3c-3 6-2 11 0 16 1 5 4 9 6 13-6-6-9-13-12-21-2-4-3-8-2-13z" fill="#9f8eaa"/>
  <path d="M273 971l20 2c7-1 14-2 21-6 2-1 4-1 3 2-3 5-6 8-13 8l-12 1c5-2 10-3 14-6-8 2-16 2-24 2l-9-3z" fill="#6a5c76"/>
  <path d="M518 914c2 1 1 3 2 3 1-1 1-5 5-3 0 12-4 22-10 31h-1l4-16-1-11 1-4z" fill="#7c6b8b"/>
  <path d="M307 428v-1l10-4 3-2h1l1 11-2 2-4 1c-8 1-8 1-9-7z" fill="#5f4a3b"/>
  <path d="M433 967c-2 0-2 1-1 2 0 3 2 5 3 8-8 1-14-5-14-12 0-4 1-5 4-3l4 2c0 2 3 2 4 3z" fill="#584a62"/>
  <path d="M500 291c1 1 1-1 3-1 1 2 0 4-1 6-4 3-6 8-9 12v-3c1-9 1-18 4-26 0-1 0-2 2-3l-1 18 2-3z" fill="#eae6ca"/>
  <path d="M393 271l-2-3c-1-7-4-12-7-17-1-1-1-2-3-2s-1 1-2 3v7l-2 1v-12c1-2 0-4 3-4 2 0 5-1 6 3l6 15 1 2v7z" fill="#f7f6ea"/>
  <path class="st18" d="M287 436c-2 2-3 1-3-1l-2-16-3-12s-2-2 1-2c3 10 7 21 7 31z"/>
  <path class="st84" d="M34 300c0 3-3 7-6 7-3-1-7-4-7-7s4-7 7-7 6 3 6 7z"/>
  <path d="M162 528c0 3-2 5-5 5-2 0-5-3-5-5s2-5 5-5 5 1 5 5z" fill="#343529"/>
  <path class="st86" d="M611 128c3 0 6 3 6 6s-3 6-7 6c-3 0-6-3-6-7 0-3 3-6 7-6z"/>
  <path d="M642 279c0 3-3 6-7 6-3 0-6-3-6-7 0-3 3-6 7-6 3 0 6 4 6 7z" fill="#353524"/>
  <path d="M20 610c3 0 5 2 5 4s-3 6-5 6-5-3-5-6c1-3 2-4 5-4z" fill="#2a2b22"/>
  <path class="st86" d="M673 166c3 0 6 4 6 7s-4 6-7 6-6-4-6-6c0-4 3-7 7-7z"/>
  <path d="M371 223c0 3-4 7-8 7-3 0-7-4-7-7s4-7 8-7c3 0 7 3 7 7z" fill="#29291a"/>
  <path d="M624 415c0-3 2-6 5-6 4 0 8 4 7 8 1 3-2 6-5 6-5 0-8-3-8-8z" fill="#363623"/>
  <path d="M514 483c-3 0-6-3-6-5 0-3 3-6 6-6s7 2 7 5-4 6-7 6z" fill="#333325"/>
  <path d="M404 364c-1-16 1-31 3-47l-1 20v25l-1 4v-18 13l-1 3z" fill="#2c2219"/>
  <path d="M705 626c3 0 6 2 5 4s-2 5-5 5c-2 0-4-3-4-5 0-3 2-4 4-4z" fill="#292922"/>
  <path d="M456 428l-4 12 1 4-4-2c2 0 2-2 2-3l10-35c0-1 0-2 1-1v1l1 4-6 18-1 2z" fill="#2c1f14"/>
  <path d="M106 338c0-3 3-6 6-6 4 0 8 3 8 7 0 3-4 7-7 6-4 0-7-3-7-7z" fill="#28281a"/>
  <path d="M53 135c4 0 6 3 6 7 0 3-3 6-7 6-3 0-6-3-6-7 0-3 3-6 7-6z" fill="#303020"/>
  <path d="M490 44c-2 0-5-3-5-5 0-3 3-6 7-7 3 0 5 3 5 5 0 3-4 7-7 7z" fill="#3b3b27"/>
  <path d="M643 537c0 4-2 6-5 6s-6-3-6-6 3-6 6-5c3-1 5 1 5 5z" fill="#28281d"/>
  <path d="M121 1028c-2-6-3-11-1-17l2-7v-1c2 0 2 2 2 3l-2 21-1 1z" fill="#ecefe6"/>
  <path d="M300 123c0 3-2 5-5 5s-6-3-6-5c1-3 3-5 6-5 2 0 5 3 5 5z" fill="#3b3b28"/>
  <path d="M249 298l4 11c2 1 2 4 3 6l3 8v2l-1 2-2-1c-2-3-2-7-2-10l-5-12-1-5 1-1z" fill="#31312b"/>
  <path d="M354 566c2-4 0-8 1-13l4 16c0 2-1 2-2 2-2 0-3 0-3-2v-3z" fill="#a99748"/>
  <path d="M571 182c2 0 4 1 4 3 0 3-2 4-4 4s-4-1-4-3c0-3 2-4 4-4z" fill="#474637"/>
  <path class="st84" d="M419 87c4 0 5 2 4 4 0 3-1 5-4 5s-5-1-5-5c0-2 2-4 5-4z"/>
  <path d="M545 86c0 3-1 4-4 5-2 0-5-2-5-5 0-2 3-5 5-5 3 1 4 2 4 5z" fill="#2c2b1d"/>
  <path d="M728 316c0-3 2-5 5-5 2 0 3 1 4 4 0 3-3 6-5 5-3 0-4-1-4-4z" fill="#696852"/>
  <path d="M163 266c3 1 4 2 4 5s-2 4-4 4c-3 0-6-2-5-4 1-3 2-4 5-5z" fill="#3a3a29"/>
  <path d="M542 566c0 2-1 3-3 4-3 0-4-1-4-4 0-2 1-3 3-3s3 1 4 3z" fill="#2d2e25"/>
  <path d="M418 966l2 5 4 4-7-2c-1 0-2 0-1-1l1-6z" fill="#371e23"/>
  <path d="M385 569c-1 1-1 2-3 2l-1-3 2-12 1 10v3z" fill="#9f8d45"/>
  <path d="M397 34c-2 0-3-1-3-3s1-3 3-3 3 1 3 3l-3 3z" fill="#3e3f32"/>
  <path class="st68" d="M314 975l5-5c1-1 0-2 2-2l2 4-2 2-6 2-1-1z"/>
  <path d="M42 52c0 2-1 3-3 4-1 0-2-1-2-3s1-3 2-3c2 0 3 1 3 2z" fill="#7f8070"/>
  <path class="st112" d="M296 268l-1-12h1l1 10v3l-1-1z"/>
  <path d="M505 152c-1 0-2 0-1-1 0-2 0-3 2-3l2 2c0 1-1 2-3 2z" fill="#64655a"/>
  <path d="M60 401c0 1-1 2-3 2l-2-2c0-2 1-2 3-2l2 2z" fill="#59594e"/>
  <path d="M531 392c2 0 3 1 3 2 0 2-1 3-3 2-1 0-2 0-2-2l2-2z" fill="#929386"/>
  <path d="M614 2c2 0 3 1 3 3 0 1-1 2-3 2s-2-1-2-3 1-2 2-3z" fill="#d5d4b7"/>
  <path d="M519 777l-19-7-26-8a317 317 0 0 0-66-13 374 374 0 0 0-174 23l-19 9c-2 0-3 3-6 3 5-10 1-19 3-29v-8l2-3c1-1 2-2 3-1 2 2 4 1 6 0h2c7 1 13-3 19-6l3-1c2 0 4 0 5-2 5-4 11-5 16-6 2 0 4 0 6-2h2c4 1 7-2 11-4 3-2 6-3 8-1h5c3-4 6-6 11-6l14-2 6-2c2-2 4-3 7-1 2 2 9 1 11-1 1-2 2-2 4 0h3c1 0 3-1 3 2h1v-1c-1-1-2-3 0-4s4 0 5 1c2 2 5 2 8 1l16-2c2 1 5-2 7 0l10 1 2-1c2-1 5-1 7 1 1 2 3 1 4-1s2-2 4-1c1 2 2 1 3 0s3-2 5 0c1 2 2 1 3 0 1-2 2-2 3-2 2 1 2 2 2 3-1 3 0 4 3 4 1-1 2 0 2 1l8 1c2 0 4 0 6 2 1 1 2 2 3 1v-4c0-1-2-2 0-4 3 0 5 0 6 3 1 1 2 3 4 3l1 1c1 2 2 2 4 2h2c1 3 3 3 5 2s4-2 6 0c2 1 3 0 4-2 1-3 5-3 7-4 3-1 4 2 5 4l2-5 3-1 1 2c-1 2 1 3 1 4 2 6 1 13 3 19v3l2 29 2 7v3z" fill="#2b371f"/>
  <path class="st118" d="M596 858l-7-10c-6-9-14-16-22-23a238 238 0 0 0-92-41l-23-5-19-3-21-3-11-1h-5c-4 1-8 0-12-1l-11 1h-18l-36 3c-18 1-36 5-53 9l-17 4-29 10-17 8c-10 5-20 11-29 18-10 8-19 17-26 27l-6 8c2-6 4-11 7-15l20-25 17-13a194 194 0 0 1 55-29l15-6 34-8 36-6c20-2 40-2 60-2l37 4a310 310 0 0 1 107 32c11 6 22 13 32 22a127 127 0 0 1 34 41v4z"/>
  <path d="M519 1028l14 2c8 1 16 4 25 3 2-1 2 0 2 2-3 14-3 29-4 44 0 11-2 23-4 34v4c0 4-2 4-5 2l-20-12-19-11c-1-1-2-2-1-4 5-10 7-21 8-32 0-2 1-5-1-7v-2c4-6 2-13 2-20 0-1 0-3 3-3z" fill="#1d2416"/>
  <path class="st120" d="M223 1035c0 15 1 29 3 43l4 11c3 5 2 5-2 8l-31 19-7 4c-1 1-2 1-3-1l-1-8a536 536 0 0 1-5-66l-2-10c0-1-1-3 1-2 6 1 12-1 18-2l21-3c3 0 4 1 3 3l1 4z"/>
  <path d="M154 1018l6 4 12 10c2 1 3 3 3 6l2 35c0 14 1 28 3 41v3c-16-18-30-37-42-56-4-10-3-20-3-31v-12c0-8 1-9 8-6 4 2 7 5 11 6z" fill="#5c8a42"/>
  <path d="M598 1064c-4 8-10 16-15 23l-23 28-1 1 1-13c2-16 2-32 2-48l2-19c0-2 1-3 3-5l15-12 3-2 5-2c4-2 8 0 10 5v3c0 14 1 27-2 40z" fill="#557f3d"/>
  <path d="M605 860l-8-16a143 143 0 0 0-38-43c-2-2-4-4-3-8l-1-19-3-20v-8c2-1 3 1 3 3-1 3 2 6 1 9 0 2 2 2 4 1 1-1 2-1 3 1 1 1 3 3 2 6l-1 1c-2 4-2 5 2 6 3 2 3 2 3 6 2-1 2-3 4-3l4 1c2 1 3 2 2 4s0 3 1 4l1-1c-1-2-1-3 1-4 2 0 3 1 3 3v2l1-2 2 1 2 8v1c3 1 3 4 3 7l3 1c2 0 3 1 3 3l5 4 4 18c3 13 4 26 5 38 0 1-1 2 1 3v2l-1 2v3c-2 1-3-1-3-2l-5-12z" fill="#add47f"/>
  <path d="M168 812c-14 13-24 28-33 44l-6 16-2 2-2 1v-5l-1-10c2-1 2-2 2-4-1-16 5-31 9-46l2-8c1-2 2-4 5-4 0-2-3-3-2-5s3 0 5 0h1c0-1 0-3 2-4 2-2 3-5 6-5 2-1 4-4 7-4v-2c-1-3 0-4 3-4l3-1c5 0 6-1 7-7 1-4 3-5 7-5 1 3-1 6-1 8-2 7-3 15-3 22v11l-1 3-8 7z" fill="#b1d785"/>
  <path d="M129 992c-2-3 0-6-1-8v-4c2-5 1-10 1-14-2-8 0-16 0-23l1-15 1-20v-2c-2-3 0-4 1-5l16-20c2-2 2-2 4-1-2 6-3 12-3 19l-3 42c1 13 2 25 5 38 1 3 1 7 4 10l-22 5c-2 0-3-1-4-3z" fill="#202718"/>
  <path class="st120" d="M607 902l1 20c0 12 3 25 2 37v19c0 2-1 3 1 4v1c-1 4 0 9-3 12-7-1-14-2-21-1-2 0-4 0-5-3 7-6 6-15 8-23v-1c2-5 1-10 2-16l1-23c-1-11-1-23-4-34v-3c-1-3 0-3 2-3l4 2c5 4 9 7 12 12z"/>
  <path d="M553 755c2 10 4 20 4 31 0 3 1 7-1 11l2 3a141 141 0 0 1 38 41l2 4c-3-2-4-5-5-8-9-13-20-24-32-34l-27-18-15-8c-2-3-3-7-3-11l-2-28 9 3c2 0 4 1 5-2 0-2 5-1 6 1 2 3 5 4 8 5h2c1 5 7 6 9 9z" fill="#51773a"/>
  <path d="M129 992c3 1 6 2 9 0 5-2 11-2 17-3 1 2 4 3 7 5 9 7 19 12 29 17l18 9 9 2-11 3c-8 1-16 1-23 3-5 1-9-1-13-4l-27-20-10-6-5-6z" fill="#2e3b22"/>
  <path d="M582 991c2 3 6 2 9 1 5 0 11 0 17 3-2 4-6 5-9 7-11 6-20 13-29 20-6 5-11 7-19 5-6-2-14-2-21-2l-9-2 10-4 23-11c9-4 18-10 26-16l2-1z" fill="#2c3920"/>
  <path d="M168 812l6-6c1-1 3-2 2-4-1-7 1-14 1-21l2-12 6-8c4-1 6-4 7-7h4c2 2 2 1 2-1l1-3c1-1 3-2 4 0 1 4 5 4 7 6 1-1-1-5 3-5v25c0 3-1 6-4 7l-17 11c-8 4-15 10-21 16l-3 2z" fill="#52783b"/>
  <path class="st130" d="M614 867l-1 1v-1l-2-7-3-33-5-19-7-20a355 355 0 0 0-27-63c-1-1-3-3 0-4l17 23c5 6 7 13 11 20l4 13c6 17 8 35 12 52 3 12 3 25 1 38z"/>
  <path d="M598 1064l-1-2c3-12 2-25 2-38v-1c0-7-3-9-10-6-1 0-2 2-4 0l25-20c2 3 1 8 2 12l2 21v5c-4 10-10 20-16 29z" fill="#b0d77f"/>
  <path d="M154 1018l-1 1-14-8c-2-1-3 0-3 2l-1 3c2 13 0 26 2 39 1 2 3 4 1 6-6-11-12-21-17-33l2-22v-3l2-13c2 8 9 10 14 15 4 5 10 9 15 13z" fill="#bade8b"/>
  <path class="st130" d="M138 801l-10 39v17c0 2-1 4-3 3-2-8-1-17 0-25 1-15 6-28 8-43 1-7 4-14 7-21l2-7c5-11 10-21 17-30l2-3c3 2 1 3 1 4-6 11-11 21-15 32l-6 21c-1 4 0 9-3 13z"/>
  <path d="M607 902l-10-9-6-4c-2-1-2 0-2 2l-2-12-4-22-2-9 6 6a307 307 0 0 1 19 39l1 9z" fill="#0f110c"/>
  <path d="M120 866v4c0 9 2 19 4 28l3 12-2 20-4-7c-4-9-7-17-7-26l2-10c0-6 3-12 3-19l1-2z" fill="#27301c"/>
  <path class="st118" d="M152 880c-3-1-4 2-5 3l-12 15-3 3c0-7 3-12 5-18 5-10 9-21 16-30 1-1 1-3 3-3l-2 10-2 14c-1 2 2 4 0 6z"/>
  <path d="M625 897c-2 12-5 24-12 35v-21l1-8c2-11 5-21 4-32h2l1 2 4 24z" fill="#2b361f"/>
  <path d="M614 1035l-2-14-2-24c1-2 3-3 3-5 2 0 1 1 2 2 0 6 2 12 4 17 2 6 1 12-1 18l-4 6z" fill="#f9faf7"/>
  <path d="M163 988c1-5 5-6 9-8l12-6c6 6 6 6-2 8l-14 6c-2 2-4 1-5 0z" fill="#5c8840"/>
  <path d="M552 976c3-1 6 0 9 1l12 7c1 1 3 2 2 5h-4c-6-5-14-6-22-9l3-4z" fill="#598740"/>
  <path class="st118" d="M125 870l1 5c4-6 5-14 9-19 0 5-2 10-3 14l-3 15-1 4c-2-7-4-13-3-19z"/>
  <path d="M120 866c0 7-2 13-3 19l-2 9-1 3-1-12 1-4c0-4 0-8 2-12 2-3 2-5 2-8v-10l1-2h1v17z" fill="#b0d488"/>
  <path d="M118 851c1 6 2 12-1 18l-2 12c0 2 0 4-2 4-1-10 1-20 3-30l2-4z" fill="#f7f9f4"/>
  <path d="M605 860l8 14 1-4-3 18-6-28z" fill="#303e24"/>
  <path d="M619 871l1-21c5 9 6 20 6 30-3 0-2-2-3-4l-2-18v-1l1 10c0 2 0 4-3 4z" fill="#d4e2c4"/>
  <path d="M619 871c2-2 2-5 2-8v-7l3 19 2 5-1 14c-2-1-1-3-1-4l-3-16-1-1-1-2z" fill="#a9cd7c"/>
  <path d="M620 873c2 0 2 1 2 2l2 15 1 4v3c-2-3-2-6-2-9l-3-15z" fill="#5a7742"/>
  <path d="M128 980v3c-3 0-5-1-3-5l1-8c0-1-1-3 1-3s1 2 1 3v10zm19-48v-5l1-2 2 2c0 3-2 7-1 10 1 1 0 2-1 2-2 0-1-1-1-2v-5zm443 35v1c-2 1-3 1-3-1v-4l1-3c2 1 1 2 0 3l2 4zm21 17v-10c3 6 3 7 0 9z"/>
  <path d="M523 670c-2 0-4-2-5-3-4-3-9-3-12-7l-6-5a246 246 0 0 0-88-31 234 234 0 0 0-107 5c-16 5-31 10-46 17l-31 17-6 4 25-29c11-11 24-19 38-26l8-4c6-5 14-7 21-10l28-8 14-2 20-1a156 156 0 0 1 60 15l3 2 3 2c8 2 13 7 19 11l25 22 10 9c7 8 16 14 25 20l2 2z" fill="#324125"/>
  <path d="M456 428l6-24c3-5 3-10 3-16v-2c1-9 4-18 7-26l3-12c0-1 0-2 2-2 3 2 2 6 2 9l2 1v3l-10 46 2-8 5-9 2-4c2 0 4 0 5-2-2 0-2 3-4 2-1-3 0-6 3-7 2 1 4 3 4-2-1-1 1-1 2-2l-13 43-7 22v1c-1 0-1 3-3 3v-4l3-16c0-2 0-4-2-4-2-1-3 1-3 2l-2 7c-1 2 0 4-2 4s-5 0-5-3z" fill="#977f5d"/>
  <path d="M474 347l-4 10-4 5c-4 3-5 8-5 12l-2 16-2 6c-4 9-7 17-13 23 0-5-1-10 1-14 4-9 2-20 5-29l9-30c2-6 3-11 2-17 1-2 2 0 2 1 1 5 6 7 9 11 1 2 3 0 4 0 1 2 1 4-2 6z" fill="#977e5c"/>
  <path d="M487 406l-1-4-2 3-1-1v-1c3-1 2-4 3-7l24-84 1-4-7 11h-1l3-9c2-7 3-5-3-11-1-3-1-6 2-9 4 2 5 7 9 9 2 1 0 4 0 5v5c1-1 0-4 2-4v3c-4 9-5 18-8 27-2 5-3 9-3 14v3l-8 24-10 30z" fill="#e4e0b7"/>
  <path d="M448 322l1-4 1 1c-1 3 0 4 3 2h2c1 2 3 2 5 1l-5 19c-3 9-5 18-6 28l-3 21-1 9-1-2-2-23 2-20 4-18v-14z" fill="#967e5b"/>
  <path d="M433 267c2 3 2 6 3 10v2c0 2 0 4 2 4l2-3 4-11 1-1c2 0 1 1 1 2 0 2 1 3 3 3l3-3 3-7c1-2 3-2 5-1 2 0 2 2 2 4v5c-9-1-12 5-15 11l-1-9c-3 4-5 9-5 14l-2 17c-1 2-1 1-2 1l-3-23-1-8v-7z" fill="#e8e5bd"/>
  <path d="M481 384l-5 10-2 3c-2-1 0-3 0-5l6-31c1-2 1-5 4-6v22c-2 2-3 4-3 7z" fill="#6c5443"/>
  <path d="M474 347l3-6c3-12 6-25 12-36l-12 41-12 42c-2 3-1 6-2 9-2-4 0-7 0-10l7-24c2-5 4-10 4-16z" fill="#42331f"/>
  <path d="M484 355c-3 4-3 9-4 14l-6 27v2l-4 10 1-10c4-11 5-23 8-34l2-8c1-7 6-12 8-19 0 7-4 12-5 18z" fill="#432"/>
  <path d="M505 290c-2 3-2 6-2 10l-9 27c-1-3 0-7 2-11l6-20 1-6 1-3 1 3z" fill="#5e5139"/>
  <path d="M462 284h3c0 6-2 12-3 17v-17z" fill="#e4deb3"/>
  <path d="M427 634l2 1-3 1-21-4-1-1 11 3a265 265 0 0 1 77 30c2 1 5 1 6 4v1c-2 2-4 3-1 5 1 1 0 3-1 3l-4 1-19-11c-17-8-35-15-53-19l-27-6c-20-2-39-2-58 2l-42 10-29 11c-10 4-19 8-27 14l-3 1c-2 0-1-2-1-3v-5l4-4 33-18 15-6c16-4 31-10 44-12l-29 7c-15 4-29 9-43 16-2 1-4 2-6 1a227 227 0 0 1 95-27c23-1 46-2 69 3l12 2z" fill="#689949"/>
  <path d="M251 656c7-2 12-5 18-8 19-7 38-13 58-16l7-1-13 4c-17 5-33 9-49 15l-31 17c-3 2-6 2-8 5-1 3-4 5-7 8-12 9-22 20-29 33-4 6-6 14-8 21l-6 22c0 2 0 4-2 5-4 1-6 2-6 7 0 4-3 6-7 6l-5 1c-1 0-2 1-1 2 3 3 0 4-1 4l-3 1c-2 2-3 4-6 3l-1 2-2 2c-2 1-3 3 0 5v1h-1c-2-3-5 0-7-2v2c2 1 2 3 3 5-2-2-4-1-5 1 2-14 4-29 10-42l12-24c1-1 2-2 1-4l14-17c21-24 46-43 75-58z" fill="#c0e195"/>
  <path d="M408 305c-2-7-1-15 0-22v-11l4-10c2-2 4-3 7-2h1c7 2 7 2 7 10 0 5 2 10 1 15l-2 12 1-6c3 1 0 4 1 6 0 2 3 3 2 4-3 0-5 2-8 0s-2-5-2-8l-1-6c-2 3 0 7-3 10-1 2-2 3-4 3-1-1-2 0-2 1l-2 4z" fill="#a28b63"/>
  <path d="M416 297a261 261 0 0 0 2-11c1-1 1-2 2-1v2l1 11 1 3 3 15c1 5 1 10-3 15-2-4-2-9-5-13-4-5-2-11-1-17v-4z" fill="#68503e"/>
  <path d="M443 340l-4 19-6 34c0 9-1 18-4 27h-1c1-16 1-32 4-48 2-9 4-19 8-28l3-4z" fill="#5f493b"/>
  <path class="st54" d="M427 285l-1-20-1-2-9-3c-2 0-2 1-2 2-3 3-3 8-6 10v-9l1-4c2 0 4-1 4-3 0-3 2-4 4-3l8 3c2 0 2 1 2 2 1 5 3 10 2 15 0 1 0 3 2 3 2 5 1 10-1 14l-2 7-1-6v-6z"/>
  <path d="M423 406c-1-9 0-18 2-27s1-19 3-29l3-14-2 24a1708 1708 0 0 1-5 46l-1 3v-3z" fill="#36271b"/>
  <path d="M428 420h1l-1 4c0 4 0 4-4 3l-4-1c1-5-1-10 1-15v7c-1 4 2 4 5 4 2 1 1-1 2-2z" fill="#5e483a"/>
  <path d="M430 290l1-10v-11l2-2v7l-1 14-1 4-1-2z" fill="#4a402d"/>
  <path class="st112" d="M316 260l1 4v2c-1 3 1 7 1 10 2 9 3 18 3 28l2 11v2l3 18 2 14-5-17c-1-1-1-3-3-3s-2 2-2 4c3 12 2 24 4 37 0 3 0 6-2 9-2 2-1 5-1 7l-1-2c-3-3-2-6-3-9a391 391 0 0 1-8-46l2-20-1-7c-3-4-4-8-8-11l-1-4-1-16c2-3 5-3 9-3l2 2 2 7 1-7v-2c3-2 2-6 4-8z"/>
  <path d="M359 416v5c1 4-2 4-5 5-3 0-3-2-3-4l-2-26c-2 1-1 3-1 4l2 23c0 1 0 3-3 2l-5-1c-2 0-2-1-2-2s0-2-2-2l2-1 1-6-5-15-1-8-1-12v-16c2-7 2-15 3-22l2-13 2-13c2 1 1 2 2 3 2-14 5-27 4-41 2 7 1 14 0 21-1 9-4 19-3 29v4l1 3 3 24 1 17c4 13 6 25 6 38 0 3 2 4 4 4z" fill="#5d4739"/>
  <path d="M320 421v2c-5 1-8 4-13 4-4-12-6-25-7-37l-2-7c-3-3-2-6-2-9l-1 2-1-2-2-5-7-20c-1-2-2-3-1-5 4-2 4-6 4-9l-1-11 1-3c2 2 3 5 1 8 0 9 3 17 5 25 3 14 9 27 12 40l7 20c1 4 3 7 7 7z" fill="#8e7657"/>
  <path class="st112" d="M284 290l12 22c0 2 0 3 2 4 0-13-2-26-1-39 2 1 1 4 1 5 1 4 1 8 3 11 1 4 3 8 1 12 1 11-1 22-1 33 0 6 1 11 4 17l1 3c-3 0-3-2-3-4l-6-11c-3-6-3-13-5-20 0-2 0-3-2-4l-1-3-6-21c0-2-1-3 1-5z"/>
  <path d="M339 327l-2 23-1 10c-3 13-1 26 1 38l5 18c1 2 0 3-2 3-2-4-3-9-3-13 0-3 0-5-2-7v6c-5-22-3-43-7-65 3 0 6 0 4-4l1-2c4-1 6-3 6-7z" fill="#8b7455"/>
  <path d="M303 305l-3-12c1-2 2 0 3 1l1 4 4 31c2 16 4 33 9 48l1 7v7l-4-15-3-16-5-32-3-23z" fill="#332418"/>
  <path d="M284 290c0 7 3 13 4 19l2 10c0 7 3 13 3 20l-4-10-1-8-1-3c-1-5-1-10-3-14l-2-13c-1-5-5-9-4-14 1 5 3 9 6 13z" fill="#272014"/>
  <path d="M323 318c-4-16-2-33-7-49l1-3 1 2 2 15c2 8 1 16 2 24l1 6v5z" fill="#3b2d1c"/>
  <path d="M368 413c-2 4-1 7-1 11-2 0-3-1-3-2v-10l-1-2c-2-1-1 1-3 1l-1-6c-1-1-2-2-1-4v-12c0-6 0-12-3-18l-1-9v-40l-1-11-1-23v-14c0-1 0-3 2-3-3 16 0 32 1 47v-8h1l2 13c2 5 2 11 3 16l1 8c1 5 1 10 5 15 2 2 2 6 3 9v-50c0-2 0-2 2-2 0 5 3 9 3 14 2-3 1-5 2-8l3-11c4-7 1-15 0-22 0-6-2-11 0-16l1-10 1 4 1 9v2c5 1 3 5 3 7 0 9-3 18-2 27-2 3-1 7-2 10l-1 25v6l1 7-1 2-2-1v-3l-3-9c-2-2-1-6-2-9 0 7 0 13 3 20 2 3 1 7 1 11 0 6-1 13 1 19v2l-1 11v10l-1 3c-2 0-2-2-3-4l-4-29-1-8c0-1 0-2-2-2l-1 2 1 14v1c2 4 2 8 2 12 0 3 1 6-1 8z" fill="#5b4638"/>
  <path d="M354 322l1 4v37c0 3 0 6 2 9 2 5 2 10 2 15v18l-1 11c-4 2-5 1-5-3 1-10 0-20-3-30s-2-20-4-30l-2-23c3 0 5 1 6 4 2-2 4-4 3-7-1-2 2-3 1-5z" fill="#8b7354"/>
  <path d="M361 285c2-2 2-4 2-6 0-7-2-14-1-22 2 10 2 20 2 29 3-1 3 1 4 2 2 6 1 12 1 18v27l-1 6c0 1 0 2-2 2-1 0-2-1-2-3l-2-13-1-2v-38z" fill="#5b4736"/>
  <path d="M362 323c2 3 1 7 2 11 1 2 0 4 2 6 2-2 2-4 2-6-1-9 1-17 1-26v-2c1 2 0 5 2 7l1 6c-2-1-1 1-1 1v41l1 14-3-4c-2-5-3-10-6-13-2-3-1-6-1-9l-4-24v-2c1 1 2 2 3 0z" fill="#8b7355"/>
  <path d="M318 268l-1-2v-3c2-3 0-7 1-11l3 6c2 6 6 10 10 13l4 7 2 8 1 3 2-3 3-20c0-3 0-4 3-3-2 3-2 7-2 11l-4 26-6-12-6-13c-2-6-5-8-10-7z" fill="#e6e3b9"/>
  <path d="M329 315l-3-18 1-3c2 0 4 1 4 3 2 6 0 12-2 18z" fill="#6d5443"/>
  <path class="st176" d="M409 259l-1 10-1-4-1 3c1 10-3 18-5 26l-4 10c-2 4-1 7 0 11l-1 1-1-1c-2-3-1-6-1-9v-30l1-3v5c3-8 4-16 9-23 1-1 2 1 2 2v6l1-5c1-2 1-1 2 0v1z"/>
  <path d="M394 276c2 13 1 26 1 39l-1 4-1-2 1-23v-18z" fill="#594a35"/>
  <path d="M377 405c1-3-1-7 2-10l-1-2c-3-5-2-11-1-16 0-7 0-13-3-19-3-5-1-12-1-17l1-2 1 1 1 8c0 2 0 4 2 6 2 3 2 7 3 10l-1-8c0-2-1-5 1-6l1 8 1 9c0 4 1 8-2 12v4l-1 13-1 3v4c0 1 0 2-2 2z" fill="#3a2923"/>
  <path d="M222 920v-3c0-6 4-10 9-12 4-2 8 1 12 1l7 4c3 3-1 5-1 7l-1 5c-3-1-5-4-9-5l-3-1 12 7c1 1 3 1 2 3l-1 3c0 6 0 11 2 16l4 4c5 1 7 5 3 9v3l2 2c2 4 6 4 9 7-6-1-9-5-13-9-1-1 0-2 1-4 1-1 2-3 1-4-1-2-2-3-5-3-3 1-4-1-4-4-2-6-4-13-11-16-5-4-10-8-16-10z" fill="#c4c2cb"/>
  <path d="M254 316c2 3 1 8 4 11v-4l-1-5c-1-4-2-9-1-13 1-2 0-4-1-6l-2-12c-1-4 3-4 5-6 3-2 3-2 5 2l3 10c1-4-2-7-1-11l6 25c-2 2-1 4 0 6l2 14-1 3 1 7c0 2-2 6-5 7-2 0-3-2-4-3l-1-1c-2-1-2-2-2-3l-2-4c1 2 3 4 2 7s1 5 1 8l1 7v3c-2 2-3 5-3 8l-2 1-2-2-14-48-5-13v-2c-1-1-3-2-1-4 2-1 0-4 0-6l8 10c4 4 6 9 9 14-1 0 0 2 1 0z" fill="#a69169"/>
  <path d="M237 302l1 1c3 13 8 25 12 38l9 39 4 16v4c-2 6-1 11 1 17l5 17v4c-2 0-2-1-2-2l-4-15-3-9v-3c-3-4-3-9-4-13 0-2-1-2-3-3s-1-3-2-5l-1-5c-4-7-6-16-8-24l-3-15-2-4c-3-5-3-10-4-15l-4-14c0-2-1-3 1-5l2-6 2 2c2 3 2 1 2 0z" fill="#a28c65"/>
  <path d="M258 367l1-3c-1-2 0-4 3-5v-4l-1-7c3 6 2 12 3 19 1 8 0 16 2 24 3 7 3 14 4 21 1 6 3 11 6 16l1 1c1 1 0 2-1 3-2 1-2-1-2-2l-7-17c-2-2-2-4-2-6l-8-36 1-4z" fill="#937a5b"/>
  <path d="M258 367c1 10 4 19 6 29l3 17c0 1 1 2-1 4l-3-17-11-45-12-42c-1-3-3-6-3-10l12 33c4 11 5 21 9 31z" fill="#443621"/>
  <path d="M251 383l3 10 5 29c3 9 4 19 6 28l-1 2-1-3c-3-11-3-23-7-34l-1-4-4-24-2-4h2z" fill="#2a2015"/>
  <path d="M261 340l-2-8 4 8 3 9c-2 1-2 0-2-1l-3-8z" fill="#392b1d"/>
  <path d="M377 405c2-2 1-4 1-6h1v24c-1 1 1 4-2 5v-23z" fill="#0b0706"/>
  <path d="M272 331c0-7-1-13-3-19v-4c0-2 1-1 2 0l2 6 4 7 7 21v2l8 23v2c-4-2-5-6-6-10-1-1-1-2-2-1-2 0-2 2-2 3l5 16c3 10 7 19 9 29l6 22c1 4-1 6-4 6l-2-2c4-2 5-4 3-10l-7-15-1-2c-9-8-9-19-11-29l-6-36-2-9z" fill="#664f3f"/>
  <path d="M518 914v15l-1-2-16 12c-4 3-8 8-11 13-1 3-3 7-6 8 4-5 7-11 9-17s2-11 2-16c0-2-2-2-3-2l2-1c3-1 6-3 10-3l4-2c-4-1-7 1-11 2-1 1-2 2-3 0l-1-4v-2c-1-5-1-5 4-7s9-2 14 0c4 1 6 3 7 6z" fill="#b4b1bc"/>
  <path class="st176" d="M284 344l-6-15-5-15c2-3 0-5-1-7l-5-25v-3l14 27v-15c3 10 7 20 7 30l1 14c1 6 0 8-5 9z"/>
  <path d="M308 329c-2-6-2-13-3-20l-2-12c0-2 0-4-3-4-2-2-2-5-2-8l-1-8c0-2-2-5 0-8v-3h1v5c1 5 0 11 2 17 0 1 0 3 3 4l2 4c3 4 6 9 5 15-2 6-2 12-2 18z" fill="#69533f"/>
  <path d="M487 406l5-16 11-35c0-1 0-3 2-3-1 8-5 15-6 23-4 12-9 23-11 36l-1 4-1-2c0-2 2-4 1-7z" fill="#827f67"/>
  <path class="st54" d="M409 259c-1 0-1-2-2-1v5c-2-3 0-6-3-8 1-2 2-1 3-1 3 1 2 3 2 5z"/>
  <path d="M251 383h-2l-4-13-8-30v-3c7 15 8 31 14 46z" fill="#272116"/>
  <path d="M292 369l3 6c1 1 0-1 1-1l2 9c-2 2 0 4-1 7l-5-21z" fill="#62503f"/>
  <path d="M455 951c2 2 4 0 7 0 2-1 2 1 3 3 0 1 0 3 2 3-3-5-2-6 2-6 0-1-2-3 1-4s2 2 4 4v-5c0-2 2 0 4 0 0-1-2-3 0-4l4 2c2 1 0 3 0 5l-2 4c-4 0-5 3-5 7-4 0-7 3-11 2l-6 3c0 1-1 2-3 2l-1-3-2-2-3 2c0 1 0 2 2 3l3 1v1c-6 1-6 0-7-5 0-3-3-3-5-4-2 0-5-1-6-3-2-3-2-4 0-6l6-3c3 0 0 2 1 4 2-2 4-1 7-1 1 3 3 2 5 0z" fill="#7a951b"/>
  <path d="M479 953c2-2 1-6 4-7l-1-2v-1c-1-1-3-3-1-4s4 0 5 1l1 1c1-1 0-2-1-2l-6-2-2-1 1-1c3-2 4-4 5-7 2-1 3-3 5-1 1 1 4 2 1 4v3c2 6-1 12-3 17-2 3-3 6-5 7l-1-2v-1l-2-2z" fill="#396116"/>
  <path d="M455 967c1-3 5-2 4-5 3 2 5-3 7-1h2c2-2 4-2 7-1h6c-2 4-7 4-10 6-2 2-5 2-7 2-2 1-3 1-4-2l-1 1c0 4-4 1-5 2v-1c-1-1 0-1 1-1z" fill="#37631a"/>
  <path d="M489 927l-4 1c-2 2-4 2-6 2h-2c-1-1 0-2 1-2 2-2 5-3 8-3l8-4 7-2 7-2 2 1c1 1-1 2-1 2l-7 2-10 3-3 2z" fill="#e8eae4"/>
  <path d="M481 960c-2 2-4 1-7 0-1-5 1-7 5-7 1 1 3 0 3 2h-3l-3 1 1 2h3l2-3v3l-1 2z" fill="#a1b48c"/>
  <path d="M455 951c0 2 0 4-2 4-3 0-3-2-3-4l2-1 3 1z" fill="#d2d6c0"/>
  <path d="M474 441h-1c-1-3-1-6 1-9l8-24c1 4-1 7-2 11-1 8-3 15-6 22z" fill="#958361"/>
  <path d="M368 413l-1-20v-10c3 15 3 30 3 45-2-1-1-2-1-3l-1-12z"/>
  <path d="M498 668l-17-10c-9-4-17-9-26-12l-29-9-23-6 22 4h4a245 245 0 0 1 98 46l30 26 12 13c-2 4 1 5 3 7l9 17c8 16 13 34 19 51 1 4 3 8 3 13l-3-2c-1 0-2 0-2-2 1-2 0-2-1-2-4 0-6-1-5-5v-2c-4 0-3-2-3-4 0-3-3-4-2-7-2 2 0 5-2 7-2-2-1-5-1-7l-1-2-1-1-1 2 1 3-2 1-3-3c-1-1 0-2 1-3 1-2 1-2-1-3-3-1-5-3-7 2h-2v-2c1-2-1-3-2-3-5-3-6-5-2-9 2-3-2-4-2-6s-2 0-2 0l-3 1-2-4c0-1 1-3-1-4l-1-2c2-2 0-4-1-6-2 0-2-2-2-3a116 116 0 0 0-25-50l-19-19-8-5z" fill="#b7db8b"/>
  <path d="M250 926l-14-9-2-2h4l10 7h1c3 1 4 4 6 5l1 2c-2 1-4 0-6-3z" fill="#edeeec"/>
  <path d="M282 953c2 1 5 0 7 2h2c2-3 6-2 8-4 1-1 2 0 3 1 2 1 3 3 4 6 0 2-1 5-5 5-4 1-7 3-12 3l-2 2c-3 3-5 3-8 0s-6-5-10-5c-3-1-3-2-3-4 1-2 2-4 4-1h2l2-2c-1-1-3 1-3-1v-3c-1 2-2 4-4 3-3-1-1-3-1-4-2-1-3 1-4 1-2 0-2-2-3-3-2-1-2-3-4-3s-3-1-3-3 1-2 3-3h2l4-1c3-1 4-1 5 2 0 2 2 2 3 3l3 4 4 4 6 1z" fill="#7fa31d"/>
  <path d="M257 940l-4 2c-1 2 1 2 1 3l2 1c2-2 3-1 2 2 3 0 2 2 3 4 3 1 6 3 5 6 1 2 2 4 5 4 2 0 6 1 8 4 2 4 5 4 8 1 1-1 1-2 3-2 5 0 10-2 15-5l1-2c3 3-1 4-2 7l-3-1c-2 0-2 1-2 2l-1 4c-7 2-13 1-20 0s-13-4-18-9l-2-2v1l2 3c-2-2-5-3-1-6v-5c-1-2-3-3-5-2-2 0-3-1-4-3-2-6-2-13-2-19 0-1 0-3 2-2s3 4 6 3c2 0 3 1 3 3-1 3 0 6-2 8z" fill="#3d6d1e"/>
  <path d="M257 940l1-7-2-4-1-2c4 0 4-1 2-4-1-2 1-3 2-5 0-1 0-2 2-2l1 2c0 2 1 2 3 2 3 0 5 2 4 5-5 12-1 19 8 27l5 1h-6l-2-1c0-4-2-3-5-2-1-2 3-3 0-4-1-1-1-3-3-2l-1-2c0-3-2-3-5-2-1 0-1 2-3 0z" fill="#5e881c"/>
  <path d="M255 299c2 2 2 5 2 8-1 5 1 9 1 14v2l-5-14c3-1 3-3 3-5l-1-5z" fill="#dfd8bd"/>
  <path d="M486 413l1 2-5 18-4 19c-1-4 0-8 1-12l6-24 1-3z" fill="#655b3b"/>
  <path d="M485 925l-8 4c3 1 5-1 8-1 0 4-3 6-6 8 3-1 5 2 8 2l2 3-1 2c-2 0-2-1-3-2-1-2-2-1-4-1 0 1 2 2 1 4l-4-1c0 1 2 2 1 4-2 2-3-2-5-1l1 3v3c-1 1-2 0-2-1l-1-2-2-2c-2 1-1 2 0 3l1 3c-1 0-4-3-5 0-1 1 2 2 3 4-3 1-5 0-5-3l-2-3c8-3 13-10 13-19l-1-8c-1-2-2-4 1-5l6-3h3c-1 2 3 5-2 6l3 3z" fill="#597a17"/>
  <path d="M298 271c-2-2 0-4-1-5 2-2 1-5 2-7 1-3 4-5 9-5 4 0 4 2 5 5l1 3 1-6c2 1 1 2 1 4l-1 3c0 2 1 4-2 4l-1 3-1 10-3-8c0-3-1-4-4-3l-6 1z" fill="#e7e5bc"/>
  <path d="M474 441l3-12 2-10c2 1 1 3 1 5l-3 18c-1 1-2-1-3-1z" fill="#ddd7a5"/>
  <path d="M89 78c0 5-3 8-8 8-4 0-7-4-7-8 0-5 3-8 8-8 4 0 7 4 7 8z" fill="#6f6e51"/>
  <path d="M28 304c-3 0-4-2-4-4s1-4 3-4c3 0 4 1 4 4 1 2 0 3-3 4z" fill="#aeac90"/>
  <path d="M611 138c-3-1-4-2-4-4s1-4 4-4c2 0 3 1 3 4 0 2-1 3-3 4z" fill="#a1a083"/>
  <path d="M640 279c-1 2-2 3-4 3-3 0-4-1-4-3 0-3 1-4 4-4 2 0 3 1 4 4z" fill="#a4a388"/>
  <path d="M672 176c-2 0-4-1-4-3 0-3 2-5 5-4 2 0 3 1 3 4 0 2-1 3-4 3z" fill="#a09f83"/>
  <path d="M368 222c0 3-1 5-4 5-3 1-6-2-5-4 0-3 1-5 4-5 4 0 5 1 5 4z" fill="#66654d"/>
  <path d="M634 417c0 3-1 4-4 4s-5-3-5-6c0-2 1-4 4-4s5 3 5 6z" fill="#969577"/>
  <path d="M514 481c-2 0-3-1-3-4 0-2 1-3 3-3s4 1 4 4c0 2-2 3-4 3z" fill="#81806a"/>
  <path d="M113 333c3 0 4 2 4 6 0 2-2 4-5 4-2 0-4-1-4-5 0-3 2-5 5-5z" fill="#5d5c46"/>
  <path d="M52 146c-2 0-4-1-4-4s2-5 5-5c2 0 4 2 4 4 0 3-1 5-5 5z" fill="#6d6c55"/>
  <path d="M492 34c2 0 3 1 3 3s-2 5-5 5c-1 0-2-1-2-3-1-2 2-5 4-5z" fill="#c0bfa2"/>
  <path d="M638 541c-2 0-4-2-4-4s1-3 4-4c3 0 3 3 3 5 1 2-1 3-3 3z" fill="#5a5b4b"/>
  <path d="M294 120c2 0 3 1 3 3 1 2 0 3-2 3s-3-1-3-3c-1-2 1-3 2-3z" fill="#b4b49b"/>
  <path d="M419 89c2 0 3 0 3 2s-2 3-4 3c-1 0-2 0-2-2s1-3 3-4z" fill="#a3a38d"/>
  <path d="M541 89c-2 0-3-2-3-3l3-3c2 0 3 1 3 3s-1 3-3 3z" fill="#93927f"/>
  <path d="M732 319c-2 0-3-1-2-3 0-2 0-3 2-4 2 0 3 1 3 3s-1 3-3 4z" fill="#c4c4a6"/>
  <path d="M162 268c2 0 3 1 3 3 1 1-1 2-2 2-2 0-3-1-3-3l2-2z" fill="#abab94"/>
  <path d="M234 680c13-10 29-15 44-22 11-4 23-8 34-10 25-6 49-10 74-8 10 1 21 3 31 6l29 8 18 8c10 4 19 9 29 15 6 3 10 6 13 12 3 7 5 15 6 23l-1 4c-3-1-1-4-2-6l-2 5-2 2c-1 0-3-1-2-2 0-4-2-3-4-2s-5 1-6 5c-1 2-3 2-4 1-2-2-3-2-6-1-2 2-5 3-6-1-1-2-1 0-1 0-2 0-4 1-4-2l-2-2c-3 1-3-1-4-3-1-3-3-2-6-2 3 2 4 5 1 8h-3c-2-3-5-3-7-3l-6-1c-2-1-3-2-6-1-1 1-2-1-2-2l1-3-1-2c-2-1-2 0-2 1-2 3-3 3-5 1-1-1-2-3-3-1-2 4-4 3-6 0l-1 1c-2 4-4 4-7 1-1-1-2-2-4 0h-4l-3 1c-1 1-2 0-3-1-3-1-5-2-8 0l-2 1c-6-2-11 0-17 1-2 1-6 2-8-2l-3-1-1 1v1l2 3c-1 1-3 2-4 1-3-1 0-2 0-3l-3 1c-1 1-2 1-3-1s-2-2-3 0c0 2-1 2-3 2l-4 1c-2 1-4 1-5-1-2-3-4-2-5 0-5 4-10 2-15 4-4 1-9 0-13 3l-4 3c-1 3-3 3-5 1-3-2-5-1-8 1-3 1-5 4-10 4-4-1-8 2-12 2l-5 1c-2 1-5 1-6 4l-5 3c-3 0-5 2-8 3-5 1-10 5-17 3l-2 1c-2 1-3 2-5 0-1-1-2-2-3 1l-2 1-1-3 5-28c1-6 1-12 3-17 3-8 8-14 15-18z" fill="#354626"/>
  <path d="M511 716c-1-10-3-19-6-27-2-4-6-6-9-9l-4-2 1-1c2-1 8-2 1-4v-2c2-1 2-3 4-3 5 1 8 4 12 7a123 123 0 0 1 41 65l1 5 1 10h-1c-2-3-8-3-8-8l-2-1c-3-1-7-1-8-5-1-2-3-2-5-2l-1 1c2 3 0 2-2 2-3 1-6-1-10-1-2 1 0-2-2-3l-2-14-1-8z" fill="#608e44"/>
  <path d="M234 680l-12 14-2 4-7 42-1 6v9l-1 3c-2 0-2 0-2-2l-2-1c-2-1-5 0-5-4l-1-1-1 1-1 2-1 4-2-2c-3-2-4 0-4 2-1 2-2 4-4 3-2 0-2 1-3 2-1 3-3 5-6 7l2-8 10-36c2-8 6-14 10-21 7-11 17-19 27-28l5-4c2 0 1 1 1 2v6z" fill="#5e8c43"/>
  <path class="st5" d="M481 384l2-2c1-1 1-3 3-2v2c1 2-1 2-1 2-2 2-3 1-4 0z"/>
  <path class="st7" d="M427 285v13l-1 1c-1 0-2-1-1-2 2-3 1-6 1-10l1-2z"/>
  <path d="M258 295c3 2 3 4 3 6 2 5 4 9 4 14 0 2 3 3 3 6l1 16c1 2 1 4-1 4s-3-2-3-3l-1-10-6-27v-6z" fill="#745a45"/>
  <path d="M455 967l-1 2c-3 0-6 0-6-3-1-3 0-5 3-5 3-1 4 1 4 4v2z" fill="#f4f6f0"/>
  <path d="M482 955c-1 2-1 4-3 5l-4-2 1-4c3-1 4 1 6 1z" fill="#f4f7f0"/>
  <path d="M266 958c0-3-4-4-5-6l3-2c1-1 2-2 3-1 2 1 0 2-1 3l1 2h2l3-4c1 2-1 3-1 5 1 1 2-1 3-1l2 2-5 4c-1 1-2 1-2-1 0-4-2 1-3-1z" fill="#a8c325"/>
  <path d="M283 968c-3 0-4-2-4-5 0-2 1-3 4-3s4 1 4 4c0 2-1 4-4 4z" fill="#f4f8ef"/>
  <path d="M261 940c2 1 3 2 3 4l-3 2c-2 0-2-1-2-3s1-3 2-3z" fill="#eff5e6"/>
  <path d="M82 83c-4 0-6-2-6-5s3-5 5-5c3 0 6 2 6 5s-2 5-5 5z" fill="#bfbd95"/>
  <path d="M367 223c0 2-1 3-3 3s-4-1-4-3 2-3 4-3c2-1 3 1 3 3z" fill="#aaa98d"/>
  <path d="M630 420c-2-2-4-3-4-5s1-3 3-3c2 1 4 2 4 5l-3 3z" fill="#d1d1ae"/>
  <path d="M116 338c0 2-1 4-3 4s-3-1-4-3c0-3 2-4 4-4s3 1 3 3z" fill="#a6a58a"/>
  <path d="M56 142c0 2-1 3-3 3s-3-1-3-3 0-4 3-4c2 0 3 2 3 4z" fill="#adac90"/>
</svg>
