<svg width="260" height="260" xmlns="http://www.w3.org/2000/svg">
    <path fill="#36792a" d="M115.3 194.925c-12.934-7.89-15.91-23.668-6.467-34.79 3.62-4.398 4.397-6.855 5.82-16.426 2.845-20.83 11.898-49.8 15.52-49.8 2.845 0 2.586 2.97-1.94 19.01-2.975 10.73-4.786 20.82-5.303 28.58-.776 11.38-1.035 12.41-5.044 17.33-2.457 2.84-5.044 7.37-5.82 10.09-1.293 4.13-1.164 5.69.905 9.95 4.92 9.96 16.95 12.03 25.48 4.27 4.01-3.62 4.14-4.01 3.88-13.32l-.13-9.7 14.36-17.85c17.85-22.25 61.3-66.48 65.31-66.48 1.55 0 4.79-2.46 3.56-.26s-12.22 12.8-26.19 26.9c-14.09 14.223-28.19 29.1-31.3 33.11l-5.56 7.5 2.85 5.43c1.55 3.105 5.18 8.28 8.02 11.77 2.85 3.36 4.92 6.466 4.53 6.854-1.03 1.034-9.44-5.56-13.58-10.606l-3.49-4.27-4.52 5.43c-3.88 4.66-4.522 6.47-5.43 15.005-1.034 11.25-5.302 18.753-12.674 22.374-6.21 3.104-17.59 3.104-22.763-.13z"/>
    <path fill="#36792a" d="M215.273 191.045c-9.182-2.457-27.806-11.38-34.143-16.425-2.975-2.328-9.83-9.7-8.407-11.123 1.293-1.293 8.665 5.173 10.993 6.725 17.2 10.864 31.21 13.925 44.92 16.383 5.95 1.164 18.235 9.612 7.373 6.81-10.87-2.8-10.39.346-20.74-2.37z"/>
    <path fill="#b78b0b" d="M11.445 130.905c-2.328-.776-5.56-2.974-6.984-4.656-2.32-2.98-2.45-4.53-1.68-16.17 1.43-23.41 8.41-47.85 20.44-70.75 3.75-7.25 9.31-15.78 12.16-19.01l5.3-5.82 17.98 2.2c9.96 1.29 19.78 2.2 21.98 2.2 5.05 0 6.47 1.68 9.06 10.34 1.3 4.52 3.88 8.79 7.76 12.93 4.66 8.92 4.53 8.66.39 4.39l-4.27-4.4H81.03c-6.984 0-15.65.64-19.27 1.42-5.69 1.16-7.243 2.33-11.123 7.37C39.77 65.59 26.19 99.09 22.05 121.46c-2.198 12.29-2.328 12.418-10.605 9.44z"/>
    <path fill="#e2a313" d="M25.542 145.26c-1.68-.904-3.75-3.36-4.397-5.43-.517-2.2-1.68-4.915-2.328-6.21-.776-1.55-.517-6.077.905-13.06 5.69-30.913 25.738-72.558 37.508-78.25 2.456-1.293 9.57-2.07 19.787-2.457l16.037-.517 5.044 4.914c2.716 2.716 5.044 5.82 5.044 6.855s-4.915 9.183-10.864 18.107C77.275 91.976 76.498 93.4 78.31 95.598c2.328 2.716-2.716 13.58-6.467 14.097-2.328.258-3.88 2.845-7.63 12.674-4.397 11.12-5.432 12.67-10.476 15.77-3.104 1.81-6.337 3.49-7.243 3.49-.905.13-3.233.9-5.173 1.94-5.56 2.84-12.15 3.62-15.77 1.68z"/>
    <path fill="#020404" d="M219.93 189.622c-7.373-1.552-19.53-6.596-28.583-11.77-9.44-5.56-24.573-20.82-28.453-28.84l-3.104-6.08 5.56-7.112c6.726-8.665 42.94-46.3 51.734-53.673 6.208-5.173 6.467-5.303 8.924-3.104 4.656 4.14 14.356 25.09 17.59 37.765 5.043 20.176 3.75 39.447-4.14 59.105-5.95 14.873-7.63 16.037-19.53 13.71z"/>
    <path fill="#49a943" d="M137.717 243.037c-1.293-1.423-2.716-5.432-3.104-8.924-.517-3.492-1.423-7.372-2.07-8.666-.646-1.164-6.725-5.95-13.71-10.346-25.736-16.81-40.997-37.24-46.04-62.08-2.588-12.15-2.588-18.62-.26-31.04 1.035-5.3 1.552-10.86 1.164-12.28-.776-2.97 4.01-14.48 5.95-14.48.775 0 3.233-2.71 5.56-6.08 9.7-14.22 24.574-27.03 39.06-33.36 5.43-2.33 25.22-7.11 29.875-7.11.13 0 2.845-3.62 5.95-8.02 9.053-13.06 13.968-17.85 17.978-17.85 7.76 0 29.61 6.73 42.03 12.94 21.6 10.74 31.04 19.66 26.51 25.22-.91 1.04-5.69 4.14-10.48 6.6-7.89 4.14-11.19 9.96-13.26 9.375s-41.58 36.666-66.416 67.576l-12.025 15.13.26 9.05c.25 10.343-1.56 14.223-8.41 18.36-11.12 6.85-26.77-1.423-26.77-13.97 0-5.172 2.45-10.09 6.98-14.354 2.58-2.455 3.36-4.395 3.36-8.405 0-8.146 3.49-27.29 7.11-39.962 4.01-13.576 3.62-17.844-.52-6.85-4.4 11.9-7.63 24.834-9.7 38.54-1.68 11-2.59 13.454-6.47 18.5-2.46 3.36-4.92 7.76-5.3 9.96-2.33 10.602 6.59 23.15 17.59 24.83 15.91 2.2 25.73-6.728 25.73-23.28 0-6.6.52-7.89 5.302-13.58 2.844-3.495 6.077-6.34 6.983-6.34s-8.538-13.235 5.82 5.173 38.496 29.487 51.04 32.72c6.08 1.55 14.14 1.68 22.03 2.07l14.225.776 1.553 6.47c2.714 11.9 2.2 15.39-2.847 19.788-8.41 7.5-34.79 18.24-56.26 22.895-5.95 1.29-18.88 2.453-32.98 2.84-21.86.65-23.41.52-25.48-1.81z"/>
</svg>