<svg xmlns="http://www.w3.org/2000/svg" viewBox="0 0 442 591">
  <path d="M390 382l8 9c7 8 6 17 4 26-3 14-12 22-23 29l-17 7-17-1c-8 0-15 1-23 3l-5 1a85 85 0 0 0-43 2c-12 7-21 16-28 28l-2 5-5 13c-5 7-9 15-11 24l-11 7c-10 3-20 6-31 6-16 0-30-9-36-24-4-12-4-23 1-34 1-3 2-5 5-7l4-5 1 1-2 9c-1 2-2 5-1 9l9-12c4-5 8-8 13-11 1-1 2-3 4-2 1 2-1 3-1 4l-3 5 8 2 2 3-3 1h-3c-7-3-10 0-14 5l-12 14c-4 3-2 7-1 11l3 5c5 9 12 15 22 16 8 0 16-2 22-7 18-11 28-27 36-45-6 2-13 5-20 5h-11c-5-1-10-1-14-4 0-3 2-3 4-3 23 2 43-9 63-18 7-3 7-3 3-10-3-7-6-14-7-21-1-6-1-7 5-5 10 3 19 8 27 16 5 4 6 4 11 0 9-11 21-19 28-31 1-3 2-5-2-7-6-3-8-9-10-14l-8-4c-1-1-3-1-1-3h4c6 0 10-2 13-7 5-9 8-19 6-30-6 14-15 24-24 34-12 14-25 26-42 34-10 5-22 7-33 9-14 3-28 6-42 6-5-1-6 4-10 6-7 6-15 9-25 7l-5 1c-2 1-4 0-4-2l-1-3-1 1c-7-4-10-11-14-18 0-1 0-4-3-3l-3 3c-1 2 0 2 1 3 4 5 9 8 12 14 0 1 2 3 1 4-2 2-4 0-5-1-5-5-10-9-14-15-2-3-3-6-1-8 0-1 2-2 0-2-14-1-20-11-25-23v-2c0-1-1-3 1-4 2 0 2 2 3 3l2 4-3-8v-3c1-1 2 1 3 1l3 3c-1-2-3-4-1-5 3-1 4 2 6 3l-7-5c-3-2-5-2-7 1-1 1-2 3-4 2s-1-3 0-4c7-18 17-35 31-49l43-35c15-10 30-17 47-22 18-5 36-9 54-8 28 1 56 4 82 15l17 10c2 2 4 4 0 5-8-2-15-6-23-7-4-1-5-1-4 4 4 12 2 24 0 37-1 3-1 5 3 5 6 0 9 4 11 9 5-1 5-6 6-11l-2 7c0 1 0 2-2 2l-2-2v-3c0-12-3-23-6-35l-2-9 1-3c2 0 2 1 3 2l8 16v1l-1-9 1-4c2 0 3 2 3 3 3 8 4 15 5 23s2 15-2 22c-1 3 2 7 3 10 1 4 4 9 2 14-2 1-3-1-4-2l-5-12c0-2 0-4-2-4-2 1-2 3-2 5l1 10c0 2 0 4-2 4l-2-2c-2-5-4-10-4-15-1-6-3-9-11-9 2 5 4 9 4 14l2 3c2 1 3 2 0 4v2c2 2 1 3-1 4l-4 7c-2 4-5 8-9 9-2 2-2 3-2 5 2 5 9 9 15 8 2-1 4-2 4-4 1-2-2-2-3-3l-1-1c1-2 3-2 4-2 6-1 11-1 16-3 8-3 9-6 7-14v-4c2-1 2 1 2 3l4 5c4 4 2 8 0 11l-1 2c-4 4-10 6-17 6-3 0-5 1-6 5 0 2-1 4-4 5-7 2-10 8-12 14l-1 3c-3 7-8 12-13 16l-4 3-5 5c12-1 23 2 35 0l19-2c5-1 11-3 15-7 7-4 12-10 14-19 1-6 1-11-1-16l-3-6c-2-5-6-9-10-14-1-1-4-2-3-5s1 0 1 0l14 9z"/>
  <path fill="#25430A" d="M73 173l2-3c2-2 4-2 6-2 12 0 23-2 34-8 9-5 19-9 29-11h5l3 2c-1 4 4 6 4 11l4 1c2 0 4-2 4-5l1-2c3 1 4 1 4-3l-3-6c-1-1-3-2-2-5h2c12-1 22-5 33-8l14-4 2-1c6 2 12-1 18-2 4 2 8 4 13 4h11c-3 3-6 0-8 1 6 0 12 3 18 6 20 7 37 19 52 35 13 15 21 31 29 48 4 8 7 16 13 23 4 4 4 10 6 14 2 2 1 4 1 6v2c-3-2-4-5-5-7-6-12-15-21-25-30l-10-10-11-20c-4-6-8-11-13-15-18-13-36-25-56-32-12-5-23-5-35-3l-30 6c-4 0-4 3-6 6 0 2-2 2-3 3l-5 2c-4 6-10 5-16 5l-4-2c-2-2-4-2-6-1-16 8-31 17-45 28l-11 14c-9 13-14 27-20 41-7 21-5 42-3 63l2 14c0 4-2 7-3 11l-5 21c0 3 0 8-6 7 1-2-1-3-2-4l-12-24c-4-9-5-19-7-28-6-34 1-66 15-97 5-11 13-19 18-29 3-5 5-9 9-13z"/>
  <path fill="#FDF001" d="M107 35l4-1 9-8a191 191 0 0 1 99 2l4 3-1 2c-7 3-7 10-9 16l-3 9c0 1 0 2-2 2l-2-2-2-7c0-3-2-5-4-8l-4-16c1 3 2 7 1 11 0 3-2 3-4 3-7 1-10 5-11 12-1 13 1 25 5 37 1 5 1 5 6 3 3-2 5-1 5 4l-4 2c-10 1-20 4-30 7-2 1-4 2-6 1-3-1-2-3-2-5l7-19c4-7 4-16 4-24l-2-12c-1-3-2-3-4-1-7 6-14 14-15 24-1 12-3 26 4 37l1 2c0 2-2 2-3 3l-41 19h-1c-4-1-4-5-5-7l-8-13c-1-2-4-3-7-4l-5-4c-4-9-10-18-18-25-2-2-2-5-3-7s0-4 2-5l17-12c4-2 8-4 10-7l18-12z"/>
  <path fill="#E2D700" d="M201 44c5 3 3 9 6 13 0 1 0 2 2 3l5-18c1-5 4-8 9-10 2-2 4 0 5 1l5 3c3 1 7 1 9 5-3 2-5-3-8-1 2 2 5 1 7 2-7 6-7 14-10 23l8-9c1-2 3-3 5 0l-5 21c-1 7 0 14 1 21v2h-1c-5 1-10-2-15-2l-21-1h-5c-1-3-2-6-5-2-3 3-6 2-7-2-2-8-5-17-6-26l1-18c1-5 7-9 12-9 1 0 3 1 3-2 2 0 2 2 2 3l2 14c1-3-2-7 1-11z"/>
  <path fill="#6F5903" d="M149 150c-1 0-3 1-4-1-14 0-25 4-35 13-3 3-6 4-10 3H89c-1 0-3 1-4-1-1-1 1-2 2-3l22-15c20-10 41-17 62-23a158 158 0 0 1 63-7c-9 0-19-3-28-2-1 0-3 0-3-2 2-3 5-2 8-2h10l21 1c2 2 1 5 1 7l-2 2c-7 1-13 3-18 7-3 2-6 2-8 2-16 3-32 9-47 14h-5c-10-3-9-2-14 7z"/>
  <path fill="#213E08" d="M362 351c-3-5-5-9-2-14s1-11 1-17c-1-8-2-16-5-23 0-2 0-3-2-4 0 6 2 11 1 18-3-9-7-16-11-24 2 17 9 33 7 51h2l3-13c3 9 2 13-7 19-2-10-4-11-14-11-3 0-2-1-1-3l3-19c1-8 0-15-2-23-2-4-1-5 4-4a100 100 0 0 1 26 8c2 1 1 3 1 4 1 3 4 4 6 4 2 1 4 0 5 2-1 2-6-1-5 4l4 24c1 6-1 12-1 18 0 1 0 2-2 3-2-4-2-8-2-12l-3-14-3-18 1 12c3 9 1 18-1 27-1 1-1 4-3 5z"/>
  <path fill="#020202" d="M367 259l-3-6c-3-9-9-15-13-23l-14-28c-10-19-24-34-41-48-13-10-29-15-45-21l-5-1 11-1c19 2 35 10 49 22 17 13 32 30 41 50 7 17 15 34 20 52v4z"/>
  <path fill="#040403" d="M233 36c-3-1-6-4-10-4l-29-8c-22-4-43-1-65 2-3 0-6 2-9 0 7-6 17-6 26-8 17-3 35-2 53 1 13 2 24 8 34 17z"/>
  <path fill="#2B4D0B" d="M365 296c1-2 0-3-1-3 2-2 3-3 1-5-2 0-3-1-4-3-2-3-2-5 2-7 3-2 6-4 6-9-1-1-2-2-1-3v-1h3c2 0 3-2 4-4 3-2 5-1 6 1v1c2 10 3 21-1 31-3 6-11 7-15 2z"/>
  <path fill="#030303" d="M365 296c8 4 14 2 15-6 2-8 2-17 1-25-1-5-2-5-6-1-1 0-2 2-4 1l4-6c2-5 5-5 8-1l3 6c3 10 3 19 1 28-2 5-4 9-10 10-5 0-9-1-13-4-1-2-1-2 1-2z"/>
  <path fill="#32580F" d="M362 351c5-16 5-32 2-48 2 16 10 31 9 48 2 3 0 6-1 9l-2 5-1 2c-2 0-1-2-3-2h-1c0-5-2-10-3-14z"/>
  <path fill="#E2A402" d="M242 112h-21c-2-1 3-2 0-2l-9-5c-2-1-4-3-1-5h29c1 1 4 0 5 2-1 3-1 7-3 10z"/>
  <path fill="#040404" d="M166 143c17-7 34-13 51-15l6-3c6-3 11-7 18-5l-8 7c-3 1-6 4-9 4-19-1-36 10-55 12h-3z"/>
  <path fill="#080806" d="M79 54c-3 6-10 7-14 11-2 2-5 3-5 5 1 2 2 5 4 6 8 8 14 17 18 27-2 1-2 1-4-1l-6-8-10-13c-2-3-4-2-7-3v-1c2-2 4-2 2-6-2-2-1-5 2-6 6-3 9-8 16-10l2-2c1-1 1-2 2-1v2z"/>
  <path fill="#FAF004" d="M55 78c4-2 6 0 8 3l9 13c-2 1-3-1-5-2l-7-5c-2-1-3-1-3 1 0 3 2 6 0 8s-5 1-8 1c-2 0-5-1-6-3v-2c2-7 7-13 12-14z"/>
  <path fill="#050505" d="M370 365c-2-2 0-3 1-4l2-10c2-7 2-13 2-20l-4-24 1-1c9 17 11 35 2 54l-4 5z"/>
  <path fill="#FBF003" d="M243 56c-4-1-5 2-6 4l-7 8c0-5 2-9 3-12l1-6c1-5 3-7 7-7l2-2c6 1 6 3 3 9-1 1 0 5-3 6z"/>
  <path fill="#0B0B05" d="M243 56l3-6-5 40-1 8c-4-6-3-13-3-19 1-8 4-16 6-23z"/>
  <path fill="#EFEFEF" d="M371 383c2-3 3-6 2-10 1 0 2-1 3 1 2 5 7 8 10 13 1 1 4 3 3 6h-1l-17-10z"/>
  <path fill="#F6ED06" d="M42 96l1-1c2 0 3 2 4 4-2 4-4 8-3 13 0 1 0 3-2 3-3 0-6-1-8-3l3-5c2-1 1-4 1-5 0-3 1-5 4-5v-1z"/>
  <path fill="#0D0D0C" d="M107 35c-4 6-11 9-18 12l-1-1c6-7 14-12 22-16l-3 4z"/>
  <path fill="#100C06" d="M46 99l-3-4-1-1h2l5 3c7 2 10 7 13 13v2h-2c-6-4-11-8-14-14z"/>
  <path fill="#1C1C1B" d="M55 78c-6 2-8 9-11 14-1-7 3-14 9-16 1-1 1 0 2 1v1z"/>
  <path fill="#1C1B0F" d="M42 96c-4 3-3 7-3 10 0 2-1 2-2 1l-1-4c-2-7-1-8 6-7z"/>
  <path fill="#17150D" d="M34 112c3 0 5 2 8 3l1 1-2 2c-4-2-7 0-11 1h-3c1-4 4-5 7-7z"/>
  <path fill="#0A0908" d="M242 112c0-4 1-7 3-10 1 6 1 11-2 16-2-2-1-4-1-7z"/>
  <path fill="#110F07" d="M243 42l-2 1c-3 1-6-3-10-1 2-4 4-6 7-3l4 2 1 1z"/>
  <path fill="#020203" d="M368 266l2 3c0 2-1 1-2 1l-4-3-19-21-26-23a137 137 0 0 0-111-21l-15 3c-19 4-34 13-49 24-25 20-45 43-59 71l-13 31-12 32c-1 3-3 5-6 7-6 6-6 8 1 13l5 3c9 4 15 2 22-7 0 0 1-2 2-1l1 3c0 4-2 7-6 10-2 2-2 4 0 6l7 9 18 20c6 7 13 11 22 11l8 2v2c-3 3-8 0-11 3l2 3c0 2 2 5-2 4-2-2-5-3-4-7 0-1 0-2-2-2-12 0-18-9-25-17s-13-18-17-28c-1-2-2-3-5-3-8 2-15-1-20-6-9-7-8-15 2-20 3-1 4-2 4-5 2-12 5-24 9-35-1-5 2-10 4-14 10-27 26-50 45-72l12-10 14-11c15-13 32-21 51-25 15-3 30-6 46-7a136 136 0 0 1 85 24l7 6 8 7c13 11 24 24 31 40z"/>
  <path fill="#505050" d="M156 476c-9 14-10 29-3 43 8 16 24 24 41 20 12-2 24-5 34-11 4-4 8-5 13-7 2 2 1 4 0 5l-3 6c-1 2 1 3 2 4 1 2-1 3-3 3l-14 5c-6 4-13 6-18 10-1 2-3 2-5 1l-19-1c-7 0-12-4-18-5l-5-1c-4-1-6-3-7-7l-8-13c-2-4-1-35 1-39l2-4c3-3 5-8 10-9z"/>
  <path fill="#FBA503" d="M210 101c3 5 9 7 14 9l-3 1-18 1c-1 2-3 2-4 2-34 7-67 16-96 35-7 4-14 10-20 16-3 4-7 4-11 0l-4-4-1-1v-2l5-4 2-2 15-9c30-16 60-31 93-40l23-4c1 0 3 0 5 2z"/>
  <path fill="#020202" d="M73 173l-8 13c-6 11-15 21-19 33-8 19-14 37-15 58a132 132 0 0 0 18 81c1 1 2 3 1 5a76 76 0 0 1-23-42c-9-40-2-78 16-115 6-13 17-23 27-32l3-2z"/>
  <path fill="#545454" d="M362 452c9-4 18-8 26-15 12-9 17-26 12-41l-2-5c8 2 12 8 16 14 3 4 5 9 4 14l-5 12-8 13c-2 3-4 5-7 6-4 2-6 6-11 8-3 1-6 3-10 3h-3c-7 5-15 3-23 4l-5 2-10 1c-2 0-3-2-3-4 1-2 3-3 5-3l10-2c8-2 15-2 23-5 0 0-1-1 0 0h-1c-3 1-6 1-8-2z"/>
  <path fill="#C7C7C7" d="M146 485c-3 10-2 21-3 31l1 14 2 6c1 10 7 15 15 18l35 13c0 1 3 0 3 2l5 3c-4 3-9 2-14 3-13 3-38-6-43-17-8-20-16-40-6-62 1-4 1-9 5-11z"/>
  <path fill="#040303" d="M68 161c3 0 5 2 6 4 3 3 5 2 7 1l5-6c14-13 30-21 47-28 20-8 40-14 61-19h9c11 0 22 0 34 4-57-2-106 16-151 47 5-1 11-1 17 1 2 1 4-1 5-3 10-9 21-15 35-13l2 1c-13 2-24 8-35 14-9 4-20 6-30 5l-5 1c-3-3-6-5-7-9z"/>
  <path fill="#E0E0E0" d="M410 462c-8 8-19 14-29 20l-2 4c0 4-2 6-5 7l-47 14c-10 3-20 6-29 11-4 2-5 7-9 9-2-2-7-1-7-5 0-3 4-4 6-5 11-6 23-10 35-12 8-2 15-5 21-10 13-5 24-13 35-22l8-5c4-1 7-4 11-6l7-3c2 0 5-1 5 3z"/>
  <path fill="#A1A1A1" d="M199 569l-3-1c-1-2 0-3 1-4 12-8 23-16 35-21 4-2 7-3 10-6l3-2c3 0 5-4 8-1v2c-4 2-4 6-5 10-4 10-12 16-21 19s-19 2-28 4z"/>
  <path fill="#C9C9C9" d="M344 496c-5 6-13 8-20 10l-20 4a482 482 0 0 0-21 12c0 2 1 2 3 3 1 0 3-1 3 2l-3 3c-5 4-12 6-18 9-2 1-4 3-6 1s-2-4 0-6c5-6 8-13 13-18l5-3c10-6 22-9 33-12l7-2 19-5c2 0 4-1 5 2z"/>
  <path fill="#050505" d="M123 451c3-1 0-3 1-4 3 0 3 2 4 4l4 10c3 5 6 6 12 5l10-6 3-2h4c1 1 0 2-1 3l-1 2c6 1 12-2 15-8l3-11c0-1 0-4 3-4 3 1 3 4 3 6 1 4 0 8-1 11-2 7-8 11-14 12l-8 3v-1c0-1 1-3-2-2-2 0-5 1-7 3-1 2-3 3-6 4 2-4 1-5-3-4-9 1-13-2-15-12 0-3-1-7-4-9z"/>
  <path fill="#D9D9D9" d="M262 540c2 1 4-2 6-1 0 3-3 5-5 7-4 5-7 11-12 15-5 3-19 6-24 5 4-3 8-5 11-9 4-3 8-6 9-12 3 2 5 1 8-1l7-4z"/>
  <path fill="#060606" d="M67 159v1l-8-8c-11-8-21-18-29-30v-3l7 5c11 7 20 16 27 27 2 2 4 4 3 8z"/>
  <path fill="#CACACA" d="M410 462c-2-3-4-1-7 0-1 0-3 2-5 1 0-4 3-6 5-8 4-3 6-6 7-11l8-14c1-2 2-4 5-4-3 13-3 26-13 36z"/>
  <path fill="#EEE" d="M251 561l17-22 18-9c2 2 3-2 6-1l-7 5c-10 6-19 15-28 24-1 2-4 2-6 3z"/>
  <path fill="#6E6E6E" d="M423 426l-4 5c-2 0-2-2-3-3v1c-2 6-4 13-12 15 2-5 6-9 7-14 2-5 6-10 6-16l-3-9c9 4 10 13 9 21z"/>
  <path fill="#F8EE04" d="M37 125c-3-1-5-3-7-6 3-3 6-5 10-2 4 0 8 0 9 5 1 3 0 5-3 5l-9-2z"/>
  <path fill="#233F09" d="M346 246l20 21c1 1 2 4 4 2 1 4-1 7-5 9-5 4-6 6 0 9 2 2 2 3 2 5l-3 1-1-1c3-1 2-2 0-3-8-7-18-11-28-15-20-6-40-8-61-10a184 184 0 0 0-108 29 362 362 0 0 0-56 49c-9 11-15 23-20 36v2l1-1c5-6 5-6 12-1a457 457 0 0 1-1 1c-1 4 2 6 3 10l-8-8h-1l7 14c-4-3-6-6-8-10-3 12 12 27 27 27 0 2-1 2-3 3-3 3-6 1-9 0l-14-7 8 14c0 1 1 3-1 4l-18-20-9-11c-1-2-1-3 1-4 5-4 6-6 7-13-2 6-6 8-11 10-4 1-9 1-14-2 1 0 3 0 2-2 1-1 2-2 0-3l-3-3-5-9c7-5 7-14 11-21l7-17c4 0 7 2 11 1 2-1 4 1 4 3l2 7c2 3 3 4 6 1l1-2c16-20 35-36 54-51 12-9 25-15 38-22a173 173 0 0 1 122-10c8 2 17 4 25 4 3 0 5 0 5-4 0-2 3-2 5-3-3-3-3-6-2-9 0-4 3 1 4 0z"/>
  <path fill="#FEFEFE" d="M251 342c3 7 7 10 13 10 5-1 10-4 11-9 1-6-1-12-7-15-2-2-1-2 0-4l10-12c9-11 17-21 21-34 0-4 2-4 5-4 6 1 9 3 10 9l6 24c3 13-1 25-9 34-8 10-19 16-31 20-10 2-20 1-29-2l-6-3c-5-3-5-4-1-8l7-6zm-89 68c-15 0-28-10-39-22-4-4-7-9-9-14-2-4-4-6-7-5l-4-1-2-2 2-2 6 1c10 5 21 4 32 4 12 0 24-2 36-4 3 0 4 0 4 3 1 8 9 15 15 15 10-1 16-10 12-19-1-3-1-4 2-5l14-2c3 0 4 1 2 4-7 20-22 32-39 44-7 4-14 5-25 5z"/>
  <path fill="#213E08" d="M180 458c2-5 3-10 1-16l-2-2c0-3 2-5 1-9 5-7 13-6 20-7 18-1 35-5 53-9 22-7 38-22 54-38l1 3c1 4 5 4 7 5 1 0 3 0 3 2-1 1-2 4-4 4-8 2-11 8-17 13l-12 9-4 3c-3 3-3 5 1 7 6 3 11 7 16 12l4 5c-5 6-7 6-13 1-8-9-19-14-31-18 1 11 5 21 11 31 2 2 2 3-1 4l-5 2c-5-3-7-8-8-13-2-12-10-14-19-13-12 1-24 5-32 15-1 2-3 4-6 3-2-3-1-7-1-10 0 5 0 10-3 15-3 1-5 0-7-2-1-3 3-6 2-10-3 4-6 9-6 15-2 1-2 1-3-2z"/>
  <path fill="#FEFEFE" d="M180 458c2 0 0 3 2 2 1-3 2-5 5-6 2 1 4 3 7 3 2 2 1 4 1 6l-1 14 1 2 14 4h7c3 0 3 2 2 4-4 5-6 11-7 17-1 2-2 4-4 2l-8-6c-5-4-11-6-18-6h-14c8-1 15 0 22 2 3 1 5 1 7 3 0 5 2 7 7 9 3 1 5 4 4 6l-2 10c-10 9-30 13-42-2l-4-6-3-12 1-5 17-20c2-2 3-2 6-2l10 3c-4-4-8-5-13-5l7-9c-5 2-8 5-12 8l-13 17c0 1-1 2-2 1-2 0-1-1-1-2-1-7 3-12 4-18 2-2 2-4 5-4 7 0 13-3 15-10z"/>
  <path fill="#33590E" d="M195 479h-2c-1-4 2-7 3-11 0-4 2-8 1-12l2-4c3-1 4-3 5-5 9-10 20-13 32-15 8-1 15 2 19 9l1 3c0 6 3 11 7 16-15 8-32 15-49 18h-14l-5 1z"/>
  <path fill="#FEFEFE" d="M392 398c5 14 1 28-13 37h-4c-3-1-3-3-5-5-7-7-16-10-25-11h-10c-2 0-5 0-4-3l2-6c1-4 3-8 8-8 4-1 7-4 7-9 0-1-1-3 2-3 8 1 15-1 21-6 2 0 4 1 5 3 5 4 11 6 16 11z"/>
  <path fill="#33590E" d="M302 440c-3-1-4-4-6-6-4-4-9-8-15-10-5-2-5-5-1-8l10-8 14-13c1-2 3-3 6-4 3 0 6-2 8-4 2 6 5 13 13 15 3 1 1 2 1 4-4 7-10 14-16 20l-14 14z"/>
  <path fill="#FDFDFD" d="M180 431c3 4 1 7-1 10-1 4-1 9-3 13-4 8-11 12-20 9l5-5v-1l-10 7-8 3c-6 1-9 0-12-6-3-5-3-10-7-15l-2-2c-2-2-2-3 1-3l10-1c2-1 4 0 6 1l1 2c3 0 2-7 7-6v4c4-4 8-2 11-2 9 1 16-2 22-8zm187-63c3 8 2 12-7 15-3 2-6 2-10 3l-10 1 2 1c1 1 4 1 4 3-1 2-1 4-4 5-7 3-17-2-19-9l-1-3c7-2 11-7 13-14 1-4 5-3 6-5 0-3-6 0-3-4l5-3c-5 0-6-2-6-6 0-5-3-9-6-13 7-3 14 2 15 9l5 18 4 2c3 1 6 0 9-1l3 1zm-54 69l14-13 3-6c11 0 22 3 33 8 4 1 9 3 10 9-2 3-5 1-8 3l-25 2-25-2-2-1z"/>
  <path fill="#FCFCFC" d="M205 525c0-3-1-6 1-9 1-3-1-7-5-7-5-1-6-5-6-9 6-1 9 4 13 7 3 1 2 4 3 6 1-10 4-19 8-28 0-2 1-2 2-2 8 0 15-4 22-6v2c-10 17-19 34-36 45l-2 1z"/>
  <path fill="#2F2F2F" d="M241 522l-13 6c1-7 2-13 6-18 5-6 7-13 10-20 4-10 10-19 19-25 3-2 6-6 10-7 0 6-1 11-6 15-3 3-1 5-1 8 0 2-2 4-4 5-7 3-11 9-15 16-3 4-5 10-4 16l-2 4z"/>
  <path fill="#444" d="M265 481c-2-4-2-7 2-10 3-2 5-5 4-9l2-5c2-1 4-2 6-1l32 1 24 2c1 0 3 1 2 3l-4 2-20 2c-11 0-22 3-32 8-6 1-11 4-16 7z"/>
  <path fill="#2F2F2F" d="M337 462c-4-3-8-2-12-3l-43-2-3-1c13-4 25-5 38-2 3 1 5-1 8-1 13-3 25-2 37-1 3 2 7 1 10 3-11 3-23 6-35 7z"/>
  <path fill="#33580E" d="M103 427c-1-9-6-15-10-22 4 4 11 4 15 8 3 2 7 3 11 3-1 2-1 4 1 7a76 76 0 0 0 14 15c-9-1-18 1-25-6l-6-6z"/>
  <path fill="#A70102" d="M308 380l-1-3c9-11 19-22 23-36 2 1 2 3 3 5 1 11-2 21-8 30-4 5-10 7-17 4zm-125 46c-10 3-19 7-29 8-6 0-9-1-10-7 0-4-2-7-6-9l45 8z"/>
  <path fill="#A40304" d="M367 436l6-1h6c-7 6-17 7-26 8-15 3-31 1-48 0l9-6c18 3 35 4 53-1z"/>
  <path fill="#223E09" d="M134 439v-1c1 0 1 2 4 1-3-7-9-12-14-17-1-1-4-2-2-4s3-5 7-5l1 1c3 9 8 16 14 22-1 3-3 4-5 5l-6-1 1-2z"/>
  <path fill="#29470B" d="M367 368h-3c-4-2-7 0-11 2-2-1-2-3-2-4 2-5 1-10 0-14 0-2-2-4 0-5s2-3 4-3c2 1 2 2 2 4 2 6 3 12 8 17h1l1 3z"/>
  <path fill="#0C0C0C" d="M375 435h-2c-1-4-6-6-10-7-9-4-18-7-28-8l-5-2 1-2c-1 3 2 2 3 2 8-1 15-1 22 2 8 3 15 7 19 15z"/>
  <path fill="#0D0D0D" d="M221 483c-2 0-2 2-3 4-2 10-6 20-6 32-4-4-1-9-5-12v-1c1 0 2 2 2-1 1-8 5-14 9-21-3-1-6 1-9-1h12z"/>
  <path fill="#0C0C0C" d="M392 398c-8-3-14-9-21-14 7 0 13 5 18 9 1 1 4 2 3 5z"/>
  <path fill="#EFEFEF" d="M257 316c-4 9-10 16-19 21 5-8 12-15 19-21z"/>
  <path fill="#E7E7E7" d="M207 348c-8 4-16 6-25 5 8-4 17-5 25-5z"/>
  <path fill="#7F7F7F" d="M157 499c0 5 3 11 2 17l-4-11c-2-3 1-5 2-6z"/>
  <path fill="#1C1D1D" d="M139 441l5-5 2-1 1 3-3 2c-1 4-3 5-6 5-1-1 1-2 1-4z"/>
  <path fill="#375F0F" d="M277 194c-12-2-24-5-36-4-28 2-55 5-80 18-11 5-21 14-31 22-1 1-2 3-4 3-6 2-10 6-17 8-4 2-9 1-12-2-2-3-2-5 1-7l6-7c5-8 10-17 17-24l17-18c2-2 2-3 2-5-1-3 1-5 4-4 4 1 7-1 9-4h1c5 0 11 2 15-5 1-3 6-2 8-4 3-4 6-5 11-4l40 5c12 2 23 7 34 11 6 1 9 6 8 12 0 3 1 5 4 5 2 1 4 1 3 4z"/>
  <path fill="#30560E" d="M153 170c-1 5-3 7-8 5-4-1-5 0-4 4l-1 4-19 20c-5 4-8 9-10 13-3 4-7 8-8 13 0 2-2 3-5 4-2 1-2 2-1 4 3 4 8 5 12 3l13-7c2-1 3-2 4 0l-20 20c-13 18-26 35-34 56l-7 19-3-17-1-27c-1-17 5-33 11-49l11-21c7-13 18-22 30-30l29-16c3-2 6-3 9 1l2 1z"/>
  <path fill="#2D4F0B" d="M329 219l-7-5-4-6-7-2c-4-2-7-5-12-5-1 0-2-2-1-4l1-3c0-2 2-4 1-6s-4 1-5 0c-4 0-8-1-10-4l-6-5c-3-2-5-3-2-7-6 4-11 0-15-2-5-3 0-5 1-7h-6c-7 3-14 2-19-4-3-3-6-4-9-3-4 0-7 0-10-3s-6-1-8 0c-9 3-18 4-26 2l-2-1 33-7c22-4 41 6 59 16 11 7 23 14 33 22l10 12 11 22z"/>
  <path fill="#2D4F0B" d="M183 155l23-1 5-2c4-2 8-3 10 1 1 2 3 2 4 2 6-1 11-1 15 5 5 6 12 4 18 2l4-1 4 2c0 2-2 2-3 3l-2 2 2 1 6 3c1 1 3 1 5-1h5c1 0 2 2 0 2-4 2-3 3 0 4l7 6c4 4 7 5 12 2l3 1 1 3c-3 3 0 7-3 9-1 1 0 2 1 2 6-2 8 4 13 5 3 1 3 2 6-1-1 4 2 6 3 10-14-10-29-15-45-20 0-3-3-2-5-2-2-1-4-1-3-5 1-7-2-12-9-14-10-2-19-7-30-9-13-2-27-3-40-6-5 0-9 0-13 3 1-4 1-7 6-6z"/>
  <path fill="#040404" d="M149 150c1-10 7-13 15-7 2 4 6 6 6 11 0 2 1 4-1 5s-2-2-4-2c-3-2-3-5-4-7 0-1 0-3-2-3l-4 2c-1 1 1 2 2 3 2 3 2 7 7 7 1 0 2 0 1 2-1 4-8 5-11 2v-2l1-1c-5-2-3-8-6-10z"/>
  <path fill="#6C5806" d="M164 159c-3 1-6 2-7-3 0-2-1-4-3-5-3-1-2-3 1-4l4-2c2-1 3 0 3 2 0 4 2 7 3 9l-1 3z"/>
  <path fill="#FEF100" d="M164 38c-6 0-9 5-12 9-3 3-5 6-5 9l-2 3c-9 7-6 16-5 25 1 8 0 15-1 22l-1 2c-8 1-11 11-20 9-3-1-4 1-4 4 0 1 1 3-2 3-2 0-6 1-6-3 0-3-1-3-3-3-2-1-3-4-4-6 0-2-2-3-4-5l-10-8c-2-1-1-5-1-7 0-4 0-8-6-8l-2-2c0-4-2-6-5-7-2 0-3-1-3-2 0-2 1-3 3-3 3 0 5-2 5-5 0-2 2-3 4-3l4-4c1-5 4-5 8-4 4 0 7 0 9-5 1-5 8-6 10-11h5c4 0 7-1 7-5 1-3 3-2 6-3l26-1c11 0 23-1 34 1 3 0 5 1 5 4 0 2-2 3-4 3h-1c-9 2-11 4-11 13 0 13 0 26 3 38 1 4-3 6-5 7-2 0-4 1-5 3-2 1-3 3-6 1-1 0-2-1-2-3s1-4 4-4c2 0 2-1 2-2 1-16 4-31 0-46v-1c2-6-1-6-5-6z"/>
  <path fill="#E2D700" d="M37 125h9c2 1 3 0 2-2-1-4-4-5-8-6 1-1 2 1 3-1l-1-1 1-2c-2-6 0-10 3-15l16 15c-2-8-7-12-13-16 6-1 9-3 6-10-1-3 2-4 5-2l8 6c2 1 3 3 5 3l7 8c1 1 1 2 2 1l3 2c8 2 12 9 16 15l4 10c1 2-1 3-2 3l-22 14-1 1-4-2c-1-1-2-3-4-2v10c-1 2-2 4-5 4-5-12-15-22-26-31l-4-2zm113-15c-4-7-6-13-6-21 1-8-1-17 2-25 4-8 9-15 16-21 2-2 4-2 4 1 1 11 4 21 1 32-1 6-3 10-6 15l-4 14c-1 1 0 1 1 2-2 3-4 4-8 3z"/>
  <path fill="#050404" d="M150 110l8-3c13-5 27-8 40-10 14-3 28-1 42 3-1 2-3 1-4 1h-26c-15 0-29 3-43 8a427 427 0 0 0-90 44h-4c0-3 3-5 6-6l26-16 45-21z"/>
  <path fill="#1B1806" d="M201 44v13c-3-6-4-12-5-19V27c4 5 4 11 5 17z"/>
  <path fill="#0C0A04" d="M214 84c-1-16 4-30 13-43l-13 43z"/>
  <path fill="#050703" d="M378 279c0 3-1 4-3 5-2 0-2-2-2-3 0-2 1-4 4-4l1 2z"/>
  <path fill="#33590E" d="M346 246c-1 3-2-2-4 0v6c1 0 1 3 3 1h2c1 1 0 1-1 2l-2 1c-3 1-6 3-3 7-9 2-17 0-25-2l-38-8c-12-1-25-1-37 1l-30 6c-14 3-26 11-39 18-7 4-15 7-21 12-21 16-41 33-56 54-3 4-6 3-8-1-2-5-1-14-11-9-1 0-4-1-5-3a191 191 0 0 1 51-84c12-12 25-23 40-32a238 238 0 0 1 81-18l25 3a137 137 0 0 1 78 46z"/>
  <path fill="#32570E" d="M53 370c5 1 4 5 5 9l3 6c1 2-1 1-2 2l-6-4c-6-5-6-8 0-13z"/>
  <path fill="#707070" d="M242 538l-4 5-1 1c-8-3-13 5-19 7l-20 14-2 3c-9-2-17-7-25-10l-10-3c0-3-2-5-3-7 6-1 12 2 17 4l6 1 20 1h3c9-7 19-11 29-16 1 0 3-1 4 1 2 0 2-1 3-2 1 0 2-2 2 1z"/>
  <path fill="#5A5A5A" d="M242 538c-3-2-3 3-5 2l-1-1h1l3-3c-1-2 0-3 1-4 8-7 12-16 14-26 1-5 4-9 3-14 0-3 2-5 4-6l3-5c4-5 10-7 16-7h1c2 3-1 11-4 12-2 2-4 3-5 6l-5 13c-2 2-2 4-2 7l-3 4c-4 2-7 5-9 9-2 5-5 8-9 12l-3 1z"/>
  <path fill="#3B3B3B" d="M262 486l-6 21c-3 11-8 21-16 28-3 2-5 1-3-3l3-6c1-1 2-3 1-5-1-15 7-26 17-35l4-1z"/>
  <path fill="#616161" d="M158 548c3 1 4 3 3 7-11-3-17-11-17-25l7 8c1 4 3 8 7 10z"/>
  <path fill="#F9F003" d="M79 148l-6 6-1 1c-2-3 0-7-2-10l2-3 2 1 5 4z"/>
  <path fill="#646464" d="M266 512c-1-3-2-4 1-7 3-4 5-9 6-14 0-3 2-5 5-5 3-1 3-3 3-4-1-3 3-6 0-8 6-6 15-7 22-8 10-2 20-3 30-2 3 3 4 1 7 2 4 1 6-2 9-2s6 0 9-2c2-1 3 2 6 2 5-1 8-5 13-3 1 1 0 2-1 3-3 1-1 2 0 3-2 4-6 5-10 7l-9 1c-8 2-17 2-26 3-8 0-15 3-22 6-10 5-21 10-30 17l-8 8c-2 1-3 3-5 2z"/>
  <path fill="#8B8B8B" d="M375 467l-3-3c1-1 5 0 5-3 11-3 19-10 27-17 7-4 9-10 12-17l3 4c-3 4-4 10-9 14-3 0-5 2-7 4-7 7-16 11-23 17l-5 1z"/>
  <path fill="#A2A2A2" d="M375 467c9-4 15-11 23-14l9-8c1-2 2-3 3 0 1 5-2 8-5 10l-7 8c-3 2-6 5-11 6-3-2-5 0-8 1-2 1 2 3 0 4-10 9-21 18-35 22-4-2-8-1-10 1-7 2-13 2-19 5-11 4-23 5-32 12h-3c0-3 1-5 4-6 8-5 15-12 22-18 4-4 10-6 14-5 8 0 15-4 22-5l7-2c3 0 6-1 8-3 1-2 2-2 4-2 5 0 10-2 14-6z"/>
  <path fill="#858585" d="M379 474c-3-3-3-4 1-5l6-2c3-1 1 1 1 2l-8 5z"/>
  <path fill="#8A8A8A" d="M357 475c0 4-4 4-6 4-6 0-11 2-17 4-5 3-11 2-16 3s-10 4-14 8c-7 5-12 12-20 15-3 1-2 4-4 5l-4 3c-7 5-14 9-20 16l-3 2c-3-2-5 1-8 2l11-16c2-4 7-7 10-9 5-3 8-8 12-12 8-6 16-11 25-15 14-7 29-10 44-10 3 0 6-2 10 0z"/>
  <path fill="#BCBCBC" d="M253 535c6-8 14-14 23-18-5 5-8 12-13 18-1 1-2 3-1 5-3 4-7 6-11 8-3 1-2-2-4-2 1-5 2-9 6-11z"/>
  <path fill="#080E04" d="M61 385c-3-1-5-3-3-6 3-2 4 3 6 2 1 3-1 3-3 4z"/>
  <path fill="#050604" d="M199 452c1 9-2 18-6 27-3-1-1-3-1-4l2-18 2-17c3 4 2 8 3 12z"/>
  <path fill="#050704" d="M187 455l-5 5c0-7 3-12 9-17 0 5-1 8-4 12z"/>
  <path fill="#0A0A0A" d="M207 506v1l-12-7c-8-4-16-4-25-5h-5c16-5 32-3 42 11zm167-117c-9 8-14 18-21 27 1-12 10-24 21-28z"/>
  <path d="M353 370c4-5 8-5 11-2-3 2-7 3-11 2z"/>
  <path fill="#110B0B" d="M367 436v2c-17 4-35 4-52 0l-1-1c18 2 35 1 53-1z"/>
</svg>
