<svg width="260" height="260" xmlns="http://www.w3.org/2000/svg">
  <path fill="#36792a" d="M115 195c-13-8-16-24-6-35 3-4 4-7 6-16 2-21 12-50 15-50s3 3-2 19c-3 11-5 21-5 28-1 12-1 13-5 18-3 3-5 7-6 10-1 4-1 6 1 10 5 10 17 12 25 4 4-3 5-4 4-13v-10l15-18c17-22 61-66 65-66 1 0 5-3 3 0l-26 26-31 34-6 7 3 5 8 12 5 7c-1 1-10-5-14-11l-3-4-5 6c-4 4-4 6-5 15-1 11-6 18-13 22-6 3-18 3-23 0z"/>
  <path fill="#36792a" d="M215 191c-9-2-28-11-34-16-3-3-10-10-8-12 1-1 8 6 11 7 17 11 31 14 45 17 6 1 18 9 7 6-11-2-10 1-21-2z"/>
  <path fill="#b78b0b" d="M11 131l-7-5c-2-3-2-4-1-16a177 177 0 0 1 32-90l6-6 18 3 22 2c5 0 6 2 9 10 1 5 4 9 7 13 5 9 5 9 1 5l-4-5H81l-19 2c-6 1-7 2-11 7-11 15-25 48-29 70-2 13-2 13-11 10z"/>
  <path fill="#e2a313" d="M26 145l-5-5-2-6c-1-2-1-6 1-13 5-31 25-73 37-79l20-2 16-1 5 5 5 7-11 18C77 92 76 93 78 96c3 2-2 13-6 14-2 0-4 3-8 12-4 11-5 13-10 16l-8 4-5 2c-5 2-12 3-15 1z"/>
  <path fill="#020404" d="M220 190c-7-2-20-7-29-12-9-6-24-21-28-29l-3-6 5-7c7-9 43-46 52-54 6-5 7-5 9-3 5 4 14 25 18 38 5 20 3 39-5 59-5 15-7 16-19 14z"/>
  <path fill="#49a943" d="M138 243c-2-1-3-5-3-9l-2-9-14-10a97 97 0 0 1-46-62c-3-12-3-19 0-31l1-12c-1-3 4-15 6-15 0 0 3-2 5-6 10-14 25-27 39-33 6-3 25-7 30-7l6-8c9-13 14-18 18-18 8 0 30 7 42 13 22 10 31 19 27 25l-11 7c-8 4-11 10-13 9s-42 37-67 68l-12 15 1 9c0 10-2 14-9 18-11 7-26-1-26-14 0-5 2-10 6-14 3-3 4-5 4-9 0-8 3-27 7-40s4-17-1-6c-4 11-7 24-9 38-2 11-3 14-7 19-2 3-5 7-5 10-2 10 7 23 18 24 15 3 25-6 25-23 0-7 1-8 6-14l7-6c1 0-9-13 5 5s39 30 51 33c7 2 15 2 22 2l15 1 1 6c3 12 2 16-3 20a161 161 0 0 1-89 26c-22 1-23 0-25-2z"/>
</svg>
