<svg xmlns="http://www.w3.org/2000/svg" viewBox="0 0 25 25">
    <path fill="#fff" d="M24.97 4.775a10.715 10.715 0 0 1-2.563 2.643 14.55 14.55 0 0 1-.584 4.771 14.807 14.807 0 0 1-1.83 3.936 15.49 15.49 0 0 1-2.92 3.332c-1.127.964-2.488 1.734-4.082 2.31-1.595.577-3.298.865-5.11.863-2.86 0-5.477-.765-7.85-2.295.37.042.781.063 1.235.063 2.373 0 4.489-.728 6.347-2.184a4.974 4.974 0 0 1-2.975-1.02 5.009 5.009 0 0 1-1.808-2.529c.348.054.67.08.966.08.453 0 .901-.058 1.345-.175a5.02 5.02 0 0 1-2.933-1.764c-.776-.933-1.164-2.017-1.166-3.253V9.49c.717.4 1.487.617 2.31.65a5.09 5.09 0 0 1-1.66-1.82 5.007 5.007 0 0 1-.62-2.438c0-.928.232-1.788.698-2.58a14.462 14.462 0 0 0 4.66 3.776c1.83.944 3.79 1.469 5.88 1.574a5.62 5.62 0 0 1-.127-1.17c0-1.414.498-2.62 1.496-3.617.997-.996 2.201-1.495 3.613-1.496 1.477 0 2.722.539 3.735 1.617a10.012 10.012 0 0 0 3.244-1.234c-.391 1.214-1.14 2.153-2.248 2.818a10.146 10.146 0 0 0 2.944-.79z"/>
</svg>
